G04 #@! TF.GenerationSoftware,KiCad,Pcbnew,10.0.2-10.0.2~ubuntu24.04.1*
G04 #@! TF.CreationDate,2026-06-22T11:54:03+02:00*
G04 #@! TF.ProjectId,eyevolt,65796576-6f6c-4742-9e6b-696361645f70,rev?*
G04 #@! TF.SameCoordinates,Original*
G04 #@! TF.FileFunction,Paste,Top*
G04 #@! TF.FilePolarity,Positive*
%FSLAX46Y46*%
G04 Gerber Fmt 4.6, Leading zero omitted, Abs format (unit mm)*
G04 Created by KiCad (PCBNEW 10.0.2-10.0.2~ubuntu24.04.1) date 2026-06-22 11:54:03*
%MOMM*%
%LPD*%
G01*
G04 APERTURE LIST*
G04 Aperture macros list*
%AMRoundRect*
0 Rectangle with rounded corners*
0 $1 Rounding radius*
0 $2 $3 $4 $5 $6 $7 $8 $9 X,Y pos of 4 corners*
0 Add a 4 corners polygon primitive as box body*
4,1,4,$2,$3,$4,$5,$6,$7,$8,$9,$2,$3,0*
0 Add four circle primitives for the rounded corners*
1,1,$1+$1,$2,$3*
1,1,$1+$1,$4,$5*
1,1,$1+$1,$6,$7*
1,1,$1+$1,$8,$9*
0 Add four rect primitives between the rounded corners*
20,1,$1+$1,$2,$3,$4,$5,0*
20,1,$1+$1,$4,$5,$6,$7,0*
20,1,$1+$1,$6,$7,$8,$9,0*
20,1,$1+$1,$8,$9,$2,$3,0*%
G04 Aperture macros list end*
%ADD10RoundRect,0.250000X-0.475000X0.337500X-0.475000X-0.337500X0.475000X-0.337500X0.475000X0.337500X0*%
%ADD11RoundRect,0.250000X-0.450000X0.350000X-0.450000X-0.350000X0.450000X-0.350000X0.450000X0.350000X0*%
%ADD12RoundRect,0.250000X-0.350000X-0.450000X0.350000X-0.450000X0.350000X0.450000X-0.350000X0.450000X0*%
%ADD13RoundRect,0.150000X-0.825000X-0.150000X0.825000X-0.150000X0.825000X0.150000X-0.825000X0.150000X0*%
%ADD14RoundRect,0.250000X-0.337500X-0.475000X0.337500X-0.475000X0.337500X0.475000X-0.337500X0.475000X0*%
%ADD15RoundRect,0.150000X-0.150000X0.512500X-0.150000X-0.512500X0.150000X-0.512500X0.150000X0.512500X0*%
%ADD16RoundRect,0.250000X0.070711X-0.565685X0.565685X-0.070711X-0.070711X0.565685X-0.565685X0.070711X0*%
%ADD17RoundRect,0.155000X0.212500X0.155000X-0.212500X0.155000X-0.212500X-0.155000X0.212500X-0.155000X0*%
%ADD18RoundRect,0.250000X-0.565685X-0.070711X-0.070711X-0.565685X0.565685X0.070711X0.070711X0.565685X0*%
%ADD19RoundRect,0.155000X0.155000X-0.212500X0.155000X0.212500X-0.155000X0.212500X-0.155000X-0.212500X0*%
%ADD20RoundRect,0.250000X0.350000X0.450000X-0.350000X0.450000X-0.350000X-0.450000X0.350000X-0.450000X0*%
%ADD21RoundRect,0.250000X0.475000X-0.337500X0.475000X0.337500X-0.475000X0.337500X-0.475000X-0.337500X0*%
%ADD22RoundRect,0.150000X0.825000X0.150000X-0.825000X0.150000X-0.825000X-0.150000X0.825000X-0.150000X0*%
%ADD23RoundRect,0.250000X0.450000X-0.350000X0.450000X0.350000X-0.450000X0.350000X-0.450000X-0.350000X0*%
%ADD24RoundRect,0.155000X-0.155000X0.212500X-0.155000X-0.212500X0.155000X-0.212500X0.155000X0.212500X0*%
G04 APERTURE END LIST*
D10*
X82766812Y-100164998D03*
X84841812Y-100164998D03*
D11*
X45432547Y-105370000D03*
X45432547Y-107370000D03*
D12*
X99182307Y-119300000D03*
X101182307Y-119300000D03*
D13*
X129050000Y-63000000D03*
X129050000Y-64270000D03*
X129050000Y-65540000D03*
X129050000Y-66810000D03*
X129050000Y-68080000D03*
X129050000Y-69350000D03*
X129050000Y-70620000D03*
X134000000Y-70620000D03*
X134000000Y-69350000D03*
X134000000Y-68080000D03*
X134000000Y-66810000D03*
X134000000Y-65540000D03*
X134000000Y-64270000D03*
X134000000Y-63000000D03*
D14*
X70312890Y-100164998D03*
X72387890Y-100164998D03*
D12*
X136837438Y-119396179D03*
X138837438Y-119396179D03*
D15*
X72199999Y-119220000D03*
X71250000Y-119220000D03*
X70300001Y-119220000D03*
X70300001Y-121495000D03*
X72199999Y-121495000D03*
D13*
X129050000Y-75730000D03*
X129050000Y-77000000D03*
X129050000Y-78270000D03*
X129050000Y-79540000D03*
X129050000Y-80810000D03*
X129050000Y-82080000D03*
X129050000Y-83350000D03*
X134000000Y-83350000D03*
X134000000Y-82080000D03*
X134000000Y-80810000D03*
X134000000Y-79540000D03*
X134000000Y-78270000D03*
X134000000Y-77000000D03*
X134000000Y-75730000D03*
D10*
X107674656Y-100544999D03*
X109749656Y-100544999D03*
D16*
X79377635Y-91927056D03*
X80791849Y-93341270D03*
D17*
X59357500Y-123481833D03*
X58222500Y-123481833D03*
D15*
X109518759Y-119325289D03*
X108568760Y-119325289D03*
X107618761Y-119325289D03*
X107618761Y-121600289D03*
X109518759Y-121600289D03*
D18*
X54500265Y-91948772D03*
X55914479Y-93362986D03*
D19*
X91680000Y-81277500D03*
X91680000Y-80142500D03*
D17*
X71837500Y-123505934D03*
X70702500Y-123505934D03*
X46787500Y-123290000D03*
X45652500Y-123290000D03*
D20*
X82750000Y-105370000D03*
X82750000Y-107370000D03*
D18*
X66870101Y-91950000D03*
X68284315Y-93364214D03*
D19*
X104180000Y-58817500D03*
X104180000Y-57682500D03*
X103820000Y-81270000D03*
X103820000Y-80135000D03*
D10*
X95220734Y-100164998D03*
X97295734Y-100164998D03*
D17*
X100057500Y-53630000D03*
X98922500Y-53630000D03*
D15*
X134500168Y-119366829D03*
X133550169Y-119366829D03*
X132600170Y-119366829D03*
X132600170Y-121641829D03*
X134500168Y-121641829D03*
D17*
X121607500Y-123545840D03*
X120472500Y-123545840D03*
D15*
X59760553Y-119143201D03*
X58810554Y-119143201D03*
X57860555Y-119143201D03*
X57860555Y-121418201D03*
X59760553Y-121418201D03*
D12*
X86923853Y-119330476D03*
X88923853Y-119330476D03*
D14*
X70315748Y-116270000D03*
X72390748Y-116270000D03*
D12*
X74439393Y-119258952D03*
X76439393Y-119258952D03*
D21*
X82761098Y-116269999D03*
X84836098Y-116269999D03*
D17*
X134127500Y-123510000D03*
X132992500Y-123510000D03*
D11*
X132610000Y-105370001D03*
X132610000Y-107370001D03*
D18*
X42082406Y-91472405D03*
X43496620Y-92886619D03*
D20*
X122260000Y-66640000D03*
X120260000Y-66640000D03*
D17*
X109197500Y-123551522D03*
X108062500Y-123551522D03*
D11*
X57886469Y-105370000D03*
X57886469Y-107370000D03*
D12*
X124359906Y-119395301D03*
X126359906Y-119395301D03*
D16*
X116470351Y-91982796D03*
X117884565Y-93397010D03*
D22*
X98750000Y-81260000D03*
X98750000Y-79990000D03*
X98750000Y-78720000D03*
X98750000Y-77450000D03*
X98750000Y-76180000D03*
X98750000Y-74910000D03*
X98750000Y-73640000D03*
X98750000Y-72370000D03*
X93800000Y-72370000D03*
X93800000Y-73640000D03*
X93800000Y-74910000D03*
X93800000Y-76180000D03*
X93800000Y-77450000D03*
X93800000Y-78720000D03*
X93800000Y-79990000D03*
X93800000Y-81260000D03*
D20*
X122260000Y-59120000D03*
X120260000Y-59120000D03*
D17*
X84347500Y-123500000D03*
X83212500Y-123500000D03*
D21*
X95206449Y-116269999D03*
X97281449Y-116269999D03*
D18*
X128946598Y-92255126D03*
X130360812Y-93669340D03*
D19*
X126990000Y-66827500D03*
X126990000Y-65692500D03*
D15*
X121987180Y-119368526D03*
X121037181Y-119368526D03*
X120087182Y-119368526D03*
X120087182Y-121643526D03*
X121987180Y-121643526D03*
D14*
X132582500Y-100164999D03*
X134657500Y-100164999D03*
D20*
X120156078Y-105370000D03*
X120156078Y-107370000D03*
D17*
X96787500Y-123519014D03*
X95652500Y-123519014D03*
D23*
X118170000Y-61146667D03*
X118170000Y-59146667D03*
D20*
X122260000Y-52210000D03*
X120260000Y-52210000D03*
D15*
X84679982Y-119301734D03*
X83729983Y-119301734D03*
X82779984Y-119301734D03*
X82779984Y-121576734D03*
X84679982Y-121576734D03*
D21*
X107651799Y-116269999D03*
X109726799Y-116269999D03*
D16*
X104110000Y-92160000D03*
X105524214Y-93574214D03*
D12*
X62152597Y-119150000D03*
X64152597Y-119150000D03*
D14*
X45405047Y-100164998D03*
X47480047Y-100164998D03*
D20*
X122260000Y-73506667D03*
X120260000Y-73506667D03*
D14*
X45425047Y-116269999D03*
X47500047Y-116269999D03*
D12*
X111829779Y-119343224D03*
X113829779Y-119343224D03*
D13*
X95100000Y-55000000D03*
X95100000Y-56270000D03*
X95100000Y-57540000D03*
X95100000Y-58810000D03*
X95100000Y-60080000D03*
X95100000Y-61350000D03*
X95100000Y-62620000D03*
X95100000Y-63890000D03*
X100050000Y-63890000D03*
X100050000Y-62620000D03*
X100050000Y-61350000D03*
X100050000Y-60080000D03*
X100050000Y-58810000D03*
X100050000Y-57540000D03*
X100050000Y-56270000D03*
X100050000Y-55000000D03*
D20*
X95248234Y-105370000D03*
X95248234Y-107370000D03*
D16*
X91790000Y-92020000D03*
X93204214Y-93434214D03*
D12*
X49417453Y-119170000D03*
X51417453Y-119170000D03*
D10*
X120128577Y-100164998D03*
X122203577Y-100164998D03*
D11*
X70340391Y-105370000D03*
X70340391Y-107370000D03*
D13*
X129050000Y-50000000D03*
X129050000Y-51270000D03*
X129050000Y-52540000D03*
X129050000Y-53810000D03*
X129050000Y-55080000D03*
X129050000Y-56350000D03*
X129050000Y-57620000D03*
X134000000Y-57620000D03*
X134000000Y-56350000D03*
X134000000Y-55080000D03*
X134000000Y-53810000D03*
X134000000Y-52540000D03*
X134000000Y-51270000D03*
X134000000Y-50000000D03*
D20*
X107660000Y-105370000D03*
X107660000Y-107370000D03*
D23*
X118170000Y-75520000D03*
X118170000Y-73520000D03*
D14*
X57870397Y-116269999D03*
X59945397Y-116269999D03*
D23*
X118170000Y-54220000D03*
X118170000Y-52220000D03*
D15*
X47329999Y-119162500D03*
X46380000Y-119162500D03*
X45430001Y-119162500D03*
X45430001Y-121437500D03*
X47329999Y-121437500D03*
D13*
X106050000Y-55000000D03*
X106050000Y-56270000D03*
X106050000Y-57540000D03*
X106050000Y-58810000D03*
X106050000Y-60080000D03*
X106050000Y-61350000D03*
X106050000Y-62620000D03*
X111000000Y-62620000D03*
X111000000Y-61350000D03*
X111000000Y-60080000D03*
X111000000Y-58810000D03*
X111000000Y-57540000D03*
X111000000Y-56270000D03*
X111000000Y-55000000D03*
D22*
X111475000Y-81260000D03*
X111475000Y-79990000D03*
X111475000Y-78720000D03*
X111475000Y-77450000D03*
X111475000Y-76180000D03*
X111475000Y-74910000D03*
X111475000Y-73640000D03*
X111475000Y-72370000D03*
X106525000Y-72370000D03*
X106525000Y-73640000D03*
X106525000Y-74910000D03*
X106525000Y-76180000D03*
X106525000Y-77450000D03*
X106525000Y-78720000D03*
X106525000Y-79990000D03*
X106525000Y-81260000D03*
D21*
X120097150Y-116269999D03*
X122172150Y-116269999D03*
D19*
X126600000Y-80127500D03*
X126600000Y-78992500D03*
D14*
X57858969Y-100164998D03*
X59933969Y-100164998D03*
D10*
X132542500Y-116269999D03*
X134617500Y-116269999D03*
D24*
X126240000Y-53822500D03*
X126240000Y-54957500D03*
D15*
X97095330Y-119300190D03*
X96145331Y-119300190D03*
X95195332Y-119300190D03*
X95195332Y-121575190D03*
X97095330Y-121575190D03*
D23*
X118170000Y-68640000D03*
X118170000Y-66640000D03*
M02*
