M48
; DRILL file KiCad 10.0.2-10.0.2~ubuntu24.04.1 date 2026-06-22T11:54:08
; FORMAT={-:-/ absolute / metric / decimal}
; #@! TF.CreationDate,2026-06-22T11:54:08+02:00
; #@! TF.GenerationSoftware,Kicad,Pcbnew,10.0.2-10.0.2~ubuntu24.04.1
; #@! TF.FileFunction,MixedPlating,1,4
FMAT,2
METRIC
; #@! TA.AperFunction,Plated,PTH,ViaDrill
T1C0.300
; #@! TA.AperFunction,Plated,PTH,ComponentDrill
T2C0.500
; #@! TA.AperFunction,Plated,PTH,ComponentDrill
T3C0.800
; #@! TA.AperFunction,Plated,PTH,ComponentDrill
T4C1.000
; #@! TA.AperFunction,Plated,PTH,ComponentDrill
T5C1.020
; #@! TA.AperFunction,Plated,PTH,ComponentDrill
T6C3.500
; #@! TA.AperFunction,NonPlated,NPTH,ComponentDrill
T7C1.500
; #@! TA.AperFunction,NonPlated,NPTH,ComponentDrill
T8C1.800
%
G90
G05
T1
X35.0Y-125.0
X35.0Y-127.5
X37.5Y-85.0
X37.5Y-92.5
X37.5Y-95.0
X37.5Y-97.5
X37.5Y-100.0
X37.5Y-102.5
X37.5Y-105.0
X37.5Y-107.5
X37.5Y-110.0
X37.75Y-125.0
X37.75Y-127.5
X40.0Y-85.0
X40.0Y-92.5
X40.0Y-95.0
X40.0Y-97.5
X40.0Y-100.0
X40.0Y-102.5
X40.0Y-105.0
X40.0Y-107.5
X40.0Y-110.0
X40.75Y-75.5
X40.75Y-76.25
X40.75Y-81.5
X40.75Y-82.25
X41.25Y-63.75
X41.25Y-64.75
X41.5Y-75.5
X41.5Y-76.25
X41.5Y-81.5
X41.5Y-82.25
X42.25Y-75.5
X42.25Y-76.25
X42.25Y-81.5
X42.25Y-82.25
X42.5Y-87.5
X42.75Y-63.75
X42.75Y-64.75
X43.0Y-75.5
X43.0Y-76.25
X43.0Y-81.5
X43.0Y-82.25
X44.25Y-63.75
X44.25Y-64.75
X44.83Y-122.87
X45.0Y-85.0
X45.0Y-87.5
X45.0Y-90.0
X45.0Y-130.0
X45.0Y-132.5
X46.79Y-124.38
X47.48Y-98.95
X47.48Y-101.35
X47.5Y-90.0
X47.5Y-92.5
X47.5Y-117.31
X47.5Y-130.0
X47.5Y-132.5
X47.5Y-135.0
X47.51Y-115.21
X48.45Y-100.16
X48.51Y-116.27
X49.0Y-120.75
X49.0Y-121.5
X49.0Y-122.25
X49.0Y-123.0
X50.0Y-92.75
X50.0Y-95.25
X50.0Y-100.25
X50.0Y-102.75
X50.0Y-105.25
X50.0Y-107.75
X50.0Y-110.25
X50.0Y-115.75
X50.0Y-116.75
X50.0Y-117.75
X50.0Y-120.75
X50.0Y-121.5
X50.0Y-122.25
X50.0Y-123.0
X51.0Y-120.75
X51.0Y-121.5
X51.0Y-122.25
X51.0Y-123.0
X51.25Y-115.75
X51.25Y-116.75
X51.25Y-117.75
X52.5Y-92.75
X52.5Y-95.25
X52.5Y-97.75
X52.5Y-100.25
X52.5Y-102.75
X52.5Y-105.25
X52.5Y-107.75
X52.5Y-110.25
X52.5Y-115.75
X52.5Y-116.75
X52.5Y-117.75
X52.5Y-135.0
X53.5Y-75.5
X53.5Y-76.25
X53.75Y-62.25
X53.75Y-63.25
X53.75Y-82.75
X53.75Y-84.75
X54.25Y-75.5
X54.25Y-76.25
X54.75Y-62.25
X54.75Y-63.25
X55.0Y-67.5
X55.0Y-72.25
X55.0Y-75.5
X55.0Y-76.25
X55.25Y-47.5
X55.25Y-50.0
X55.75Y-62.25
X55.75Y-63.25
X55.75Y-75.5
X55.75Y-76.25
X56.0Y-82.75
X56.0Y-84.75
X57.5Y-135.0
X58.23Y-122.82
X59.93Y-101.35
X59.94Y-98.8
X59.94Y-115.17
X59.95Y-117.41
X60.0Y-47.5
X60.0Y-50.0
X60.0Y-67.5
X60.0Y-72.5
X60.357Y-92.75
X60.357Y-95.25
X60.357Y-97.75
X60.357Y-102.75
X60.357Y-105.25
X60.357Y-107.75
X60.357Y-110.25
X61.0Y-116.27
X61.07Y-100.16
X61.49Y-124.38
X62.0Y-115.5
X62.0Y-116.25
X62.0Y-117.0
X62.5Y-135.0
X62.857Y-92.75
X62.857Y-95.25
X62.857Y-100.25
X62.857Y-102.75
X62.857Y-105.25
X62.857Y-107.75
X62.857Y-110.25
X63.0Y-115.5
X63.0Y-116.25
X63.0Y-117.0
X64.0Y-115.5
X64.0Y-116.25
X64.0Y-117.0
X65.0Y-47.5
X65.0Y-50.0
X65.0Y-67.5
X65.0Y-72.5
X65.75Y-62.0
X66.25Y-75.25
X66.25Y-76.0
X66.25Y-81.5
X66.25Y-82.25
X66.5Y-62.0
X67.0Y-75.25
X67.0Y-76.0
X67.0Y-81.5
X67.0Y-82.25
X67.25Y-62.0
X67.5Y-135.0
X67.75Y-75.25
X67.75Y-76.0
X67.75Y-81.5
X67.75Y-82.25
X68.0Y-62.0
X68.5Y-75.25
X68.5Y-76.0
X68.5Y-81.5
X68.5Y-82.25
X68.75Y-62.0
X70.0Y-47.5
X70.0Y-50.0
X70.0Y-67.5
X70.0Y-72.5
X70.02Y-123.5
X71.84Y-124.38
X72.39Y-99.02
X72.39Y-115.16
X72.39Y-117.46
X72.4Y-101.29
X72.5Y-135.0
X73.36Y-116.28
X73.5Y-100.18
X74.0Y-115.75
X74.0Y-116.5
X74.0Y-117.25
X74.25Y-94.0
X74.25Y-96.5
X74.25Y-99.0
X74.25Y-101.5
X74.25Y-104.0
X74.25Y-106.5
X74.25Y-109.0
X74.25Y-111.5
X74.75Y-115.75
X74.75Y-116.5
X74.75Y-117.25
X75.0Y-47.5
X75.0Y-50.0
X75.0Y-67.5
X75.0Y-72.5
X76.75Y-94.0
X76.75Y-96.5
X76.75Y-99.0
X76.75Y-101.5
X76.75Y-104.0
X76.75Y-106.5
X76.75Y-109.0
X76.75Y-111.5
X77.5Y-135.0
X79.0Y-81.5
X79.0Y-82.25
X79.75Y-81.5
X79.75Y-82.25
X80.0Y-47.5
X80.0Y-50.25
X80.0Y-67.5
X80.0Y-72.5
X80.5Y-81.5
X80.5Y-82.25
X81.25Y-81.5
X81.25Y-82.25
X82.46Y-123.5
X82.5Y-135.0
X82.75Y-87.5
X82.75Y-90.0
X84.35Y-124.32
X84.83Y-115.34
X84.84Y-98.97
X84.85Y-102.0
X84.85Y-117.26
X85.0Y-47.5
X85.0Y-50.25
X85.25Y-87.5
X85.25Y-90.0
X85.93Y-116.27
X86.75Y-115.5
X86.75Y-116.25
X86.75Y-117.0
X87.0Y-94.25
X87.0Y-104.25
X87.0Y-106.75
X87.0Y-109.25
X87.0Y-111.75
X87.5Y-115.5
X87.5Y-116.25
X87.5Y-117.0
X87.5Y-135.0
X88.5Y-67.5
X88.5Y-68.25
X88.5Y-69.0
X88.5Y-69.75
X88.5Y-70.5
X89.25Y-67.5
X89.25Y-68.25
X89.25Y-69.0
X89.25Y-69.75
X89.25Y-70.5
X89.5Y-94.25
X89.5Y-96.75
X89.5Y-104.25
X89.5Y-106.75
X89.5Y-109.25
X89.5Y-111.75
X90.0Y-47.5
X90.0Y-50.0
X90.64Y-81.28
X92.37Y-76.18
X92.5Y-67.5
X92.5Y-70.25
X92.5Y-135.0
X93.15Y-55.0
X94.26Y-69.09
X94.78Y-123.37
X95.0Y-47.5
X95.0Y-50.0
X95.0Y-87.5
X95.0Y-90.0
X95.32Y-77.45
X96.79Y-124.3
X97.04Y-74.91
X97.25Y-135.0
X97.28Y-79.95
X97.28Y-99.1
X97.28Y-115.3
X97.28Y-117.21
X97.3Y-101.93
X97.5Y-67.5
X97.5Y-70.0
X97.5Y-87.5
X97.5Y-90.0
X97.72Y-60.51
X98.23Y-53.63
X98.44Y-116.27
X98.92Y-52.98
X99.0Y-92.75
X99.0Y-95.25
X99.0Y-102.75
X99.0Y-105.25
X99.0Y-107.75
X99.0Y-110.25
X99.25Y-115.25
X99.25Y-116.0
X99.25Y-116.75
X100.0Y-47.5
X100.0Y-50.0
X100.0Y-67.5
X100.0Y-70.0
X100.0Y-115.25
X100.0Y-116.0
X100.0Y-116.75
X100.06Y-52.8
X100.14Y-76.18
X101.18Y-117.84
X101.32Y-80.65
X101.33Y-77.45
X101.5Y-92.75
X101.5Y-95.25
X101.5Y-102.75
X101.5Y-105.25
X101.5Y-107.75
X101.5Y-110.25
X101.84Y-56.27
X102.4Y-79.86
X102.5Y-67.5
X102.5Y-70.0
X102.73Y-74.91
X102.75Y-78.42
X102.8Y-72.5
X103.31Y-57.68
X103.49Y-58.82
X104.69Y-77.46
X105.0Y-47.5
X105.0Y-50.0
X105.0Y-130.0
X105.0Y-135.0
X105.16Y-78.71
X105.17Y-76.19
X105.19Y-70.7
X105.22Y-79.99
X106.92Y-123.35
X107.5Y-65.0
X107.5Y-67.5
X107.5Y-70.0
X107.5Y-87.5
X107.5Y-90.0
X109.0Y-72.0
X109.0Y-72.75
X109.2Y-124.32
X109.61Y-74.64
X109.69Y-61.35
X109.72Y-115.34
X109.73Y-117.29
X109.75Y-72.0
X109.75Y-72.75
X109.75Y-99.45
X109.75Y-101.68
X110.0Y-47.5
X110.0Y-50.0
X110.0Y-65.0
X110.0Y-67.5
X110.0Y-70.0
X110.0Y-87.5
X110.0Y-90.0
X110.0Y-92.5
X110.0Y-95.0
X110.0Y-130.0
X110.0Y-135.0
X110.05Y-81.25
X110.85Y-100.55
X110.89Y-116.28
X111.75Y-115.25
X111.75Y-116.0
X111.75Y-116.75
X111.75Y-117.5
X112.25Y-102.5
X112.25Y-105.0
X112.5Y-67.5
X112.5Y-70.0
X112.5Y-92.5
X112.5Y-95.0
X112.75Y-115.25
X112.75Y-116.0
X112.75Y-116.75
X112.75Y-117.5
X113.0Y-62.25
X113.0Y-63.5
X113.0Y-64.75
X113.0Y-77.45
X113.01Y-80.0
X113.25Y-72.0
X113.25Y-72.75
X113.25Y-73.5
X113.75Y-55.0
X113.75Y-56.25
X113.86Y-117.75
X114.0Y-72.0
X114.0Y-72.75
X114.0Y-73.5
X114.01Y-76.17
X114.25Y-62.25
X114.25Y-63.5
X114.25Y-64.75
X114.75Y-102.5
X114.75Y-105.0
X115.0Y-47.5
X115.0Y-50.0
X115.0Y-130.0
X115.0Y-135.0
X115.25Y-55.0
X115.25Y-56.25
X115.43Y-76.1
X117.25Y-55.5
X117.25Y-56.25
X117.25Y-57.0
X117.5Y-70.0
X117.5Y-71.0
X118.0Y-62.75
X118.0Y-63.75
X118.0Y-64.75
X118.25Y-55.5
X118.25Y-56.25
X118.25Y-57.0
X118.5Y-70.0
X118.5Y-71.0
X119.25Y-62.75
X119.25Y-63.75
X119.25Y-64.75
X119.36Y-123.35
X119.5Y-70.0
X119.5Y-71.0
X120.0Y-47.5
X120.0Y-50.0
X120.0Y-80.25
X120.0Y-81.25
X120.0Y-130.0
X120.0Y-135.0
X120.25Y-87.5
X120.25Y-90.0
X120.5Y-62.75
X120.5Y-63.75
X120.5Y-64.75
X121.58Y-124.32
X122.18Y-115.29
X122.18Y-117.35
X122.21Y-99.13
X122.21Y-101.29
X122.5Y-80.25
X122.5Y-81.25
X122.75Y-87.5
X122.75Y-90.0
X123.32Y-116.27
X123.35Y-100.17
X124.5Y-102.0
X124.5Y-104.5
X124.5Y-115.5
X124.5Y-116.25
X124.5Y-117.0
X124.5Y-117.75
X125.0Y-47.5
X125.0Y-50.0
X125.0Y-55.0
X125.0Y-55.75
X125.0Y-56.5
X125.25Y-115.5
X125.25Y-116.25
X125.25Y-117.0
X125.25Y-117.75
X125.36Y-53.82
X125.41Y-80.15
X125.51Y-78.02
X125.59Y-64.34
X126.0Y-55.75
X126.0Y-56.5
X126.32Y-65.692
X126.32Y-66.83
X126.34Y-118.09
X126.35Y-69.34
X126.5Y-60.5
X126.5Y-61.5
X126.6Y-78.02
X126.99Y-65.01
X127.0Y-55.0
X127.0Y-55.75
X127.0Y-56.5
X127.0Y-102.0
X127.0Y-104.5
X127.18Y-77.0
X127.5Y-72.5
X127.5Y-73.75
X127.75Y-60.5
X127.75Y-61.5
X129.0Y-60.5
X129.0Y-61.5
X130.0Y-72.5
X130.0Y-73.75
X130.0Y-127.5
X130.0Y-132.5
X130.25Y-60.5
X130.25Y-61.5
X130.7Y-78.27
X131.15Y-81.19
X131.5Y-60.5
X131.5Y-61.5
X131.98Y-123.26
X132.21Y-63.0
X132.23Y-70.62
X132.28Y-77.0
X132.5Y-72.5
X132.5Y-73.75
X132.75Y-60.5
X132.75Y-61.5
X134.0Y-60.5
X134.0Y-61.5
X134.12Y-124.32
X134.61Y-115.3
X134.62Y-117.32
X134.66Y-98.91
X134.66Y-101.45
X135.0Y-72.5
X135.0Y-73.75
X135.0Y-87.5
X135.0Y-92.5
X135.0Y-127.5
X135.0Y-132.5
X135.25Y-59.25
X135.25Y-60.5
X135.25Y-61.5
X135.6Y-100.16
X135.67Y-65.54
X135.73Y-116.27
X136.5Y-56.0
X136.5Y-57.0
X136.5Y-58.0
X136.5Y-59.25
X136.5Y-60.5
X136.5Y-61.5
X136.5Y-115.25
X136.5Y-116.0
X136.5Y-116.75
X136.5Y-117.5
X137.5Y-50.0
X137.5Y-53.75
X137.5Y-56.0
X137.5Y-57.0
X137.5Y-58.0
X137.5Y-115.25
X137.5Y-116.0
X137.5Y-116.75
X137.5Y-117.5
X137.84Y-80.81
X138.5Y-56.0
X138.5Y-57.0
X138.5Y-58.0
X138.84Y-117.75
X140.0Y-50.0
X140.0Y-53.75
X140.0Y-87.5
X140.0Y-92.5
X140.0Y-127.5
X140.0Y-132.5
X142.5Y-50.0
X142.5Y-52.5
X145.0Y-52.5
X145.0Y-54.75
X145.0Y-87.5
X145.0Y-92.5
X145.0Y-97.5
X145.0Y-102.5
X145.0Y-107.5
X145.0Y-112.5
X145.0Y-117.5
X145.0Y-122.5
X145.0Y-127.5
X145.0Y-132.5
X150.0Y-87.5
X150.0Y-92.5
X150.0Y-97.5
X150.0Y-102.5
X150.0Y-107.5
X150.0Y-112.5
X150.0Y-117.5
X150.0Y-122.5
X150.0Y-127.5
T2
X33.965Y-133.5
X34.734Y-131.644
X34.734Y-135.356
X35.775Y-50.4
X36.544Y-48.544
X36.544Y-52.256
X36.59Y-130.875
X36.59Y-136.125
X38.4Y-47.775
X38.4Y-53.025
X38.446Y-131.644
X38.446Y-135.356
X39.215Y-133.5
X40.256Y-48.544
X40.256Y-52.256
X41.025Y-50.4
X148.875Y-50.0
X148.875Y-133.5
X149.644Y-48.144
X149.644Y-51.856
X149.644Y-131.644
X149.644Y-135.356
X151.5Y-47.375
X151.5Y-52.625
X151.5Y-130.875
X151.5Y-136.125
X153.356Y-48.144
X153.356Y-51.856
X153.356Y-131.644
X153.356Y-135.356
X154.125Y-50.0
X154.125Y-133.5
T3
X39.975Y-89.365
X45.363Y-94.753
X45.4Y-97.8
X45.423Y-113.57
X45.433Y-102.927
X45.433Y-110.547
X50.4Y-97.8
X50.423Y-113.57
X52.376Y-89.83
X57.765Y-95.218
X57.857Y-97.8
X57.865Y-113.655
X57.877Y-102.927
X57.877Y-110.547
X62.857Y-97.8
X62.865Y-113.655
X64.878Y-89.968
X70.266Y-95.356
X70.308Y-113.645
X70.314Y-97.8
X70.322Y-102.927
X70.322Y-110.547
X75.308Y-113.645
X75.314Y-97.8
X77.383Y-89.948
X82.75Y-113.71
X82.766Y-102.927
X82.766Y-110.547
X82.771Y-95.336
X82.771Y-97.8
X87.75Y-113.71
X87.771Y-97.8
X89.793Y-90.043
X95.181Y-95.431
X95.193Y-113.44
X95.211Y-102.927
X95.211Y-110.547
X95.229Y-97.8
X100.193Y-113.44
X100.229Y-97.8
X102.11Y-90.186
X107.499Y-95.574
X107.635Y-113.435
X107.656Y-102.927
X107.656Y-110.547
X107.686Y-98.18
X112.635Y-113.435
X112.686Y-98.18
X114.468Y-90.011
X119.856Y-95.399
X120.078Y-113.52
X120.1Y-102.927
X120.1Y-110.547
X120.143Y-97.8
X125.078Y-113.52
X125.143Y-97.8
X126.854Y-90.197
X132.242Y-95.586
X132.52Y-113.51
X132.545Y-102.927
X132.545Y-110.547
X132.6Y-97.8
X137.52Y-113.51
X137.6Y-97.8
T4
X49.48Y-128.96
X49.48Y-131.5
X52.02Y-128.96
X52.02Y-131.5
X54.56Y-128.96
X54.56Y-131.5
X57.1Y-128.96
X57.1Y-131.5
X59.64Y-128.96
X59.64Y-131.5
X62.18Y-128.96
X62.18Y-131.5
X64.72Y-128.96
X64.72Y-131.5
X67.26Y-128.96
X67.26Y-131.5
X69.8Y-128.96
X69.8Y-131.5
X72.34Y-128.96
X72.34Y-131.5
X74.88Y-128.96
X74.88Y-131.5
X77.42Y-128.96
X77.42Y-131.5
X79.96Y-128.96
X79.96Y-131.5
X82.5Y-128.96
X82.5Y-131.5
X85.04Y-128.96
X85.04Y-131.5
X87.58Y-128.96
X87.58Y-131.5
X90.12Y-128.96
X90.12Y-131.5
X92.66Y-128.96
X92.66Y-131.5
X95.2Y-128.96
X95.2Y-131.5
X97.74Y-128.96
X97.74Y-131.5
X145.5Y-58.5
X145.5Y-61.04
X145.5Y-63.58
X145.5Y-66.12
X145.5Y-68.66
X145.5Y-71.2
X145.5Y-73.74
X145.5Y-76.28
X145.5Y-78.82
X145.5Y-81.36
X148.04Y-58.5
X148.04Y-61.04
X148.04Y-63.58
X148.04Y-66.12
X148.04Y-68.66
X148.04Y-71.2
X148.04Y-73.74
X148.04Y-76.28
X148.04Y-78.82
X148.04Y-81.36
T5
X36.87Y-60.11
X36.87Y-77.89
X39.41Y-60.11
X39.41Y-77.89
X41.95Y-60.11
X41.95Y-77.89
X44.49Y-60.11
X44.49Y-77.89
X47.03Y-60.11
X47.03Y-77.89
X49.57Y-60.11
X49.57Y-77.89
X52.11Y-60.11
X52.11Y-77.89
X54.65Y-60.11
X54.65Y-77.89
X57.19Y-60.11
X57.19Y-77.89
X59.73Y-60.11
X59.73Y-77.89
X62.27Y-60.11
X62.27Y-77.89
X64.81Y-60.11
X64.81Y-77.89
X67.35Y-60.11
X67.35Y-77.89
X69.89Y-60.11
X69.89Y-77.89
X72.43Y-60.11
X72.43Y-77.89
X74.97Y-60.11
X74.97Y-77.89
X77.51Y-60.11
X77.51Y-77.89
X80.05Y-60.11
X80.05Y-77.89
X82.59Y-60.11
X82.59Y-77.89
X84.9Y-66.46
X84.9Y-69.0
X84.9Y-71.54
X85.13Y-60.11
X85.13Y-77.89
T6
X36.59Y-133.5
X38.4Y-50.4
X151.5Y-50.0
X151.5Y-133.5
T7
X40.03Y-66.575
X40.03Y-71.425
T8
X37.0Y-66.275
X37.0Y-71.725
M30
