G04 #@! TF.GenerationSoftware,KiCad,Pcbnew,10.0.2-10.0.2~ubuntu24.04.1*
G04 #@! TF.CreationDate,2026-06-22T11:54:04+02:00*
G04 #@! TF.ProjectId,eyevolt,65796576-6f6c-4742-9e6b-696361645f70,rev?*
G04 #@! TF.SameCoordinates,Original*
G04 #@! TF.FileFunction,Soldermask,Top*
G04 #@! TF.FilePolarity,Negative*
%FSLAX46Y46*%
G04 Gerber Fmt 4.6, Leading zero omitted, Abs format (unit mm)*
G04 Created by KiCad (PCBNEW 10.0.2-10.0.2~ubuntu24.04.1) date 2026-06-22 11:54:04*
%MOMM*%
%LPD*%
G01*
G04 APERTURE LIST*
G04 Aperture macros list*
%AMRoundRect*
0 Rectangle with rounded corners*
0 $1 Rounding radius*
0 $2 $3 $4 $5 $6 $7 $8 $9 X,Y pos of 4 corners*
0 Add a 4 corners polygon primitive as box body*
4,1,4,$2,$3,$4,$5,$6,$7,$8,$9,$2,$3,0*
0 Add four circle primitives for the rounded corners*
1,1,$1+$1,$2,$3*
1,1,$1+$1,$4,$5*
1,1,$1+$1,$6,$7*
1,1,$1+$1,$8,$9*
0 Add four rect primitives between the rounded corners*
20,1,$1+$1,$2,$3,$4,$5,0*
20,1,$1+$1,$4,$5,$6,$7,0*
20,1,$1+$1,$6,$7,$8,$9,0*
20,1,$1+$1,$8,$9,$2,$3,0*%
G04 Aperture macros list end*
%ADD10RoundRect,0.250000X-0.475000X0.337500X-0.475000X-0.337500X0.475000X-0.337500X0.475000X0.337500X0*%
%ADD11RoundRect,0.250000X-0.450000X0.350000X-0.450000X-0.350000X0.450000X-0.350000X0.450000X0.350000X0*%
%ADD12RoundRect,0.250000X-0.350000X-0.450000X0.350000X-0.450000X0.350000X0.450000X-0.350000X0.450000X0*%
%ADD13RoundRect,0.150000X-0.825000X-0.150000X0.825000X-0.150000X0.825000X0.150000X-0.825000X0.150000X0*%
%ADD14RoundRect,0.250000X-0.337500X-0.475000X0.337500X-0.475000X0.337500X0.475000X-0.337500X0.475000X0*%
%ADD15RoundRect,0.150000X-0.150000X0.512500X-0.150000X-0.512500X0.150000X-0.512500X0.150000X0.512500X0*%
%ADD16C,1.600000*%
%ADD17RoundRect,0.250000X0.070711X-0.565685X0.565685X-0.070711X-0.070711X0.565685X-0.565685X0.070711X0*%
%ADD18RoundRect,0.155000X0.212500X0.155000X-0.212500X0.155000X-0.212500X-0.155000X0.212500X-0.155000X0*%
%ADD19RoundRect,0.250000X-0.565685X-0.070711X-0.070711X-0.565685X0.565685X0.070711X0.070711X0.565685X0*%
%ADD20RoundRect,0.155000X0.155000X-0.212500X0.155000X0.212500X-0.155000X0.212500X-0.155000X-0.212500X0*%
%ADD21O,1.800000X1.800000*%
%ADD22O,1.500000X1.500000*%
%ADD23O,1.700000X1.700000*%
%ADD24R,1.700000X3.500000*%
%ADD25R,1.700000X1.700000*%
%ADD26R,3.500000X1.700000*%
%ADD27C,0.800000*%
%ADD28C,7.000000*%
%ADD29RoundRect,0.250000X0.350000X0.450000X-0.350000X0.450000X-0.350000X-0.450000X0.350000X-0.450000X0*%
%ADD30RoundRect,0.250000X0.475000X-0.337500X0.475000X0.337500X-0.475000X0.337500X-0.475000X-0.337500X0*%
%ADD31RoundRect,0.150000X0.825000X0.150000X-0.825000X0.150000X-0.825000X-0.150000X0.825000X-0.150000X0*%
%ADD32RoundRect,0.250000X0.450000X-0.350000X0.450000X0.350000X-0.450000X0.350000X-0.450000X-0.350000X0*%
%ADD33RoundRect,0.250000X0.600000X-0.600000X0.600000X0.600000X-0.600000X0.600000X-0.600000X-0.600000X0*%
%ADD34C,1.700000*%
%ADD35RoundRect,0.155000X-0.155000X0.212500X-0.155000X-0.212500X0.155000X-0.212500X0.155000X0.212500X0*%
G04 APERTURE END LIST*
D10*
X82766812Y-100164998D03*
X84841812Y-100164998D03*
D11*
X45432547Y-105370000D03*
X45432547Y-107370000D03*
D12*
X99182307Y-119300000D03*
X101182307Y-119300000D03*
D13*
X129050000Y-63000000D03*
X129050000Y-64270000D03*
X129050000Y-65540000D03*
X129050000Y-66810000D03*
X129050000Y-68080000D03*
X129050000Y-69350000D03*
X129050000Y-70620000D03*
X134000000Y-70620000D03*
X134000000Y-69350000D03*
X134000000Y-68080000D03*
X134000000Y-66810000D03*
X134000000Y-65540000D03*
X134000000Y-64270000D03*
X134000000Y-63000000D03*
D14*
X70312890Y-100164998D03*
X72387890Y-100164998D03*
D12*
X136837438Y-119396179D03*
X138837438Y-119396179D03*
D15*
X72199999Y-119220000D03*
X71250000Y-119220000D03*
X70300001Y-119220000D03*
X70300001Y-121495000D03*
X72199999Y-121495000D03*
D16*
X45400000Y-97799999D03*
X50400000Y-97799999D03*
X57865040Y-113654997D03*
X62865040Y-113654997D03*
D13*
X129050000Y-75730000D03*
X129050000Y-77000000D03*
X129050000Y-78270000D03*
X129050000Y-79540000D03*
X129050000Y-80810000D03*
X129050000Y-82080000D03*
X129050000Y-83350000D03*
X134000000Y-83350000D03*
X134000000Y-82080000D03*
X134000000Y-80810000D03*
X134000000Y-79540000D03*
X134000000Y-78270000D03*
X134000000Y-77000000D03*
X134000000Y-75730000D03*
D10*
X107674656Y-100544999D03*
X109749656Y-100544999D03*
D17*
X79377635Y-91927056D03*
X80791849Y-93341270D03*
D18*
X59357500Y-123481833D03*
X58222500Y-123481833D03*
D15*
X109518759Y-119325289D03*
X108568760Y-119325289D03*
X107618761Y-119325289D03*
X107618761Y-121600289D03*
X109518759Y-121600289D03*
D19*
X54500265Y-91948772D03*
X55914479Y-93362986D03*
D20*
X91680000Y-81277500D03*
X91680000Y-80142500D03*
D21*
X37000000Y-71725000D03*
D22*
X40030000Y-71425000D03*
X40030000Y-66575000D03*
D21*
X37000000Y-66275000D03*
D23*
X36870000Y-77890000D03*
D24*
X36870000Y-78790000D03*
D23*
X39410000Y-77890000D03*
D24*
X39410000Y-78790000D03*
D25*
X41950000Y-77890000D03*
D24*
X41950000Y-78790000D03*
D23*
X44490000Y-77890000D03*
D24*
X44490000Y-78790000D03*
D23*
X47030000Y-77890000D03*
D24*
X47030000Y-78790000D03*
D23*
X49570000Y-77890000D03*
D24*
X49570000Y-78790000D03*
D23*
X52110000Y-77890000D03*
D24*
X52110000Y-78790000D03*
D25*
X54650000Y-77890000D03*
D24*
X54650000Y-78790000D03*
D23*
X57190000Y-77890000D03*
D24*
X57190000Y-78790000D03*
D23*
X59730000Y-77890000D03*
D24*
X59730000Y-78790000D03*
D23*
X62270000Y-77890000D03*
D24*
X62270000Y-78790000D03*
D23*
X64810000Y-77890000D03*
D24*
X64810000Y-78790000D03*
D25*
X67350000Y-77890000D03*
D24*
X67350000Y-78790000D03*
D23*
X69890000Y-77890000D03*
D24*
X69890000Y-78790000D03*
D23*
X72430000Y-77890000D03*
D24*
X72430000Y-78790000D03*
D23*
X74970000Y-77890000D03*
D24*
X74970000Y-78790000D03*
D23*
X77510000Y-77890000D03*
D24*
X77510000Y-78790000D03*
D25*
X80050000Y-77890000D03*
D24*
X80050000Y-78790000D03*
D23*
X82590000Y-77890000D03*
D24*
X82590000Y-78790000D03*
D23*
X85130000Y-77890000D03*
D24*
X85130000Y-78790000D03*
D23*
X85130000Y-60110000D03*
D24*
X85130000Y-59210000D03*
D23*
X82590000Y-60110000D03*
D24*
X82590000Y-59210000D03*
D25*
X80050000Y-60110000D03*
D24*
X80050000Y-59210000D03*
D23*
X77510000Y-60110000D03*
D24*
X77510000Y-59210000D03*
D23*
X74970000Y-60110000D03*
D24*
X74970000Y-59210000D03*
D23*
X72430000Y-60110000D03*
D24*
X72430000Y-59210000D03*
D23*
X69890000Y-60110000D03*
D24*
X69890000Y-59210000D03*
D25*
X67350000Y-60110000D03*
D24*
X67350000Y-59210000D03*
D23*
X64810000Y-60110000D03*
D24*
X64810000Y-59210000D03*
D23*
X62270000Y-60110000D03*
D24*
X62270000Y-59210000D03*
D23*
X59730000Y-60110000D03*
D24*
X59730000Y-59210000D03*
D23*
X57190000Y-60110000D03*
D24*
X57190000Y-59210000D03*
D25*
X54650000Y-60110000D03*
D24*
X54650000Y-59210000D03*
D23*
X52110000Y-60110000D03*
D24*
X52110000Y-59210000D03*
D23*
X49570000Y-60110000D03*
D24*
X49570000Y-59210000D03*
D23*
X47030000Y-60110000D03*
D24*
X47030000Y-59210000D03*
D23*
X44490000Y-60110000D03*
D24*
X44490000Y-59210000D03*
D25*
X41950000Y-60110000D03*
D24*
X41950000Y-59210000D03*
D23*
X39410000Y-60110000D03*
D24*
X39410000Y-59210000D03*
D23*
X36870000Y-60110000D03*
D24*
X36870000Y-59210000D03*
D23*
X84900000Y-71540000D03*
D26*
X85800000Y-71540000D03*
D25*
X84900000Y-69000000D03*
D26*
X85800000Y-69000000D03*
D23*
X84900000Y-66460000D03*
D26*
X85800000Y-66460000D03*
D18*
X71837500Y-123505934D03*
X70702500Y-123505934D03*
X46787500Y-123290000D03*
X45652500Y-123290000D03*
D27*
X148875000Y-50000000D03*
X149643845Y-48143845D03*
X149643845Y-51856155D03*
X151500000Y-47375000D03*
D28*
X151500000Y-50000000D03*
D27*
X151500000Y-52625000D03*
X153356155Y-48143845D03*
X153356155Y-51856155D03*
X154125000Y-50000000D03*
D29*
X82750000Y-105370000D03*
X82750000Y-107370000D03*
D19*
X66870101Y-91950000D03*
X68284315Y-93364214D03*
D16*
X45422547Y-113569999D03*
X50422547Y-113569999D03*
D20*
X104180000Y-58817500D03*
X104180000Y-57682500D03*
D16*
X114468228Y-90010978D03*
X119856382Y-95399132D03*
D20*
X103820000Y-81270000D03*
X103820000Y-80135000D03*
D10*
X95220734Y-100164998D03*
X97295734Y-100164998D03*
D18*
X100057500Y-53630000D03*
X98922500Y-53630000D03*
D15*
X134500168Y-119366829D03*
X133550169Y-119366829D03*
X132600170Y-119366829D03*
X132600170Y-121641829D03*
X134500168Y-121641829D03*
D16*
X57877183Y-102927098D03*
X57877183Y-110547098D03*
D18*
X121607500Y-123545840D03*
X120472500Y-123545840D03*
D15*
X59760553Y-119143201D03*
X58810554Y-119143201D03*
X57860555Y-119143201D03*
X57860555Y-121418201D03*
X59760553Y-121418201D03*
D12*
X86923853Y-119330476D03*
X88923853Y-119330476D03*
D14*
X70315748Y-116270000D03*
X72390748Y-116270000D03*
D27*
X35775000Y-50400000D03*
X36543845Y-48543845D03*
X36543845Y-52256155D03*
X38400000Y-47775000D03*
D28*
X38400000Y-50400000D03*
D27*
X38400000Y-53025000D03*
X40256155Y-48543845D03*
X40256155Y-52256155D03*
X41025000Y-50400000D03*
D12*
X74439393Y-119258952D03*
X76439393Y-119258952D03*
D16*
X57857143Y-97799999D03*
X62857143Y-97799999D03*
X45432547Y-102927098D03*
X45432547Y-110547098D03*
D30*
X82761098Y-116269999D03*
X84836098Y-116269999D03*
D16*
X120142857Y-97799999D03*
X125142857Y-97799999D03*
D18*
X134127500Y-123510000D03*
X132992500Y-123510000D03*
D11*
X132610000Y-105370001D03*
X132610000Y-107370001D03*
D16*
X70314286Y-97799999D03*
X75314286Y-97799999D03*
D19*
X42082406Y-91472405D03*
X43496620Y-92886619D03*
D29*
X122260000Y-66640000D03*
X120260000Y-66640000D03*
D18*
X109197500Y-123551522D03*
X108062500Y-123551522D03*
D11*
X57886469Y-105370000D03*
X57886469Y-107370000D03*
D12*
X124359906Y-119395301D03*
X126359906Y-119395301D03*
D17*
X116470351Y-91982796D03*
X117884565Y-93397010D03*
D31*
X98750000Y-81260000D03*
X98750000Y-79990000D03*
X98750000Y-78720000D03*
X98750000Y-77450000D03*
X98750000Y-76180000D03*
X98750000Y-74910000D03*
X98750000Y-73640000D03*
X98750000Y-72370000D03*
X93800000Y-72370000D03*
X93800000Y-73640000D03*
X93800000Y-74910000D03*
X93800000Y-76180000D03*
X93800000Y-77450000D03*
X93800000Y-78720000D03*
X93800000Y-79990000D03*
X93800000Y-81260000D03*
D29*
X122260000Y-59120000D03*
X120260000Y-59120000D03*
D18*
X84347500Y-123500000D03*
X83212500Y-123500000D03*
D30*
X95206449Y-116269999D03*
X97281449Y-116269999D03*
D16*
X52376419Y-89829977D03*
X57764573Y-95218131D03*
D19*
X128946598Y-92255126D03*
X130360812Y-93669340D03*
D20*
X126990000Y-66827500D03*
X126990000Y-65692500D03*
D15*
X121987180Y-119368526D03*
X121037181Y-119368526D03*
X120087182Y-119368526D03*
X120087182Y-121643526D03*
X121987180Y-121643526D03*
D14*
X132582500Y-100164999D03*
X134657500Y-100164999D03*
D29*
X120156078Y-105370000D03*
X120156078Y-107370000D03*
D16*
X120077507Y-113520000D03*
X125077507Y-113520000D03*
X82750027Y-113710000D03*
X87750027Y-113710000D03*
X64878079Y-89968079D03*
X70266233Y-95356233D03*
D18*
X96787500Y-123519014D03*
X95652500Y-123519014D03*
D16*
X95211092Y-102927098D03*
X95211092Y-110547098D03*
X126853563Y-90197445D03*
X132241717Y-95585599D03*
D32*
X118170000Y-61146667D03*
X118170000Y-59146667D03*
D29*
X122260000Y-52210000D03*
X120260000Y-52210000D03*
D15*
X84679982Y-119301734D03*
X83729983Y-119301734D03*
X82779984Y-119301734D03*
X82779984Y-121576734D03*
X84679982Y-121576734D03*
D30*
X107651799Y-116269999D03*
X109726799Y-116269999D03*
D16*
X107655728Y-102927098D03*
X107655728Y-110547098D03*
X89792929Y-90043132D03*
X95181083Y-95431286D03*
X107635013Y-113434998D03*
X112635013Y-113434998D03*
D17*
X104110000Y-92160000D03*
X105524214Y-93574214D03*
D16*
X77383089Y-89947663D03*
X82771243Y-95335817D03*
X102110404Y-90185657D03*
X107498558Y-95573811D03*
D12*
X62152597Y-119150000D03*
X64152597Y-119150000D03*
D27*
X33965000Y-133500000D03*
X34733845Y-131643845D03*
X34733845Y-135356155D03*
X36590000Y-130875000D03*
D28*
X36590000Y-133500000D03*
D27*
X36590000Y-136125000D03*
X38446155Y-131643845D03*
X38446155Y-135356155D03*
X39215000Y-133500000D03*
D14*
X45405047Y-100164998D03*
X47480047Y-100164998D03*
D16*
X95192520Y-113439999D03*
X100192520Y-113439999D03*
D33*
X97740000Y-128960001D03*
D34*
X97740000Y-131500001D03*
X95200000Y-128960001D03*
X95200000Y-131500001D03*
X92660000Y-128960001D03*
X92660000Y-131500000D03*
X90120000Y-128960001D03*
X90120000Y-131500000D03*
X87580000Y-128960001D03*
X87580000Y-131500000D03*
X85040000Y-128960001D03*
X85040000Y-131500000D03*
X82500000Y-128960001D03*
X82500000Y-131500000D03*
X79960000Y-128960001D03*
X79960000Y-131500000D03*
X77420000Y-128960001D03*
X77420000Y-131500000D03*
X74880000Y-128960001D03*
X74880000Y-131500000D03*
X72340000Y-128960001D03*
X72340000Y-131500000D03*
X69800000Y-128960001D03*
X69800000Y-131500000D03*
X67260000Y-128960001D03*
X67260000Y-131500000D03*
X64720000Y-128960001D03*
X64720000Y-131500000D03*
X62180000Y-128960001D03*
X62180000Y-131500000D03*
X59640000Y-128960001D03*
X59640000Y-131500000D03*
X57100000Y-128960001D03*
X57100000Y-131500000D03*
X54560000Y-128960001D03*
X54560000Y-131500000D03*
X52020000Y-128960001D03*
X52020000Y-131500000D03*
X49480000Y-128960001D03*
X49480000Y-131500000D03*
D29*
X122260000Y-73506667D03*
X120260000Y-73506667D03*
D16*
X70307534Y-113644997D03*
X75307534Y-113644997D03*
D14*
X45425047Y-116269999D03*
X47500047Y-116269999D03*
D12*
X111829779Y-119343224D03*
X113829779Y-119343224D03*
D13*
X95100000Y-55000000D03*
X95100000Y-56270000D03*
X95100000Y-57540000D03*
X95100000Y-58810000D03*
X95100000Y-60080000D03*
X95100000Y-61350000D03*
X95100000Y-62620000D03*
X95100000Y-63890000D03*
X100050000Y-63890000D03*
X100050000Y-62620000D03*
X100050000Y-61350000D03*
X100050000Y-60080000D03*
X100050000Y-58810000D03*
X100050000Y-57540000D03*
X100050000Y-56270000D03*
X100050000Y-55000000D03*
D16*
X82766456Y-102927098D03*
X82766456Y-110547098D03*
X132600000Y-97799999D03*
X137600000Y-97799999D03*
X95228571Y-97799999D03*
X100228571Y-97799999D03*
D29*
X95248234Y-105370000D03*
X95248234Y-107370000D03*
D17*
X91790000Y-92020000D03*
X93204214Y-93434214D03*
D12*
X49417453Y-119170000D03*
X51417453Y-119170000D03*
D16*
X70321820Y-102927098D03*
X70321820Y-110547098D03*
D10*
X120128577Y-100164998D03*
X122203577Y-100164998D03*
D11*
X70340391Y-105370000D03*
X70340391Y-107370000D03*
D13*
X129050000Y-50000000D03*
X129050000Y-51270000D03*
X129050000Y-52540000D03*
X129050000Y-53810000D03*
X129050000Y-55080000D03*
X129050000Y-56350000D03*
X129050000Y-57620000D03*
X134000000Y-57620000D03*
X134000000Y-56350000D03*
X134000000Y-55080000D03*
X134000000Y-53810000D03*
X134000000Y-52540000D03*
X134000000Y-51270000D03*
X134000000Y-50000000D03*
D29*
X107660000Y-105370000D03*
X107660000Y-107370000D03*
D16*
X120100365Y-102927098D03*
X120100365Y-110547098D03*
X132520000Y-113509999D03*
X137520000Y-113509999D03*
D32*
X118170000Y-75520000D03*
X118170000Y-73520000D03*
D16*
X39975228Y-89365227D03*
X45363382Y-94753381D03*
D25*
X145500000Y-58500000D03*
D23*
X148040000Y-58500000D03*
X145500000Y-61040000D03*
X148040000Y-61040000D03*
X145500000Y-63580000D03*
X148040000Y-63580000D03*
X145500000Y-66120000D03*
X148040000Y-66120000D03*
X145500000Y-68660000D03*
X148040000Y-68660000D03*
X145500000Y-71200000D03*
X148040000Y-71200000D03*
X145500000Y-73740000D03*
X148040000Y-73740000D03*
X145500000Y-76280000D03*
X148040000Y-76280000D03*
X145500000Y-78820000D03*
X148040000Y-78820000D03*
X145500000Y-81360000D03*
X148040000Y-81360000D03*
D14*
X57870397Y-116269999D03*
X59945397Y-116269999D03*
D32*
X118170000Y-54220000D03*
X118170000Y-52220000D03*
D15*
X47329999Y-119162500D03*
X46380000Y-119162500D03*
X45430001Y-119162500D03*
X45430001Y-121437500D03*
X47329999Y-121437500D03*
D13*
X106050000Y-55000000D03*
X106050000Y-56270000D03*
X106050000Y-57540000D03*
X106050000Y-58810000D03*
X106050000Y-60080000D03*
X106050000Y-61350000D03*
X106050000Y-62620000D03*
X111000000Y-62620000D03*
X111000000Y-61350000D03*
X111000000Y-60080000D03*
X111000000Y-58810000D03*
X111000000Y-57540000D03*
X111000000Y-56270000D03*
X111000000Y-55000000D03*
D31*
X111475000Y-81260000D03*
X111475000Y-79990000D03*
X111475000Y-78720000D03*
X111475000Y-77450000D03*
X111475000Y-76180000D03*
X111475000Y-74910000D03*
X111475000Y-73640000D03*
X111475000Y-72370000D03*
X106525000Y-72370000D03*
X106525000Y-73640000D03*
X106525000Y-74910000D03*
X106525000Y-76180000D03*
X106525000Y-77450000D03*
X106525000Y-78720000D03*
X106525000Y-79990000D03*
X106525000Y-81260000D03*
D30*
X120097150Y-116269999D03*
X122172150Y-116269999D03*
D16*
X107685714Y-98180000D03*
X112685714Y-98180000D03*
D20*
X126600000Y-80127500D03*
X126600000Y-78992500D03*
D14*
X57858969Y-100164998D03*
X59933969Y-100164998D03*
D16*
X132545001Y-102927098D03*
X132545001Y-110547098D03*
D10*
X132542500Y-116269999D03*
X134617500Y-116269999D03*
D35*
X126240000Y-53822500D03*
X126240000Y-54957500D03*
D16*
X82771429Y-97799999D03*
X87771429Y-97799999D03*
D15*
X97095330Y-119300190D03*
X96145331Y-119300190D03*
X95195332Y-119300190D03*
X95195332Y-121575190D03*
X97095330Y-121575190D03*
D32*
X118170000Y-68640000D03*
X118170000Y-66640000D03*
D27*
X148875000Y-133500000D03*
X149643845Y-131643845D03*
X149643845Y-135356155D03*
X151500000Y-130875000D03*
D28*
X151500000Y-133500000D03*
D27*
X151500000Y-136125000D03*
X153356155Y-131643845D03*
X153356155Y-135356155D03*
X154125000Y-133500000D03*
M02*
