M48
; DRILL file {KiCad 8.0.2-8.0.2-0~ubuntu22.04.1} date 2024-06-09T18:07:19+0200
; FORMAT={-:-/ absolute / metric / decimal}
; #@! TF.CreationDate,2024-06-09T18:07:19+02:00
; #@! TF.GenerationSoftware,Kicad,Pcbnew,8.0.2-8.0.2-0~ubuntu22.04.1
; #@! TF.FileFunction,Plated,1,4,PTH
FMAT,2
METRIC
; #@! TA.AperFunction,Plated,PTH,ViaDrill
T1C0.300
; #@! TA.AperFunction,Plated,PTH,ComponentDrill
T2C1.000
; #@! TA.AperFunction,Plated,PTH,ComponentDrill
T3C1.020
%
G90
G05
T1
X84.0Y-83.4
X84.0Y-84.2
X84.0Y-89.0
X84.029Y-82.601
X84.029Y-87.512
X89.5Y-77.0
X90.0Y-62.0
X90.0Y-81.0
X90.5Y-57.5
X91.388Y-56.888
X91.5Y-56.0
X92.5Y-58.5
X93.5Y-78.0
X93.5Y-84.4
X93.5Y-86.5
X93.527Y-61.527
X93.732Y-81.732
X95.0Y-65.0
X95.5Y-51.0
X96.0Y-70.5
X97.5Y-81.5
X98.0Y-63.5
X98.066Y-62.066
X98.1Y-85.5
X98.5Y-59.5
X98.7Y-84.5
X100.0Y-54.0
X100.0Y-72.0
X100.5Y-51.0
X101.96Y-75.46
X102.0Y-58.5
X103.0Y-57.5
X104.5Y-51.5
X104.5Y-58.5
X107.5Y-57.5
X107.5Y-60.0
X110.0Y-53.0
X110.0Y-53.8
X111.5Y-51.0
X112.5Y-59.0
X112.5Y-60.0
X113.4Y-61.0
X114.6Y-62.0
X115.0Y-60.0
X117.5Y-51.4
X117.5Y-53.0
X117.5Y-74.0
X118.0Y-62.0
X118.0Y-67.0
X119.0Y-64.1
X119.05Y-56.45
X120.5Y-63.5
X122.5Y-81.0
X123.9Y-71.5
X124.9Y-82.0
X125.0Y-86.0
X125.5Y-84.5
X126.5Y-86.5
X127.0Y-64.0
X127.0Y-79.5
X127.0Y-82.0
X127.1Y-77.0
X127.5Y-66.5
X127.5Y-85.5
X127.7Y-75.5
X128.5Y-74.0
X129.5Y-61.0
X130.5Y-68.5
X130.524Y-67.001
X130.96Y-79.54
X131.0Y-70.5
X131.5Y-63.0
X132.0Y-78.0
X132.5Y-54.0
X132.5Y-66.5
X133.5Y-73.5
X134.5Y-48.0
X134.5Y-61.0
X135.4Y-75.5
X136.0Y-65.5
X136.4Y-68.0
X136.6Y-77.5
X137.1Y-76.5
X139.5Y-69.0
X139.5Y-70.0
X140.5Y-71.0
X141.5Y-75.0
T2
X49.76Y-87.0
X49.76Y-92.0
X52.3Y-87.0
X52.3Y-92.0
X54.84Y-87.0
X54.84Y-92.0
X57.38Y-87.0
X57.38Y-92.0
X59.92Y-87.0
X59.92Y-92.0
X62.46Y-87.0
X62.46Y-92.0
X65.0Y-87.0
X65.0Y-92.0
X67.54Y-87.0
X67.54Y-92.0
X70.08Y-87.0
X70.08Y-92.0
X72.62Y-87.0
X72.62Y-92.0
X75.16Y-87.0
X75.16Y-92.0
X77.7Y-87.0
X77.7Y-92.0
X80.24Y-87.0
X80.24Y-92.0
X82.78Y-87.0
X82.78Y-92.0
X85.32Y-87.0
X85.32Y-92.0
X142.5Y-58.5
X142.5Y-61.04
X142.5Y-63.58
X142.5Y-66.12
X142.5Y-68.66
X142.5Y-71.2
X142.5Y-73.74
X142.5Y-76.28
X142.5Y-78.82
X142.5Y-81.36
X145.04Y-58.5
X145.04Y-61.04
X145.04Y-63.58
X145.04Y-66.12
X145.04Y-68.66
X145.04Y-71.2
X145.04Y-73.74
X145.04Y-76.28
X145.04Y-78.82
X145.04Y-81.36
T3
X36.87Y-61.11
X36.87Y-78.89
X39.41Y-61.11
X39.41Y-78.89
X41.95Y-61.11
X41.95Y-78.89
X44.49Y-61.11
X44.49Y-78.89
X47.03Y-61.11
X47.03Y-78.89
X49.57Y-61.11
X49.57Y-78.89
X52.11Y-61.11
X52.11Y-78.89
X54.65Y-61.11
X54.65Y-78.89
X57.19Y-61.11
X57.19Y-78.89
X59.73Y-61.11
X59.73Y-78.89
X62.27Y-61.11
X62.27Y-78.89
X64.81Y-61.11
X64.81Y-78.89
X67.35Y-61.11
X67.35Y-78.89
X69.89Y-61.11
X69.89Y-78.89
X72.43Y-61.11
X72.43Y-78.89
X74.97Y-61.11
X74.97Y-78.89
X77.51Y-61.11
X77.51Y-78.89
X80.05Y-61.11
X80.05Y-78.89
X82.59Y-61.11
X82.59Y-78.89
X84.9Y-67.46
X84.9Y-70.0
X84.9Y-72.54
X85.13Y-61.11
X85.13Y-78.89
M30
