G04 #@! TF.GenerationSoftware,KiCad,Pcbnew,8.0.2-8.0.2-0~ubuntu22.04.1*
G04 #@! TF.CreationDate,2024-06-09T18:06:16+02:00*
G04 #@! TF.ProjectId,eyevolt,65796576-6f6c-4742-9e6b-696361645f70,rev?*
G04 #@! TF.SameCoordinates,Original*
G04 #@! TF.FileFunction,Paste,Top*
G04 #@! TF.FilePolarity,Positive*
%FSLAX46Y46*%
G04 Gerber Fmt 4.6, Leading zero omitted, Abs format (unit mm)*
G04 Created by KiCad (PCBNEW 8.0.2-8.0.2-0~ubuntu22.04.1) date 2024-06-09 18:06:16*
%MOMM*%
%LPD*%
G01*
G04 APERTURE LIST*
G04 Aperture macros list*
%AMRoundRect*
0 Rectangle with rounded corners*
0 $1 Rounding radius*
0 $2 $3 $4 $5 $6 $7 $8 $9 X,Y pos of 4 corners*
0 Add a 4 corners polygon primitive as box body*
4,1,4,$2,$3,$4,$5,$6,$7,$8,$9,$2,$3,0*
0 Add four circle primitives for the rounded corners*
1,1,$1+$1,$2,$3*
1,1,$1+$1,$4,$5*
1,1,$1+$1,$6,$7*
1,1,$1+$1,$8,$9*
0 Add four rect primitives between the rounded corners*
20,1,$1+$1,$2,$3,$4,$5,0*
20,1,$1+$1,$4,$5,$6,$7,0*
20,1,$1+$1,$6,$7,$8,$9,0*
20,1,$1+$1,$8,$9,$2,$3,0*%
G04 Aperture macros list end*
%ADD10RoundRect,0.150000X-0.825000X-0.150000X0.825000X-0.150000X0.825000X0.150000X-0.825000X0.150000X0*%
%ADD11RoundRect,0.250000X-0.337500X-0.475000X0.337500X-0.475000X0.337500X0.475000X-0.337500X0.475000X0*%
%ADD12RoundRect,0.250000X0.337500X0.475000X-0.337500X0.475000X-0.337500X-0.475000X0.337500X-0.475000X0*%
%ADD13RoundRect,0.250000X0.350000X0.450000X-0.350000X0.450000X-0.350000X-0.450000X0.350000X-0.450000X0*%
%ADD14RoundRect,0.250000X-0.350000X-0.450000X0.350000X-0.450000X0.350000X0.450000X-0.350000X0.450000X0*%
G04 APERTURE END LIST*
D10*
X129050000Y-63000000D03*
X129050000Y-64270000D03*
X129050000Y-65540000D03*
X129050000Y-66810000D03*
X129050000Y-68080000D03*
X129050000Y-69350000D03*
X129050000Y-70620000D03*
X134000000Y-70620000D03*
X134000000Y-69350000D03*
X134000000Y-68080000D03*
X134000000Y-66810000D03*
X134000000Y-65540000D03*
X134000000Y-64270000D03*
X134000000Y-63000000D03*
X129050000Y-75730000D03*
X129050000Y-77000000D03*
X129050000Y-78270000D03*
X129050000Y-79540000D03*
X129050000Y-80810000D03*
X129050000Y-82080000D03*
X129050000Y-83350000D03*
X134000000Y-83350000D03*
X134000000Y-82080000D03*
X134000000Y-80810000D03*
X134000000Y-79540000D03*
X134000000Y-78270000D03*
X134000000Y-77000000D03*
X134000000Y-75730000D03*
D11*
X96012500Y-72000000D03*
X98087500Y-72000000D03*
X107975000Y-51000000D03*
X110050000Y-51000000D03*
D12*
X99050000Y-51000000D03*
X96975000Y-51000000D03*
D13*
X121050000Y-72000000D03*
X119050000Y-72000000D03*
D10*
X95050000Y-75460000D03*
X95050000Y-76730000D03*
X95050000Y-78000000D03*
X95050000Y-79270000D03*
X95050000Y-80540000D03*
X95050000Y-81810000D03*
X95050000Y-83080000D03*
X95050000Y-84350000D03*
X100000000Y-84350000D03*
X100000000Y-83080000D03*
X100000000Y-81810000D03*
X100000000Y-80540000D03*
X100000000Y-79270000D03*
X100000000Y-78000000D03*
X100000000Y-76730000D03*
X100000000Y-75460000D03*
D13*
X121050000Y-60000000D03*
X119050000Y-60000000D03*
D11*
X131012500Y-61000000D03*
X133087500Y-61000000D03*
D14*
X119050000Y-62000000D03*
X121050000Y-62000000D03*
X119050000Y-53000000D03*
X121050000Y-53000000D03*
X119050000Y-65000000D03*
X121050000Y-65000000D03*
D10*
X95100000Y-55000000D03*
X95100000Y-56270000D03*
X95100000Y-57540000D03*
X95100000Y-58810000D03*
X95100000Y-60080000D03*
X95100000Y-61350000D03*
X95100000Y-62620000D03*
X95100000Y-63890000D03*
X100050000Y-63890000D03*
X100050000Y-62620000D03*
X100050000Y-61350000D03*
X100050000Y-60080000D03*
X100050000Y-58810000D03*
X100050000Y-57540000D03*
X100050000Y-56270000D03*
X100050000Y-55000000D03*
X129050000Y-50000000D03*
X129050000Y-51270000D03*
X129050000Y-52540000D03*
X129050000Y-53810000D03*
X129050000Y-55080000D03*
X129050000Y-56350000D03*
X129050000Y-57620000D03*
X134000000Y-57620000D03*
X134000000Y-56350000D03*
X134000000Y-55080000D03*
X134000000Y-53810000D03*
X134000000Y-52540000D03*
X134000000Y-51270000D03*
X134000000Y-50000000D03*
D14*
X119050000Y-67000000D03*
X121050000Y-67000000D03*
X119050000Y-55000000D03*
X121050000Y-55000000D03*
D10*
X106050000Y-55000000D03*
X106050000Y-56270000D03*
X106050000Y-57540000D03*
X106050000Y-58810000D03*
X106050000Y-60080000D03*
X106050000Y-61350000D03*
X106050000Y-62620000D03*
X111000000Y-62620000D03*
X111000000Y-61350000D03*
X111000000Y-60080000D03*
X111000000Y-58810000D03*
X111000000Y-57540000D03*
X111000000Y-56270000D03*
X111000000Y-55000000D03*
D11*
X130012500Y-73500000D03*
X132087500Y-73500000D03*
X131012500Y-48000000D03*
X133087500Y-48000000D03*
D14*
X119050000Y-74000000D03*
X121050000Y-74000000D03*
M02*
