G04 #@! TF.GenerationSoftware,KiCad,Pcbnew,9.0.0-9.0.0-2~ubuntu22.04.1*
G04 #@! TF.CreationDate,2025-04-08T15:45:20+02:00*
G04 #@! TF.ProjectId,eyevolt,65796576-6f6c-4742-9e6b-696361645f70,rev?*
G04 #@! TF.SameCoordinates,Original*
G04 #@! TF.FileFunction,Soldermask,Top*
G04 #@! TF.FilePolarity,Negative*
%FSLAX46Y46*%
G04 Gerber Fmt 4.6, Leading zero omitted, Abs format (unit mm)*
G04 Created by KiCad (PCBNEW 9.0.0-9.0.0-2~ubuntu22.04.1) date 2025-04-08 15:45:20*
%MOMM*%
%LPD*%
G01*
G04 APERTURE LIST*
G04 Aperture macros list*
%AMRoundRect*
0 Rectangle with rounded corners*
0 $1 Rounding radius*
0 $2 $3 $4 $5 $6 $7 $8 $9 X,Y pos of 4 corners*
0 Add a 4 corners polygon primitive as box body*
4,1,4,$2,$3,$4,$5,$6,$7,$8,$9,$2,$3,0*
0 Add four circle primitives for the rounded corners*
1,1,$1+$1,$2,$3*
1,1,$1+$1,$4,$5*
1,1,$1+$1,$6,$7*
1,1,$1+$1,$8,$9*
0 Add four rect primitives between the rounded corners*
20,1,$1+$1,$2,$3,$4,$5,0*
20,1,$1+$1,$4,$5,$6,$7,0*
20,1,$1+$1,$6,$7,$8,$9,0*
20,1,$1+$1,$8,$9,$2,$3,0*%
G04 Aperture macros list end*
%ADD10RoundRect,0.150000X-0.825000X-0.150000X0.825000X-0.150000X0.825000X0.150000X-0.825000X0.150000X0*%
%ADD11RoundRect,0.250000X-0.337500X-0.475000X0.337500X-0.475000X0.337500X0.475000X-0.337500X0.475000X0*%
%ADD12O,1.800000X1.800000*%
%ADD13O,1.500000X1.500000*%
%ADD14O,1.700000X1.700000*%
%ADD15R,1.700000X3.500000*%
%ADD16R,1.700000X1.700000*%
%ADD17R,3.500000X1.700000*%
%ADD18C,3.200000*%
%ADD19RoundRect,0.250000X0.337500X0.475000X-0.337500X0.475000X-0.337500X-0.475000X0.337500X-0.475000X0*%
%ADD20RoundRect,0.250000X0.350000X0.450000X-0.350000X0.450000X-0.350000X-0.450000X0.350000X-0.450000X0*%
%ADD21RoundRect,0.250000X-0.350000X-0.450000X0.350000X-0.450000X0.350000X0.450000X-0.350000X0.450000X0*%
G04 APERTURE END LIST*
D10*
X129050000Y-63000000D03*
X129050000Y-64270000D03*
X129050000Y-65540000D03*
X129050000Y-66810000D03*
X129050000Y-68080000D03*
X129050000Y-69350000D03*
X129050000Y-70620000D03*
X134000000Y-70620000D03*
X134000000Y-69350000D03*
X134000000Y-68080000D03*
X134000000Y-66810000D03*
X134000000Y-65540000D03*
X134000000Y-64270000D03*
X134000000Y-63000000D03*
X129050000Y-75730000D03*
X129050000Y-77000000D03*
X129050000Y-78270000D03*
X129050000Y-79540000D03*
X129050000Y-80810000D03*
X129050000Y-82080000D03*
X129050000Y-83350000D03*
X134000000Y-83350000D03*
X134000000Y-82080000D03*
X134000000Y-80810000D03*
X134000000Y-79540000D03*
X134000000Y-78270000D03*
X134000000Y-77000000D03*
X134000000Y-75730000D03*
D11*
X96012500Y-72000000D03*
X98087500Y-72000000D03*
D12*
X37000000Y-72725000D03*
D13*
X40030000Y-72425000D03*
X40030000Y-67575000D03*
D12*
X37000000Y-67275000D03*
D14*
X36870000Y-78890000D03*
D15*
X36870000Y-79790000D03*
D14*
X39410000Y-78890000D03*
D15*
X39410000Y-79790000D03*
D16*
X41950000Y-78890000D03*
D15*
X41950000Y-79790000D03*
D14*
X44490000Y-78890000D03*
D15*
X44490000Y-79790000D03*
D14*
X47030000Y-78890000D03*
D15*
X47030000Y-79790000D03*
D14*
X49570000Y-78890000D03*
D15*
X49570000Y-79790000D03*
D14*
X52110000Y-78890000D03*
D15*
X52110000Y-79790000D03*
D16*
X54650000Y-78890000D03*
D15*
X54650000Y-79790000D03*
D14*
X57190000Y-78890000D03*
D15*
X57190000Y-79790000D03*
D14*
X59730000Y-78890000D03*
D15*
X59730000Y-79790000D03*
D14*
X62270000Y-78890000D03*
D15*
X62270000Y-79790000D03*
D14*
X64810000Y-78890000D03*
D15*
X64810000Y-79790000D03*
D16*
X67350000Y-78890000D03*
D15*
X67350000Y-79790000D03*
D14*
X69890000Y-78890000D03*
D15*
X69890000Y-79790000D03*
D14*
X72430000Y-78890000D03*
D15*
X72430000Y-79790000D03*
D14*
X74970000Y-78890000D03*
D15*
X74970000Y-79790000D03*
D14*
X77510000Y-78890000D03*
D15*
X77510000Y-79790000D03*
D16*
X80050000Y-78890000D03*
D15*
X80050000Y-79790000D03*
D14*
X82590000Y-78890000D03*
D15*
X82590000Y-79790000D03*
D14*
X85130000Y-78890000D03*
D15*
X85130000Y-79790000D03*
D14*
X85130000Y-61110000D03*
D15*
X85130000Y-60210000D03*
D14*
X82590000Y-61110000D03*
D15*
X82590000Y-60210000D03*
D16*
X80050000Y-61110000D03*
D15*
X80050000Y-60210000D03*
D14*
X77510000Y-61110000D03*
D15*
X77510000Y-60210000D03*
D14*
X74970000Y-61110000D03*
D15*
X74970000Y-60210000D03*
D14*
X72430000Y-61110000D03*
D15*
X72430000Y-60210000D03*
D14*
X69890000Y-61110000D03*
D15*
X69890000Y-60210000D03*
D16*
X67350000Y-61110000D03*
D15*
X67350000Y-60210000D03*
D14*
X64810000Y-61110000D03*
D15*
X64810000Y-60210000D03*
D14*
X62270000Y-61110000D03*
D15*
X62270000Y-60210000D03*
D14*
X59730000Y-61110000D03*
D15*
X59730000Y-60210000D03*
D14*
X57190000Y-61110000D03*
D15*
X57190000Y-60210000D03*
D16*
X54650000Y-61110000D03*
D15*
X54650000Y-60210000D03*
D14*
X52110000Y-61110000D03*
D15*
X52110000Y-60210000D03*
D14*
X49570000Y-61110000D03*
D15*
X49570000Y-60210000D03*
D14*
X47030000Y-61110000D03*
D15*
X47030000Y-60210000D03*
D14*
X44490000Y-61110000D03*
D15*
X44490000Y-60210000D03*
D16*
X41950000Y-61110000D03*
D15*
X41950000Y-60210000D03*
D14*
X39410000Y-61110000D03*
D15*
X39410000Y-60210000D03*
D14*
X36870000Y-61110000D03*
D15*
X36870000Y-60210000D03*
D14*
X84900000Y-72540000D03*
D17*
X85800000Y-72540000D03*
D16*
X84900000Y-70000000D03*
D17*
X85800000Y-70000000D03*
D14*
X84900000Y-67460000D03*
D17*
X85800000Y-67460000D03*
D18*
X151500000Y-50000000D03*
D11*
X107975000Y-51000000D03*
X110050000Y-51000000D03*
D19*
X99050000Y-51000000D03*
X96975000Y-51000000D03*
D20*
X121050000Y-72000000D03*
X119050000Y-72000000D03*
D10*
X95050000Y-75460000D03*
X95050000Y-76730000D03*
X95050000Y-78000000D03*
X95050000Y-79270000D03*
X95050000Y-80540000D03*
X95050000Y-81810000D03*
X95050000Y-83080000D03*
X95050000Y-84350000D03*
X100000000Y-84350000D03*
X100000000Y-83080000D03*
X100000000Y-81810000D03*
X100000000Y-80540000D03*
X100000000Y-79270000D03*
X100000000Y-78000000D03*
X100000000Y-76730000D03*
X100000000Y-75460000D03*
D20*
X121050000Y-60000000D03*
X119050000Y-60000000D03*
D11*
X131012500Y-61000000D03*
X133087500Y-61000000D03*
D18*
X151500000Y-91000000D03*
D21*
X119050000Y-62000000D03*
X121050000Y-62000000D03*
D18*
X38500000Y-91000000D03*
D21*
X119050000Y-53000000D03*
X121050000Y-53000000D03*
D18*
X38000000Y-50000000D03*
D21*
X119050000Y-65000000D03*
X121050000Y-65000000D03*
D16*
X49760000Y-87000000D03*
D14*
X52300000Y-87000000D03*
X54840000Y-87000000D03*
X57380000Y-87000000D03*
X59920000Y-87000000D03*
X62460000Y-87000000D03*
X65000000Y-87000000D03*
X67540000Y-87000000D03*
X70080000Y-87000000D03*
X72620000Y-87000000D03*
X75160000Y-87000000D03*
X77700000Y-87000000D03*
X80240000Y-87000000D03*
X82780000Y-87000000D03*
X85320000Y-87000000D03*
D10*
X95100000Y-55000000D03*
X95100000Y-56270000D03*
X95100000Y-57540000D03*
X95100000Y-58810000D03*
X95100000Y-60080000D03*
X95100000Y-61350000D03*
X95100000Y-62620000D03*
X95100000Y-63890000D03*
X100050000Y-63890000D03*
X100050000Y-62620000D03*
X100050000Y-61350000D03*
X100050000Y-60080000D03*
X100050000Y-58810000D03*
X100050000Y-57540000D03*
X100050000Y-56270000D03*
X100050000Y-55000000D03*
X129050000Y-50000000D03*
X129050000Y-51270000D03*
X129050000Y-52540000D03*
X129050000Y-53810000D03*
X129050000Y-55080000D03*
X129050000Y-56350000D03*
X129050000Y-57620000D03*
X134000000Y-57620000D03*
X134000000Y-56350000D03*
X134000000Y-55080000D03*
X134000000Y-53810000D03*
X134000000Y-52540000D03*
X134000000Y-51270000D03*
X134000000Y-50000000D03*
D21*
X119050000Y-67000000D03*
X121050000Y-67000000D03*
D16*
X142500000Y-58500000D03*
D14*
X145040000Y-58500000D03*
X142500000Y-61040000D03*
X145040000Y-61040000D03*
X142500000Y-63580000D03*
X145040000Y-63580000D03*
X142500000Y-66120000D03*
X145040000Y-66120000D03*
X142500000Y-68660000D03*
X145040000Y-68660000D03*
X142500000Y-71200000D03*
X145040000Y-71200000D03*
X142500000Y-73740000D03*
X145040000Y-73740000D03*
X142500000Y-76280000D03*
X145040000Y-76280000D03*
X142500000Y-78820000D03*
X145040000Y-78820000D03*
X142500000Y-81360000D03*
X145040000Y-81360000D03*
D21*
X119050000Y-55000000D03*
X121050000Y-55000000D03*
D10*
X106050000Y-55000000D03*
X106050000Y-56270000D03*
X106050000Y-57540000D03*
X106050000Y-58810000D03*
X106050000Y-60080000D03*
X106050000Y-61350000D03*
X106050000Y-62620000D03*
X111000000Y-62620000D03*
X111000000Y-61350000D03*
X111000000Y-60080000D03*
X111000000Y-58810000D03*
X111000000Y-57540000D03*
X111000000Y-56270000D03*
X111000000Y-55000000D03*
D16*
X49760000Y-92000000D03*
D14*
X52300000Y-92000000D03*
X54840000Y-92000000D03*
X57380000Y-92000000D03*
X59920000Y-92000000D03*
X62460000Y-92000000D03*
X65000000Y-92000000D03*
X67540000Y-92000000D03*
X70080000Y-92000000D03*
X72620000Y-92000000D03*
X75160000Y-92000000D03*
X77700000Y-92000000D03*
X80240000Y-92000000D03*
X82780000Y-92000000D03*
X85320000Y-92000000D03*
D11*
X130012500Y-73500000D03*
X132087500Y-73500000D03*
X131012500Y-48000000D03*
X133087500Y-48000000D03*
D21*
X119050000Y-74000000D03*
X121050000Y-74000000D03*
M02*
