%TF.GenerationSoftware,KiCad,Pcbnew,9.0.0-9.0.0-2~ubuntu22.04.1*%
%TF.CreationDate,2025-04-08T15:49:19+02:00*%
%TF.ProjectId,eyevolt,65796576-6f6c-4742-9e6b-696361645f70,rev?*%
%TF.SameCoordinates,Original*%
%TF.FileFunction,Drillmap*%
%TF.FilePolarity,Positive*%
%FSLAX45Y45*%
G04 Gerber Fmt 4.5, Leading zero omitted, Abs format (unit mm)*
G04 Created by KiCad (PCBNEW 9.0.0-9.0.0-2~ubuntu22.04.1) date 2025-04-08 15:49:19*
%MOMM*%
%LPD*%
G01*
G04 APERTURE LIST*
%ADD10C,0.050000*%
%ADD11C,0.200000*%
%ADD12C,0.100000*%
%ADD13C,0.102000*%
G04 APERTURE END LIST*
D10*
X15637868Y-9187868D02*
X15637868Y-4912132D01*
X15637868Y-9187868D02*
G75*
G02*
X15337868Y-9487868I-299998J-2D01*
G01*
X15337868Y-4612132D02*
G75*
G02*
X15637868Y-4912132I2J-299998D01*
G01*
X3712132Y-9487868D02*
G75*
G02*
X3412132Y-9187868I-2J299998D01*
G01*
X3412132Y-9187868D02*
X3412132Y-4912132D01*
X3412132Y-4912132D02*
G75*
G02*
X3712132Y-4612132I300000J0D01*
G01*
X15337868Y-4612132D02*
X3712132Y-4612132D01*
X3712132Y-9487868D02*
X15337868Y-9487868D01*
D11*
D12*
X8385000Y-8325000D02*
X8415000Y-8355000D01*
X8415000Y-8325000D02*
X8385000Y-8355000D01*
X8385000Y-8405000D02*
X8415000Y-8435000D01*
X8415000Y-8405000D02*
X8385000Y-8435000D01*
X8385000Y-8885000D02*
X8415000Y-8915000D01*
X8415000Y-8885000D02*
X8385000Y-8915000D01*
X8387891Y-8245052D02*
X8417891Y-8275052D01*
X8417891Y-8245052D02*
X8387891Y-8275052D01*
X8387916Y-8736195D02*
X8417917Y-8766195D01*
X8417917Y-8736195D02*
X8387916Y-8766195D01*
X8935000Y-7685000D02*
X8965000Y-7715000D01*
X8965000Y-7685000D02*
X8935000Y-7715000D01*
X8985000Y-6185000D02*
X9015000Y-6215000D01*
X9015000Y-6185000D02*
X8985000Y-6215000D01*
X8985000Y-8085000D02*
X9015000Y-8115000D01*
X9015000Y-8085000D02*
X8985000Y-8115000D01*
X9035000Y-5735000D02*
X9065000Y-5765000D01*
X9065000Y-5735000D02*
X9035000Y-5765000D01*
X9123824Y-5673824D02*
X9153824Y-5703824D01*
X9153824Y-5673824D02*
X9123824Y-5703824D01*
X9135000Y-5585000D02*
X9165000Y-5615000D01*
X9165000Y-5585000D02*
X9135000Y-5615000D01*
X9235000Y-5835000D02*
X9265000Y-5865000D01*
X9265000Y-5835000D02*
X9235000Y-5865000D01*
X9335000Y-7785000D02*
X9365000Y-7815000D01*
X9365000Y-7785000D02*
X9335000Y-7815000D01*
X9335000Y-8425000D02*
X9365000Y-8455000D01*
X9365000Y-8425000D02*
X9335000Y-8455000D01*
X9335000Y-8635000D02*
X9365000Y-8665000D01*
X9365000Y-8635000D02*
X9335000Y-8665000D01*
X9337677Y-6137676D02*
X9367677Y-6167676D01*
X9367677Y-6137676D02*
X9337677Y-6167676D01*
X9358177Y-8158176D02*
X9388177Y-8188176D01*
X9388177Y-8158176D02*
X9358177Y-8188176D01*
X9485000Y-6485000D02*
X9515000Y-6515000D01*
X9515000Y-6485000D02*
X9485000Y-6515000D01*
X9535000Y-5085000D02*
X9565000Y-5115000D01*
X9565000Y-5085000D02*
X9535000Y-5115000D01*
X9585000Y-7035000D02*
X9615000Y-7065000D01*
X9615000Y-7035000D02*
X9585000Y-7065000D01*
X9735000Y-8135000D02*
X9765000Y-8165000D01*
X9765000Y-8135000D02*
X9735000Y-8165000D01*
X9785000Y-6335000D02*
X9815000Y-6365000D01*
X9815000Y-6335000D02*
X9785000Y-6365000D01*
X9791569Y-6191569D02*
X9821569Y-6221569D01*
X9821569Y-6191569D02*
X9791569Y-6221569D01*
X9795000Y-8535000D02*
X9825000Y-8565000D01*
X9825000Y-8535000D02*
X9795000Y-8565000D01*
X9835000Y-5935000D02*
X9865000Y-5965000D01*
X9865000Y-5935000D02*
X9835000Y-5965000D01*
X9855000Y-8435000D02*
X9885000Y-8465000D01*
X9885000Y-8435000D02*
X9855000Y-8465000D01*
X9985000Y-5385000D02*
X10015000Y-5415000D01*
X10015000Y-5385000D02*
X9985000Y-5415000D01*
X9985000Y-7185000D02*
X10015000Y-7215000D01*
X10015000Y-7185000D02*
X9985000Y-7215000D01*
X10035000Y-5085000D02*
X10065000Y-5115000D01*
X10065000Y-5085000D02*
X10035000Y-5115000D01*
X10181000Y-7531000D02*
X10211000Y-7561000D01*
X10211000Y-7531000D02*
X10181000Y-7561000D01*
X10185000Y-5835000D02*
X10215000Y-5865000D01*
X10215000Y-5835000D02*
X10185000Y-5865000D01*
X10285000Y-5735000D02*
X10315000Y-5765000D01*
X10315000Y-5735000D02*
X10285000Y-5765000D01*
X10435000Y-5135000D02*
X10465000Y-5165000D01*
X10465000Y-5135000D02*
X10435000Y-5165000D01*
X10435000Y-5835000D02*
X10465000Y-5865000D01*
X10465000Y-5835000D02*
X10435000Y-5865000D01*
X10735000Y-5735000D02*
X10765000Y-5765000D01*
X10765000Y-5735000D02*
X10735000Y-5765000D01*
X10735000Y-5985000D02*
X10765000Y-6015000D01*
X10765000Y-5985000D02*
X10735000Y-6015000D01*
X10985000Y-5285000D02*
X11015000Y-5315000D01*
X11015000Y-5285000D02*
X10985000Y-5315000D01*
X10985000Y-5365000D02*
X11015000Y-5395000D01*
X11015000Y-5365000D02*
X10985000Y-5395000D01*
X11135000Y-5085000D02*
X11165000Y-5115000D01*
X11165000Y-5085000D02*
X11135000Y-5115000D01*
X11235000Y-5885000D02*
X11265000Y-5915000D01*
X11265000Y-5885000D02*
X11235000Y-5915000D01*
X11235000Y-5985000D02*
X11265000Y-6015000D01*
X11265000Y-5985000D02*
X11235000Y-6015000D01*
X11325000Y-6085000D02*
X11355000Y-6115000D01*
X11355000Y-6085000D02*
X11325000Y-6115000D01*
X11445000Y-6185000D02*
X11475000Y-6215000D01*
X11475000Y-6185000D02*
X11445000Y-6215000D01*
X11485000Y-5985000D02*
X11515000Y-6015000D01*
X11515000Y-5985000D02*
X11485000Y-6015000D01*
X11735000Y-5125000D02*
X11765000Y-5155000D01*
X11765000Y-5125000D02*
X11735000Y-5155000D01*
X11735000Y-5285000D02*
X11765000Y-5315000D01*
X11765000Y-5285000D02*
X11735000Y-5315000D01*
X11735000Y-7385000D02*
X11765000Y-7415000D01*
X11765000Y-7385000D02*
X11735000Y-7415000D01*
X11785000Y-6185000D02*
X11815000Y-6215000D01*
X11815000Y-6185000D02*
X11785000Y-6215000D01*
X11785000Y-6685000D02*
X11815000Y-6715000D01*
X11815000Y-6685000D02*
X11785000Y-6715000D01*
X11885000Y-6395000D02*
X11915000Y-6425000D01*
X11915000Y-6395000D02*
X11885000Y-6425000D01*
X11890000Y-5630000D02*
X11920000Y-5660000D01*
X11920000Y-5630000D02*
X11890000Y-5660000D01*
X12035000Y-6335000D02*
X12065000Y-6365000D01*
X12065000Y-6335000D02*
X12035000Y-6365000D01*
X12235000Y-8085000D02*
X12265000Y-8115000D01*
X12265000Y-8085000D02*
X12235000Y-8115000D01*
X12375000Y-7135000D02*
X12405000Y-7165000D01*
X12405000Y-7135000D02*
X12375000Y-7165000D01*
X12475000Y-8185000D02*
X12505000Y-8215000D01*
X12505000Y-8185000D02*
X12475000Y-8215000D01*
X12485000Y-8585000D02*
X12515000Y-8615000D01*
X12515000Y-8585000D02*
X12485000Y-8615000D01*
X12535000Y-8435000D02*
X12565000Y-8465000D01*
X12565000Y-8435000D02*
X12535000Y-8465000D01*
X12635000Y-8635000D02*
X12665000Y-8665000D01*
X12665000Y-8635000D02*
X12635000Y-8665000D01*
X12685000Y-6385000D02*
X12715000Y-6415000D01*
X12715000Y-6385000D02*
X12685000Y-6415000D01*
X12685000Y-7935000D02*
X12715000Y-7965000D01*
X12715000Y-7935000D02*
X12685000Y-7965000D01*
X12685000Y-8185000D02*
X12715000Y-8215000D01*
X12715000Y-8185000D02*
X12685000Y-8215000D01*
X12695000Y-7685000D02*
X12725000Y-7715000D01*
X12725000Y-7685000D02*
X12695000Y-7715000D01*
X12735000Y-6635000D02*
X12765000Y-6665000D01*
X12765000Y-6635000D02*
X12735000Y-6665000D01*
X12735000Y-8535000D02*
X12765000Y-8565000D01*
X12765000Y-8535000D02*
X12735000Y-8565000D01*
X12755000Y-7535000D02*
X12785000Y-7565000D01*
X12785000Y-7535000D02*
X12755000Y-7565000D01*
X12835000Y-7385000D02*
X12865000Y-7415000D01*
X12865000Y-7385000D02*
X12835000Y-7415000D01*
X12935000Y-6085000D02*
X12965000Y-6115000D01*
X12965000Y-6085000D02*
X12935000Y-6115000D01*
X13035000Y-6835000D02*
X13065000Y-6865000D01*
X13065000Y-6835000D02*
X13035000Y-6865000D01*
X13037430Y-6685129D02*
X13067430Y-6715129D01*
X13067430Y-6685129D02*
X13037430Y-6715129D01*
X13081000Y-7939000D02*
X13111000Y-7969000D01*
X13111000Y-7939000D02*
X13081000Y-7969000D01*
X13085000Y-7035000D02*
X13115000Y-7065000D01*
X13115000Y-7035000D02*
X13085000Y-7065000D01*
X13135000Y-5085000D02*
X13165000Y-5115000D01*
X13165000Y-5085000D02*
X13135000Y-5115000D01*
X13135000Y-5235000D02*
X13165000Y-5265000D01*
X13165000Y-5235000D02*
X13135000Y-5265000D01*
X13135000Y-5485000D02*
X13165000Y-5515000D01*
X13165000Y-5485000D02*
X13135000Y-5515000D01*
X13135000Y-5635000D02*
X13165000Y-5665000D01*
X13165000Y-5635000D02*
X13135000Y-5665000D01*
X13135000Y-6285000D02*
X13165000Y-6315000D01*
X13165000Y-6285000D02*
X13135000Y-6315000D01*
X13185000Y-7785000D02*
X13215000Y-7815000D01*
X13215000Y-7785000D02*
X13185000Y-7815000D01*
X13235000Y-5385000D02*
X13265000Y-5415000D01*
X13265000Y-5385000D02*
X13235000Y-5415000D01*
X13235000Y-6635000D02*
X13265000Y-6665000D01*
X13265000Y-6635000D02*
X13235000Y-6665000D01*
X13335000Y-7335000D02*
X13365000Y-7365000D01*
X13365000Y-7335000D02*
X13335000Y-7365000D01*
X13435000Y-4785000D02*
X13465000Y-4815000D01*
X13465000Y-4785000D02*
X13435000Y-4815000D01*
X13435000Y-6085000D02*
X13465000Y-6115000D01*
X13465000Y-6085000D02*
X13435000Y-6115000D01*
X13525000Y-7535000D02*
X13555000Y-7565000D01*
X13555000Y-7535000D02*
X13525000Y-7565000D01*
X13585000Y-6535000D02*
X13615000Y-6565000D01*
X13615000Y-6535000D02*
X13585000Y-6565000D01*
X13625000Y-6785000D02*
X13655000Y-6815000D01*
X13655000Y-6785000D02*
X13625000Y-6815000D01*
X13645000Y-7735000D02*
X13675000Y-7765000D01*
X13675000Y-7735000D02*
X13645000Y-7765000D01*
X13695000Y-7635000D02*
X13725000Y-7665000D01*
X13725000Y-7635000D02*
X13695000Y-7665000D01*
X13935000Y-6885000D02*
X13965000Y-6915000D01*
X13965000Y-6885000D02*
X13935000Y-6915000D01*
X13935000Y-6985000D02*
X13965000Y-7015000D01*
X13965000Y-6985000D02*
X13935000Y-7015000D01*
X14035000Y-7085000D02*
X14065000Y-7115000D01*
X14065000Y-7085000D02*
X14035000Y-7115000D01*
X14135000Y-7485000D02*
X14165000Y-7515000D01*
X14165000Y-7485000D02*
X14135000Y-7515000D01*
X5026000Y-8700000D02*
G75*
G02*
X4926000Y-8700000I-50000J0D01*
G01*
X4926000Y-8700000D02*
G75*
G02*
X5026000Y-8700000I50000J0D01*
G01*
X5026000Y-9200000D02*
G75*
G02*
X4926000Y-9200000I-50000J0D01*
G01*
X4926000Y-9200000D02*
G75*
G02*
X5026000Y-9200000I50000J0D01*
G01*
X5280000Y-8700000D02*
G75*
G02*
X5180000Y-8700000I-50000J0D01*
G01*
X5180000Y-8700000D02*
G75*
G02*
X5280000Y-8700000I50000J0D01*
G01*
X5280000Y-9200000D02*
G75*
G02*
X5180000Y-9200000I-50000J0D01*
G01*
X5180000Y-9200000D02*
G75*
G02*
X5280000Y-9200000I50000J0D01*
G01*
X5534000Y-8700000D02*
G75*
G02*
X5434000Y-8700000I-50000J0D01*
G01*
X5434000Y-8700000D02*
G75*
G02*
X5534000Y-8700000I50000J0D01*
G01*
X5534000Y-9200000D02*
G75*
G02*
X5434000Y-9200000I-50000J0D01*
G01*
X5434000Y-9200000D02*
G75*
G02*
X5534000Y-9200000I50000J0D01*
G01*
X5788000Y-8700000D02*
G75*
G02*
X5688000Y-8700000I-50000J0D01*
G01*
X5688000Y-8700000D02*
G75*
G02*
X5788000Y-8700000I50000J0D01*
G01*
X5788000Y-9200000D02*
G75*
G02*
X5688000Y-9200000I-50000J0D01*
G01*
X5688000Y-9200000D02*
G75*
G02*
X5788000Y-9200000I50000J0D01*
G01*
X6042000Y-8700000D02*
G75*
G02*
X5942000Y-8700000I-50000J0D01*
G01*
X5942000Y-8700000D02*
G75*
G02*
X6042000Y-8700000I50000J0D01*
G01*
X6042000Y-9200000D02*
G75*
G02*
X5942000Y-9200000I-50000J0D01*
G01*
X5942000Y-9200000D02*
G75*
G02*
X6042000Y-9200000I50000J0D01*
G01*
X6296000Y-8700000D02*
G75*
G02*
X6196000Y-8700000I-50000J0D01*
G01*
X6196000Y-8700000D02*
G75*
G02*
X6296000Y-8700000I50000J0D01*
G01*
X6296000Y-9200000D02*
G75*
G02*
X6196000Y-9200000I-50000J0D01*
G01*
X6196000Y-9200000D02*
G75*
G02*
X6296000Y-9200000I50000J0D01*
G01*
X6550000Y-8700000D02*
G75*
G02*
X6450000Y-8700000I-50000J0D01*
G01*
X6450000Y-8700000D02*
G75*
G02*
X6550000Y-8700000I50000J0D01*
G01*
X6550000Y-9200000D02*
G75*
G02*
X6450000Y-9200000I-50000J0D01*
G01*
X6450000Y-9200000D02*
G75*
G02*
X6550000Y-9200000I50000J0D01*
G01*
X6804000Y-8700000D02*
G75*
G02*
X6704000Y-8700000I-50000J0D01*
G01*
X6704000Y-8700000D02*
G75*
G02*
X6804000Y-8700000I50000J0D01*
G01*
X6804000Y-9200000D02*
G75*
G02*
X6704000Y-9200000I-50000J0D01*
G01*
X6704000Y-9200000D02*
G75*
G02*
X6804000Y-9200000I50000J0D01*
G01*
X7058000Y-8700000D02*
G75*
G02*
X6958000Y-8700000I-50000J0D01*
G01*
X6958000Y-8700000D02*
G75*
G02*
X7058000Y-8700000I50000J0D01*
G01*
X7058000Y-9200000D02*
G75*
G02*
X6958000Y-9200000I-50000J0D01*
G01*
X6958000Y-9200000D02*
G75*
G02*
X7058000Y-9200000I50000J0D01*
G01*
X7312000Y-8700000D02*
G75*
G02*
X7212000Y-8700000I-50000J0D01*
G01*
X7212000Y-8700000D02*
G75*
G02*
X7312000Y-8700000I50000J0D01*
G01*
X7312000Y-9200000D02*
G75*
G02*
X7212000Y-9200000I-50000J0D01*
G01*
X7212000Y-9200000D02*
G75*
G02*
X7312000Y-9200000I50000J0D01*
G01*
X7566000Y-8700000D02*
G75*
G02*
X7466000Y-8700000I-50000J0D01*
G01*
X7466000Y-8700000D02*
G75*
G02*
X7566000Y-8700000I50000J0D01*
G01*
X7566000Y-9200000D02*
G75*
G02*
X7466000Y-9200000I-50000J0D01*
G01*
X7466000Y-9200000D02*
G75*
G02*
X7566000Y-9200000I50000J0D01*
G01*
X7820000Y-8700000D02*
G75*
G02*
X7720000Y-8700000I-50000J0D01*
G01*
X7720000Y-8700000D02*
G75*
G02*
X7820000Y-8700000I50000J0D01*
G01*
X7820000Y-9200000D02*
G75*
G02*
X7720000Y-9200000I-50000J0D01*
G01*
X7720000Y-9200000D02*
G75*
G02*
X7820000Y-9200000I50000J0D01*
G01*
X8074000Y-8700000D02*
G75*
G02*
X7974000Y-8700000I-50000J0D01*
G01*
X7974000Y-8700000D02*
G75*
G02*
X8074000Y-8700000I50000J0D01*
G01*
X8074000Y-9200000D02*
G75*
G02*
X7974000Y-9200000I-50000J0D01*
G01*
X7974000Y-9200000D02*
G75*
G02*
X8074000Y-9200000I50000J0D01*
G01*
X8328000Y-8700000D02*
G75*
G02*
X8228000Y-8700000I-50000J0D01*
G01*
X8228000Y-8700000D02*
G75*
G02*
X8328000Y-8700000I50000J0D01*
G01*
X8328000Y-9200000D02*
G75*
G02*
X8228000Y-9200000I-50000J0D01*
G01*
X8228000Y-9200000D02*
G75*
G02*
X8328000Y-9200000I50000J0D01*
G01*
X8582000Y-8700000D02*
G75*
G02*
X8482000Y-8700000I-50000J0D01*
G01*
X8482000Y-8700000D02*
G75*
G02*
X8582000Y-8700000I50000J0D01*
G01*
X8582000Y-9200000D02*
G75*
G02*
X8482000Y-9200000I-50000J0D01*
G01*
X8482000Y-9200000D02*
G75*
G02*
X8582000Y-9200000I50000J0D01*
G01*
X14300000Y-5850000D02*
G75*
G02*
X14200000Y-5850000I-50000J0D01*
G01*
X14200000Y-5850000D02*
G75*
G02*
X14300000Y-5850000I50000J0D01*
G01*
X14300000Y-6104000D02*
G75*
G02*
X14200000Y-6104000I-50000J0D01*
G01*
X14200000Y-6104000D02*
G75*
G02*
X14300000Y-6104000I50000J0D01*
G01*
X14300000Y-6358000D02*
G75*
G02*
X14200000Y-6358000I-50000J0D01*
G01*
X14200000Y-6358000D02*
G75*
G02*
X14300000Y-6358000I50000J0D01*
G01*
X14300000Y-6612000D02*
G75*
G02*
X14200000Y-6612000I-50000J0D01*
G01*
X14200000Y-6612000D02*
G75*
G02*
X14300000Y-6612000I50000J0D01*
G01*
X14300000Y-6866000D02*
G75*
G02*
X14200000Y-6866000I-50000J0D01*
G01*
X14200000Y-6866000D02*
G75*
G02*
X14300000Y-6866000I50000J0D01*
G01*
X14300000Y-7120000D02*
G75*
G02*
X14200000Y-7120000I-50000J0D01*
G01*
X14200000Y-7120000D02*
G75*
G02*
X14300000Y-7120000I50000J0D01*
G01*
X14300000Y-7374000D02*
G75*
G02*
X14200000Y-7374000I-50000J0D01*
G01*
X14200000Y-7374000D02*
G75*
G02*
X14300000Y-7374000I50000J0D01*
G01*
X14300000Y-7628000D02*
G75*
G02*
X14200000Y-7628000I-50000J0D01*
G01*
X14200000Y-7628000D02*
G75*
G02*
X14300000Y-7628000I50000J0D01*
G01*
X14300000Y-7882000D02*
G75*
G02*
X14200000Y-7882000I-50000J0D01*
G01*
X14200000Y-7882000D02*
G75*
G02*
X14300000Y-7882000I50000J0D01*
G01*
X14300000Y-8136000D02*
G75*
G02*
X14200000Y-8136000I-50000J0D01*
G01*
X14200000Y-8136000D02*
G75*
G02*
X14300000Y-8136000I50000J0D01*
G01*
X14554000Y-5850000D02*
G75*
G02*
X14454000Y-5850000I-50000J0D01*
G01*
X14454000Y-5850000D02*
G75*
G02*
X14554000Y-5850000I50000J0D01*
G01*
X14554000Y-6104000D02*
G75*
G02*
X14454000Y-6104000I-50000J0D01*
G01*
X14454000Y-6104000D02*
G75*
G02*
X14554000Y-6104000I50000J0D01*
G01*
X14554000Y-6358000D02*
G75*
G02*
X14454000Y-6358000I-50000J0D01*
G01*
X14454000Y-6358000D02*
G75*
G02*
X14554000Y-6358000I50000J0D01*
G01*
X14554000Y-6612000D02*
G75*
G02*
X14454000Y-6612000I-50000J0D01*
G01*
X14454000Y-6612000D02*
G75*
G02*
X14554000Y-6612000I50000J0D01*
G01*
X14554000Y-6866000D02*
G75*
G02*
X14454000Y-6866000I-50000J0D01*
G01*
X14454000Y-6866000D02*
G75*
G02*
X14554000Y-6866000I50000J0D01*
G01*
X14554000Y-7120000D02*
G75*
G02*
X14454000Y-7120000I-50000J0D01*
G01*
X14454000Y-7120000D02*
G75*
G02*
X14554000Y-7120000I50000J0D01*
G01*
X14554000Y-7374000D02*
G75*
G02*
X14454000Y-7374000I-50000J0D01*
G01*
X14454000Y-7374000D02*
G75*
G02*
X14554000Y-7374000I50000J0D01*
G01*
X14554000Y-7628000D02*
G75*
G02*
X14454000Y-7628000I-50000J0D01*
G01*
X14454000Y-7628000D02*
G75*
G02*
X14554000Y-7628000I50000J0D01*
G01*
X14554000Y-7882000D02*
G75*
G02*
X14454000Y-7882000I-50000J0D01*
G01*
X14454000Y-7882000D02*
G75*
G02*
X14554000Y-7882000I50000J0D01*
G01*
X14554000Y-8136000D02*
G75*
G02*
X14454000Y-8136000I-50000J0D01*
G01*
X14454000Y-8136000D02*
G75*
G02*
X14554000Y-8136000I50000J0D01*
G01*
D13*
X3687000Y-6060000D02*
X3687000Y-6162000D01*
X3636000Y-6111000D02*
X3738000Y-6111000D01*
X3687000Y-7838000D02*
X3687000Y-7940000D01*
X3636000Y-7889000D02*
X3738000Y-7889000D01*
X3941000Y-6060000D02*
X3941000Y-6162000D01*
X3890000Y-6111000D02*
X3992000Y-6111000D01*
X3941000Y-7838000D02*
X3941000Y-7940000D01*
X3890000Y-7889000D02*
X3992000Y-7889000D01*
X4195000Y-6060000D02*
X4195000Y-6162000D01*
X4144000Y-6111000D02*
X4246000Y-6111000D01*
X4195000Y-7838000D02*
X4195000Y-7940000D01*
X4144000Y-7889000D02*
X4246000Y-7889000D01*
X4449000Y-6060000D02*
X4449000Y-6162000D01*
X4398000Y-6111000D02*
X4500000Y-6111000D01*
X4449000Y-7838000D02*
X4449000Y-7940000D01*
X4398000Y-7889000D02*
X4500000Y-7889000D01*
X4703000Y-6060000D02*
X4703000Y-6162000D01*
X4652000Y-6111000D02*
X4754000Y-6111000D01*
X4703000Y-7838000D02*
X4703000Y-7940000D01*
X4652000Y-7889000D02*
X4754000Y-7889000D01*
X4957000Y-6060000D02*
X4957000Y-6162000D01*
X4906000Y-6111000D02*
X5008000Y-6111000D01*
X4957000Y-7838000D02*
X4957000Y-7940000D01*
X4906000Y-7889000D02*
X5008000Y-7889000D01*
X5211000Y-6060000D02*
X5211000Y-6162000D01*
X5160000Y-6111000D02*
X5262000Y-6111000D01*
X5211000Y-7838000D02*
X5211000Y-7940000D01*
X5160000Y-7889000D02*
X5262000Y-7889000D01*
X5465000Y-6060000D02*
X5465000Y-6162000D01*
X5414000Y-6111000D02*
X5516000Y-6111000D01*
X5465000Y-7838000D02*
X5465000Y-7940000D01*
X5414000Y-7889000D02*
X5516000Y-7889000D01*
X5719000Y-6060000D02*
X5719000Y-6162000D01*
X5668000Y-6111000D02*
X5770000Y-6111000D01*
X5719000Y-7838000D02*
X5719000Y-7940000D01*
X5668000Y-7889000D02*
X5770000Y-7889000D01*
X5973000Y-6060000D02*
X5973000Y-6162000D01*
X5922000Y-6111000D02*
X6024000Y-6111000D01*
X5973000Y-7838000D02*
X5973000Y-7940000D01*
X5922000Y-7889000D02*
X6024000Y-7889000D01*
X6227000Y-6060000D02*
X6227000Y-6162000D01*
X6176000Y-6111000D02*
X6278000Y-6111000D01*
X6227000Y-7838000D02*
X6227000Y-7940000D01*
X6176000Y-7889000D02*
X6278000Y-7889000D01*
X6481000Y-6060000D02*
X6481000Y-6162000D01*
X6430000Y-6111000D02*
X6532000Y-6111000D01*
X6481000Y-7838000D02*
X6481000Y-7940000D01*
X6430000Y-7889000D02*
X6532000Y-7889000D01*
X6735000Y-6060000D02*
X6735000Y-6162000D01*
X6684000Y-6111000D02*
X6786000Y-6111000D01*
X6735000Y-7838000D02*
X6735000Y-7940000D01*
X6684000Y-7889000D02*
X6786000Y-7889000D01*
X6989000Y-6060000D02*
X6989000Y-6162000D01*
X6938000Y-6111000D02*
X7040000Y-6111000D01*
X6989000Y-7838000D02*
X6989000Y-7940000D01*
X6938000Y-7889000D02*
X7040000Y-7889000D01*
X7243000Y-6060000D02*
X7243000Y-6162000D01*
X7192000Y-6111000D02*
X7294000Y-6111000D01*
X7243000Y-7838000D02*
X7243000Y-7940000D01*
X7192000Y-7889000D02*
X7294000Y-7889000D01*
X7497000Y-6060000D02*
X7497000Y-6162000D01*
X7446000Y-6111000D02*
X7548000Y-6111000D01*
X7497000Y-7838000D02*
X7497000Y-7940000D01*
X7446000Y-7889000D02*
X7548000Y-7889000D01*
X7751000Y-6060000D02*
X7751000Y-6162000D01*
X7700000Y-6111000D02*
X7802000Y-6111000D01*
X7751000Y-7838000D02*
X7751000Y-7940000D01*
X7700000Y-7889000D02*
X7802000Y-7889000D01*
X8005000Y-6060000D02*
X8005000Y-6162000D01*
X7954000Y-6111000D02*
X8056000Y-6111000D01*
X8005000Y-7838000D02*
X8005000Y-7940000D01*
X7954000Y-7889000D02*
X8056000Y-7889000D01*
X8259000Y-6060000D02*
X8259000Y-6162000D01*
X8208000Y-6111000D02*
X8310000Y-6111000D01*
X8259000Y-7838000D02*
X8259000Y-7940000D01*
X8208000Y-7889000D02*
X8310000Y-7889000D01*
X8490000Y-6695000D02*
X8490000Y-6797000D01*
X8439000Y-6746000D02*
X8541000Y-6746000D01*
X8490000Y-6949000D02*
X8490000Y-7051000D01*
X8439000Y-7000000D02*
X8541000Y-7000000D01*
X8490000Y-7203000D02*
X8490000Y-7305000D01*
X8439000Y-7254000D02*
X8541000Y-7254000D01*
X8513000Y-6060000D02*
X8513000Y-6162000D01*
X8462000Y-6111000D02*
X8564000Y-6111000D01*
X8513000Y-7838000D02*
X8513000Y-7940000D01*
X8462000Y-7889000D02*
X8564000Y-7889000D01*
D11*
X3670409Y-9801852D02*
X3670409Y-9601852D01*
X3670409Y-9601852D02*
X3718028Y-9601852D01*
X3718028Y-9601852D02*
X3746599Y-9611376D01*
X3746599Y-9611376D02*
X3765647Y-9630423D01*
X3765647Y-9630423D02*
X3775171Y-9649471D01*
X3775171Y-9649471D02*
X3784694Y-9687566D01*
X3784694Y-9687566D02*
X3784694Y-9716138D01*
X3784694Y-9716138D02*
X3775171Y-9754233D01*
X3775171Y-9754233D02*
X3765647Y-9773280D01*
X3765647Y-9773280D02*
X3746599Y-9792328D01*
X3746599Y-9792328D02*
X3718028Y-9801852D01*
X3718028Y-9801852D02*
X3670409Y-9801852D01*
X3870409Y-9801852D02*
X3870409Y-9668518D01*
X3870409Y-9706614D02*
X3879933Y-9687566D01*
X3879933Y-9687566D02*
X3889456Y-9678042D01*
X3889456Y-9678042D02*
X3908504Y-9668518D01*
X3908504Y-9668518D02*
X3927552Y-9668518D01*
X3994218Y-9801852D02*
X3994218Y-9668518D01*
X3994218Y-9601852D02*
X3984694Y-9611376D01*
X3984694Y-9611376D02*
X3994218Y-9620899D01*
X3994218Y-9620899D02*
X4003742Y-9611376D01*
X4003742Y-9611376D02*
X3994218Y-9601852D01*
X3994218Y-9601852D02*
X3994218Y-9620899D01*
X4118028Y-9801852D02*
X4098980Y-9792328D01*
X4098980Y-9792328D02*
X4089456Y-9773280D01*
X4089456Y-9773280D02*
X4089456Y-9601852D01*
X4222790Y-9801852D02*
X4203742Y-9792328D01*
X4203742Y-9792328D02*
X4194218Y-9773280D01*
X4194218Y-9773280D02*
X4194218Y-9601852D01*
X4451361Y-9801852D02*
X4451361Y-9601852D01*
X4451361Y-9601852D02*
X4518028Y-9744709D01*
X4518028Y-9744709D02*
X4584695Y-9601852D01*
X4584695Y-9601852D02*
X4584695Y-9801852D01*
X4765647Y-9801852D02*
X4765647Y-9697090D01*
X4765647Y-9697090D02*
X4756123Y-9678042D01*
X4756123Y-9678042D02*
X4737076Y-9668518D01*
X4737076Y-9668518D02*
X4698980Y-9668518D01*
X4698980Y-9668518D02*
X4679933Y-9678042D01*
X4765647Y-9792328D02*
X4746599Y-9801852D01*
X4746599Y-9801852D02*
X4698980Y-9801852D01*
X4698980Y-9801852D02*
X4679933Y-9792328D01*
X4679933Y-9792328D02*
X4670409Y-9773280D01*
X4670409Y-9773280D02*
X4670409Y-9754233D01*
X4670409Y-9754233D02*
X4679933Y-9735185D01*
X4679933Y-9735185D02*
X4698980Y-9725661D01*
X4698980Y-9725661D02*
X4746599Y-9725661D01*
X4746599Y-9725661D02*
X4765647Y-9716138D01*
X4860885Y-9668518D02*
X4860885Y-9868518D01*
X4860885Y-9678042D02*
X4879933Y-9668518D01*
X4879933Y-9668518D02*
X4918028Y-9668518D01*
X4918028Y-9668518D02*
X4937076Y-9678042D01*
X4937076Y-9678042D02*
X4946599Y-9687566D01*
X4946599Y-9687566D02*
X4956123Y-9706614D01*
X4956123Y-9706614D02*
X4956123Y-9763757D01*
X4956123Y-9763757D02*
X4946599Y-9782804D01*
X4946599Y-9782804D02*
X4937076Y-9792328D01*
X4937076Y-9792328D02*
X4918028Y-9801852D01*
X4918028Y-9801852D02*
X4879933Y-9801852D01*
X4879933Y-9801852D02*
X4860885Y-9792328D01*
X5041837Y-9782804D02*
X5051361Y-9792328D01*
X5051361Y-9792328D02*
X5041837Y-9801852D01*
X5041837Y-9801852D02*
X5032314Y-9792328D01*
X5032314Y-9792328D02*
X5041837Y-9782804D01*
X5041837Y-9782804D02*
X5041837Y-9801852D01*
X5041837Y-9678042D02*
X5051361Y-9687566D01*
X5051361Y-9687566D02*
X5041837Y-9697090D01*
X5041837Y-9697090D02*
X5032314Y-9687566D01*
X5032314Y-9687566D02*
X5041837Y-9678042D01*
X5041837Y-9678042D02*
X5041837Y-9697090D01*
D12*
X3379632Y-10115368D02*
X3409632Y-10145368D01*
X3409632Y-10115368D02*
X3379632Y-10145368D01*
D11*
X3708504Y-10021852D02*
X3727552Y-10021852D01*
X3727552Y-10021852D02*
X3746599Y-10031376D01*
X3746599Y-10031376D02*
X3756123Y-10040899D01*
X3756123Y-10040899D02*
X3765647Y-10059947D01*
X3765647Y-10059947D02*
X3775171Y-10098042D01*
X3775171Y-10098042D02*
X3775171Y-10145661D01*
X3775171Y-10145661D02*
X3765647Y-10183757D01*
X3765647Y-10183757D02*
X3756123Y-10202804D01*
X3756123Y-10202804D02*
X3746599Y-10212328D01*
X3746599Y-10212328D02*
X3727552Y-10221852D01*
X3727552Y-10221852D02*
X3708504Y-10221852D01*
X3708504Y-10221852D02*
X3689456Y-10212328D01*
X3689456Y-10212328D02*
X3679933Y-10202804D01*
X3679933Y-10202804D02*
X3670409Y-10183757D01*
X3670409Y-10183757D02*
X3660885Y-10145661D01*
X3660885Y-10145661D02*
X3660885Y-10098042D01*
X3660885Y-10098042D02*
X3670409Y-10059947D01*
X3670409Y-10059947D02*
X3679933Y-10040899D01*
X3679933Y-10040899D02*
X3689456Y-10031376D01*
X3689456Y-10031376D02*
X3708504Y-10021852D01*
X3860885Y-10202804D02*
X3870409Y-10212328D01*
X3870409Y-10212328D02*
X3860885Y-10221852D01*
X3860885Y-10221852D02*
X3851361Y-10212328D01*
X3851361Y-10212328D02*
X3860885Y-10202804D01*
X3860885Y-10202804D02*
X3860885Y-10221852D01*
X3937075Y-10021852D02*
X4060885Y-10021852D01*
X4060885Y-10021852D02*
X3994218Y-10098042D01*
X3994218Y-10098042D02*
X4022790Y-10098042D01*
X4022790Y-10098042D02*
X4041837Y-10107566D01*
X4041837Y-10107566D02*
X4051361Y-10117090D01*
X4051361Y-10117090D02*
X4060885Y-10136138D01*
X4060885Y-10136138D02*
X4060885Y-10183757D01*
X4060885Y-10183757D02*
X4051361Y-10202804D01*
X4051361Y-10202804D02*
X4041837Y-10212328D01*
X4041837Y-10212328D02*
X4022790Y-10221852D01*
X4022790Y-10221852D02*
X3965647Y-10221852D01*
X3965647Y-10221852D02*
X3946599Y-10212328D01*
X3946599Y-10212328D02*
X3937075Y-10202804D01*
X4184694Y-10021852D02*
X4203742Y-10021852D01*
X4203742Y-10021852D02*
X4222790Y-10031376D01*
X4222790Y-10031376D02*
X4232314Y-10040899D01*
X4232314Y-10040899D02*
X4241837Y-10059947D01*
X4241837Y-10059947D02*
X4251361Y-10098042D01*
X4251361Y-10098042D02*
X4251361Y-10145661D01*
X4251361Y-10145661D02*
X4241837Y-10183757D01*
X4241837Y-10183757D02*
X4232314Y-10202804D01*
X4232314Y-10202804D02*
X4222790Y-10212328D01*
X4222790Y-10212328D02*
X4203742Y-10221852D01*
X4203742Y-10221852D02*
X4184694Y-10221852D01*
X4184694Y-10221852D02*
X4165647Y-10212328D01*
X4165647Y-10212328D02*
X4156123Y-10202804D01*
X4156123Y-10202804D02*
X4146599Y-10183757D01*
X4146599Y-10183757D02*
X4137075Y-10145661D01*
X4137075Y-10145661D02*
X4137075Y-10098042D01*
X4137075Y-10098042D02*
X4146599Y-10059947D01*
X4146599Y-10059947D02*
X4156123Y-10040899D01*
X4156123Y-10040899D02*
X4165647Y-10031376D01*
X4165647Y-10031376D02*
X4184694Y-10021852D01*
X4375171Y-10021852D02*
X4394218Y-10021852D01*
X4394218Y-10021852D02*
X4413266Y-10031376D01*
X4413266Y-10031376D02*
X4422790Y-10040899D01*
X4422790Y-10040899D02*
X4432314Y-10059947D01*
X4432314Y-10059947D02*
X4441837Y-10098042D01*
X4441837Y-10098042D02*
X4441837Y-10145661D01*
X4441837Y-10145661D02*
X4432314Y-10183757D01*
X4432314Y-10183757D02*
X4422790Y-10202804D01*
X4422790Y-10202804D02*
X4413266Y-10212328D01*
X4413266Y-10212328D02*
X4394218Y-10221852D01*
X4394218Y-10221852D02*
X4375171Y-10221852D01*
X4375171Y-10221852D02*
X4356123Y-10212328D01*
X4356123Y-10212328D02*
X4346599Y-10202804D01*
X4346599Y-10202804D02*
X4337076Y-10183757D01*
X4337076Y-10183757D02*
X4327552Y-10145661D01*
X4327552Y-10145661D02*
X4327552Y-10098042D01*
X4327552Y-10098042D02*
X4337076Y-10059947D01*
X4337076Y-10059947D02*
X4346599Y-10040899D01*
X4346599Y-10040899D02*
X4356123Y-10031376D01*
X4356123Y-10031376D02*
X4375171Y-10021852D01*
X4527552Y-10221852D02*
X4527552Y-10088518D01*
X4527552Y-10107566D02*
X4537076Y-10098042D01*
X4537076Y-10098042D02*
X4556123Y-10088518D01*
X4556123Y-10088518D02*
X4584695Y-10088518D01*
X4584695Y-10088518D02*
X4603742Y-10098042D01*
X4603742Y-10098042D02*
X4613266Y-10117090D01*
X4613266Y-10117090D02*
X4613266Y-10221852D01*
X4613266Y-10117090D02*
X4622790Y-10098042D01*
X4622790Y-10098042D02*
X4641837Y-10088518D01*
X4641837Y-10088518D02*
X4670409Y-10088518D01*
X4670409Y-10088518D02*
X4689457Y-10098042D01*
X4689457Y-10098042D02*
X4698980Y-10117090D01*
X4698980Y-10117090D02*
X4698980Y-10221852D01*
X4794218Y-10221852D02*
X4794218Y-10088518D01*
X4794218Y-10107566D02*
X4803742Y-10098042D01*
X4803742Y-10098042D02*
X4822790Y-10088518D01*
X4822790Y-10088518D02*
X4851361Y-10088518D01*
X4851361Y-10088518D02*
X4870409Y-10098042D01*
X4870409Y-10098042D02*
X4879933Y-10117090D01*
X4879933Y-10117090D02*
X4879933Y-10221852D01*
X4879933Y-10117090D02*
X4889457Y-10098042D01*
X4889457Y-10098042D02*
X4908504Y-10088518D01*
X4908504Y-10088518D02*
X4937076Y-10088518D01*
X4937076Y-10088518D02*
X4956123Y-10098042D01*
X4956123Y-10098042D02*
X4965647Y-10117090D01*
X4965647Y-10117090D02*
X4965647Y-10221852D01*
X5356123Y-10012328D02*
X5184695Y-10269471D01*
X5613266Y-10021852D02*
X5632314Y-10021852D01*
X5632314Y-10021852D02*
X5651361Y-10031376D01*
X5651361Y-10031376D02*
X5660885Y-10040899D01*
X5660885Y-10040899D02*
X5670409Y-10059947D01*
X5670409Y-10059947D02*
X5679933Y-10098042D01*
X5679933Y-10098042D02*
X5679933Y-10145661D01*
X5679933Y-10145661D02*
X5670409Y-10183757D01*
X5670409Y-10183757D02*
X5660885Y-10202804D01*
X5660885Y-10202804D02*
X5651361Y-10212328D01*
X5651361Y-10212328D02*
X5632314Y-10221852D01*
X5632314Y-10221852D02*
X5613266Y-10221852D01*
X5613266Y-10221852D02*
X5594218Y-10212328D01*
X5594218Y-10212328D02*
X5584695Y-10202804D01*
X5584695Y-10202804D02*
X5575171Y-10183757D01*
X5575171Y-10183757D02*
X5565647Y-10145661D01*
X5565647Y-10145661D02*
X5565647Y-10098042D01*
X5565647Y-10098042D02*
X5575171Y-10059947D01*
X5575171Y-10059947D02*
X5584695Y-10040899D01*
X5584695Y-10040899D02*
X5594218Y-10031376D01*
X5594218Y-10031376D02*
X5613266Y-10021852D01*
X5765647Y-10202804D02*
X5775171Y-10212328D01*
X5775171Y-10212328D02*
X5765647Y-10221852D01*
X5765647Y-10221852D02*
X5756123Y-10212328D01*
X5756123Y-10212328D02*
X5765647Y-10202804D01*
X5765647Y-10202804D02*
X5765647Y-10221852D01*
X5898980Y-10021852D02*
X5918028Y-10021852D01*
X5918028Y-10021852D02*
X5937076Y-10031376D01*
X5937076Y-10031376D02*
X5946599Y-10040899D01*
X5946599Y-10040899D02*
X5956123Y-10059947D01*
X5956123Y-10059947D02*
X5965647Y-10098042D01*
X5965647Y-10098042D02*
X5965647Y-10145661D01*
X5965647Y-10145661D02*
X5956123Y-10183757D01*
X5956123Y-10183757D02*
X5946599Y-10202804D01*
X5946599Y-10202804D02*
X5937076Y-10212328D01*
X5937076Y-10212328D02*
X5918028Y-10221852D01*
X5918028Y-10221852D02*
X5898980Y-10221852D01*
X5898980Y-10221852D02*
X5879933Y-10212328D01*
X5879933Y-10212328D02*
X5870409Y-10202804D01*
X5870409Y-10202804D02*
X5860885Y-10183757D01*
X5860885Y-10183757D02*
X5851361Y-10145661D01*
X5851361Y-10145661D02*
X5851361Y-10098042D01*
X5851361Y-10098042D02*
X5860885Y-10059947D01*
X5860885Y-10059947D02*
X5870409Y-10040899D01*
X5870409Y-10040899D02*
X5879933Y-10031376D01*
X5879933Y-10031376D02*
X5898980Y-10021852D01*
X6156123Y-10221852D02*
X6041838Y-10221852D01*
X6098980Y-10221852D02*
X6098980Y-10021852D01*
X6098980Y-10021852D02*
X6079933Y-10050423D01*
X6079933Y-10050423D02*
X6060885Y-10069471D01*
X6060885Y-10069471D02*
X6041838Y-10078995D01*
X6346599Y-10221852D02*
X6232314Y-10221852D01*
X6289457Y-10221852D02*
X6289457Y-10021852D01*
X6289457Y-10021852D02*
X6270409Y-10050423D01*
X6270409Y-10050423D02*
X6251361Y-10069471D01*
X6251361Y-10069471D02*
X6232314Y-10078995D01*
X6460885Y-10107566D02*
X6441838Y-10098042D01*
X6441838Y-10098042D02*
X6432314Y-10088518D01*
X6432314Y-10088518D02*
X6422790Y-10069471D01*
X6422790Y-10069471D02*
X6422790Y-10059947D01*
X6422790Y-10059947D02*
X6432314Y-10040899D01*
X6432314Y-10040899D02*
X6441838Y-10031376D01*
X6441838Y-10031376D02*
X6460885Y-10021852D01*
X6460885Y-10021852D02*
X6498980Y-10021852D01*
X6498980Y-10021852D02*
X6518028Y-10031376D01*
X6518028Y-10031376D02*
X6527552Y-10040899D01*
X6527552Y-10040899D02*
X6537076Y-10059947D01*
X6537076Y-10059947D02*
X6537076Y-10069471D01*
X6537076Y-10069471D02*
X6527552Y-10088518D01*
X6527552Y-10088518D02*
X6518028Y-10098042D01*
X6518028Y-10098042D02*
X6498980Y-10107566D01*
X6498980Y-10107566D02*
X6460885Y-10107566D01*
X6460885Y-10107566D02*
X6441838Y-10117090D01*
X6441838Y-10117090D02*
X6432314Y-10126614D01*
X6432314Y-10126614D02*
X6422790Y-10145661D01*
X6422790Y-10145661D02*
X6422790Y-10183757D01*
X6422790Y-10183757D02*
X6432314Y-10202804D01*
X6432314Y-10202804D02*
X6441838Y-10212328D01*
X6441838Y-10212328D02*
X6460885Y-10221852D01*
X6460885Y-10221852D02*
X6498980Y-10221852D01*
X6498980Y-10221852D02*
X6518028Y-10212328D01*
X6518028Y-10212328D02*
X6527552Y-10202804D01*
X6527552Y-10202804D02*
X6537076Y-10183757D01*
X6537076Y-10183757D02*
X6537076Y-10145661D01*
X6537076Y-10145661D02*
X6527552Y-10126614D01*
X6527552Y-10126614D02*
X6518028Y-10117090D01*
X6518028Y-10117090D02*
X6498980Y-10107566D01*
X6613266Y-10021852D02*
X6613266Y-10059947D01*
X6689457Y-10021852D02*
X6689457Y-10059947D01*
X6984695Y-10298042D02*
X6975171Y-10288518D01*
X6975171Y-10288518D02*
X6956123Y-10259947D01*
X6956123Y-10259947D02*
X6946600Y-10240899D01*
X6946600Y-10240899D02*
X6937076Y-10212328D01*
X6937076Y-10212328D02*
X6927552Y-10164709D01*
X6927552Y-10164709D02*
X6927552Y-10126614D01*
X6927552Y-10126614D02*
X6937076Y-10078995D01*
X6937076Y-10078995D02*
X6946600Y-10050423D01*
X6946600Y-10050423D02*
X6956123Y-10031376D01*
X6956123Y-10031376D02*
X6975171Y-10002804D01*
X6975171Y-10002804D02*
X6984695Y-9993280D01*
X7070409Y-10221852D02*
X7108504Y-10221852D01*
X7108504Y-10221852D02*
X7127552Y-10212328D01*
X7127552Y-10212328D02*
X7137076Y-10202804D01*
X7137076Y-10202804D02*
X7156123Y-10174233D01*
X7156123Y-10174233D02*
X7165647Y-10136138D01*
X7165647Y-10136138D02*
X7165647Y-10059947D01*
X7165647Y-10059947D02*
X7156123Y-10040899D01*
X7156123Y-10040899D02*
X7146600Y-10031376D01*
X7146600Y-10031376D02*
X7127552Y-10021852D01*
X7127552Y-10021852D02*
X7089457Y-10021852D01*
X7089457Y-10021852D02*
X7070409Y-10031376D01*
X7070409Y-10031376D02*
X7060885Y-10040899D01*
X7060885Y-10040899D02*
X7051361Y-10059947D01*
X7051361Y-10059947D02*
X7051361Y-10107566D01*
X7051361Y-10107566D02*
X7060885Y-10126614D01*
X7060885Y-10126614D02*
X7070409Y-10136138D01*
X7070409Y-10136138D02*
X7089457Y-10145661D01*
X7089457Y-10145661D02*
X7127552Y-10145661D01*
X7127552Y-10145661D02*
X7146600Y-10136138D01*
X7146600Y-10136138D02*
X7156123Y-10126614D01*
X7156123Y-10126614D02*
X7165647Y-10107566D01*
X7356123Y-10221852D02*
X7241838Y-10221852D01*
X7298980Y-10221852D02*
X7298980Y-10021852D01*
X7298980Y-10021852D02*
X7279933Y-10050423D01*
X7279933Y-10050423D02*
X7260885Y-10069471D01*
X7260885Y-10069471D02*
X7241838Y-10078995D01*
X7594219Y-10221852D02*
X7594219Y-10021852D01*
X7679933Y-10221852D02*
X7679933Y-10117090D01*
X7679933Y-10117090D02*
X7670409Y-10098042D01*
X7670409Y-10098042D02*
X7651362Y-10088518D01*
X7651362Y-10088518D02*
X7622790Y-10088518D01*
X7622790Y-10088518D02*
X7603742Y-10098042D01*
X7603742Y-10098042D02*
X7594219Y-10107566D01*
X7803742Y-10221852D02*
X7784695Y-10212328D01*
X7784695Y-10212328D02*
X7775171Y-10202804D01*
X7775171Y-10202804D02*
X7765647Y-10183757D01*
X7765647Y-10183757D02*
X7765647Y-10126614D01*
X7765647Y-10126614D02*
X7775171Y-10107566D01*
X7775171Y-10107566D02*
X7784695Y-10098042D01*
X7784695Y-10098042D02*
X7803742Y-10088518D01*
X7803742Y-10088518D02*
X7832314Y-10088518D01*
X7832314Y-10088518D02*
X7851362Y-10098042D01*
X7851362Y-10098042D02*
X7860885Y-10107566D01*
X7860885Y-10107566D02*
X7870409Y-10126614D01*
X7870409Y-10126614D02*
X7870409Y-10183757D01*
X7870409Y-10183757D02*
X7860885Y-10202804D01*
X7860885Y-10202804D02*
X7851362Y-10212328D01*
X7851362Y-10212328D02*
X7832314Y-10221852D01*
X7832314Y-10221852D02*
X7803742Y-10221852D01*
X7984695Y-10221852D02*
X7965647Y-10212328D01*
X7965647Y-10212328D02*
X7956123Y-10193280D01*
X7956123Y-10193280D02*
X7956123Y-10021852D01*
X8137076Y-10212328D02*
X8118028Y-10221852D01*
X8118028Y-10221852D02*
X8079933Y-10221852D01*
X8079933Y-10221852D02*
X8060885Y-10212328D01*
X8060885Y-10212328D02*
X8051362Y-10193280D01*
X8051362Y-10193280D02*
X8051362Y-10117090D01*
X8051362Y-10117090D02*
X8060885Y-10098042D01*
X8060885Y-10098042D02*
X8079933Y-10088518D01*
X8079933Y-10088518D02*
X8118028Y-10088518D01*
X8118028Y-10088518D02*
X8137076Y-10098042D01*
X8137076Y-10098042D02*
X8146600Y-10117090D01*
X8146600Y-10117090D02*
X8146600Y-10136138D01*
X8146600Y-10136138D02*
X8051362Y-10155185D01*
X8222790Y-10212328D02*
X8241838Y-10221852D01*
X8241838Y-10221852D02*
X8279933Y-10221852D01*
X8279933Y-10221852D02*
X8298981Y-10212328D01*
X8298981Y-10212328D02*
X8308504Y-10193280D01*
X8308504Y-10193280D02*
X8308504Y-10183757D01*
X8308504Y-10183757D02*
X8298981Y-10164709D01*
X8298981Y-10164709D02*
X8279933Y-10155185D01*
X8279933Y-10155185D02*
X8251362Y-10155185D01*
X8251362Y-10155185D02*
X8232314Y-10145661D01*
X8232314Y-10145661D02*
X8222790Y-10126614D01*
X8222790Y-10126614D02*
X8222790Y-10117090D01*
X8222790Y-10117090D02*
X8232314Y-10098042D01*
X8232314Y-10098042D02*
X8251362Y-10088518D01*
X8251362Y-10088518D02*
X8279933Y-10088518D01*
X8279933Y-10088518D02*
X8298981Y-10098042D01*
X8375171Y-10298042D02*
X8384695Y-10288518D01*
X8384695Y-10288518D02*
X8403743Y-10259947D01*
X8403743Y-10259947D02*
X8413266Y-10240899D01*
X8413266Y-10240899D02*
X8422790Y-10212328D01*
X8422790Y-10212328D02*
X8432314Y-10164709D01*
X8432314Y-10164709D02*
X8432314Y-10126614D01*
X8432314Y-10126614D02*
X8422790Y-10078995D01*
X8422790Y-10078995D02*
X8413266Y-10050423D01*
X8413266Y-10050423D02*
X8403743Y-10031376D01*
X8403743Y-10031376D02*
X8384695Y-10002804D01*
X8384695Y-10002804D02*
X8375171Y-9993280D01*
D12*
X3409632Y-10394368D02*
G75*
G02*
X3309632Y-10394368I-50000J0D01*
G01*
X3309632Y-10394368D02*
G75*
G02*
X3409632Y-10394368I50000J0D01*
G01*
D11*
X3775171Y-10485852D02*
X3660885Y-10485852D01*
X3718028Y-10485852D02*
X3718028Y-10285852D01*
X3718028Y-10285852D02*
X3698980Y-10314423D01*
X3698980Y-10314423D02*
X3679933Y-10333471D01*
X3679933Y-10333471D02*
X3660885Y-10342995D01*
X3860885Y-10466804D02*
X3870409Y-10476328D01*
X3870409Y-10476328D02*
X3860885Y-10485852D01*
X3860885Y-10485852D02*
X3851361Y-10476328D01*
X3851361Y-10476328D02*
X3860885Y-10466804D01*
X3860885Y-10466804D02*
X3860885Y-10485852D01*
X3994218Y-10285852D02*
X4013266Y-10285852D01*
X4013266Y-10285852D02*
X4032314Y-10295376D01*
X4032314Y-10295376D02*
X4041837Y-10304899D01*
X4041837Y-10304899D02*
X4051361Y-10323947D01*
X4051361Y-10323947D02*
X4060885Y-10362042D01*
X4060885Y-10362042D02*
X4060885Y-10409661D01*
X4060885Y-10409661D02*
X4051361Y-10447757D01*
X4051361Y-10447757D02*
X4041837Y-10466804D01*
X4041837Y-10466804D02*
X4032314Y-10476328D01*
X4032314Y-10476328D02*
X4013266Y-10485852D01*
X4013266Y-10485852D02*
X3994218Y-10485852D01*
X3994218Y-10485852D02*
X3975171Y-10476328D01*
X3975171Y-10476328D02*
X3965647Y-10466804D01*
X3965647Y-10466804D02*
X3956123Y-10447757D01*
X3956123Y-10447757D02*
X3946599Y-10409661D01*
X3946599Y-10409661D02*
X3946599Y-10362042D01*
X3946599Y-10362042D02*
X3956123Y-10323947D01*
X3956123Y-10323947D02*
X3965647Y-10304899D01*
X3965647Y-10304899D02*
X3975171Y-10295376D01*
X3975171Y-10295376D02*
X3994218Y-10285852D01*
X4184694Y-10285852D02*
X4203742Y-10285852D01*
X4203742Y-10285852D02*
X4222790Y-10295376D01*
X4222790Y-10295376D02*
X4232314Y-10304899D01*
X4232314Y-10304899D02*
X4241837Y-10323947D01*
X4241837Y-10323947D02*
X4251361Y-10362042D01*
X4251361Y-10362042D02*
X4251361Y-10409661D01*
X4251361Y-10409661D02*
X4241837Y-10447757D01*
X4241837Y-10447757D02*
X4232314Y-10466804D01*
X4232314Y-10466804D02*
X4222790Y-10476328D01*
X4222790Y-10476328D02*
X4203742Y-10485852D01*
X4203742Y-10485852D02*
X4184694Y-10485852D01*
X4184694Y-10485852D02*
X4165647Y-10476328D01*
X4165647Y-10476328D02*
X4156123Y-10466804D01*
X4156123Y-10466804D02*
X4146599Y-10447757D01*
X4146599Y-10447757D02*
X4137075Y-10409661D01*
X4137075Y-10409661D02*
X4137075Y-10362042D01*
X4137075Y-10362042D02*
X4146599Y-10323947D01*
X4146599Y-10323947D02*
X4156123Y-10304899D01*
X4156123Y-10304899D02*
X4165647Y-10295376D01*
X4165647Y-10295376D02*
X4184694Y-10285852D01*
X4375171Y-10285852D02*
X4394218Y-10285852D01*
X4394218Y-10285852D02*
X4413266Y-10295376D01*
X4413266Y-10295376D02*
X4422790Y-10304899D01*
X4422790Y-10304899D02*
X4432314Y-10323947D01*
X4432314Y-10323947D02*
X4441837Y-10362042D01*
X4441837Y-10362042D02*
X4441837Y-10409661D01*
X4441837Y-10409661D02*
X4432314Y-10447757D01*
X4432314Y-10447757D02*
X4422790Y-10466804D01*
X4422790Y-10466804D02*
X4413266Y-10476328D01*
X4413266Y-10476328D02*
X4394218Y-10485852D01*
X4394218Y-10485852D02*
X4375171Y-10485852D01*
X4375171Y-10485852D02*
X4356123Y-10476328D01*
X4356123Y-10476328D02*
X4346599Y-10466804D01*
X4346599Y-10466804D02*
X4337076Y-10447757D01*
X4337076Y-10447757D02*
X4327552Y-10409661D01*
X4327552Y-10409661D02*
X4327552Y-10362042D01*
X4327552Y-10362042D02*
X4337076Y-10323947D01*
X4337076Y-10323947D02*
X4346599Y-10304899D01*
X4346599Y-10304899D02*
X4356123Y-10295376D01*
X4356123Y-10295376D02*
X4375171Y-10285852D01*
X4527552Y-10485852D02*
X4527552Y-10352518D01*
X4527552Y-10371566D02*
X4537076Y-10362042D01*
X4537076Y-10362042D02*
X4556123Y-10352518D01*
X4556123Y-10352518D02*
X4584695Y-10352518D01*
X4584695Y-10352518D02*
X4603742Y-10362042D01*
X4603742Y-10362042D02*
X4613266Y-10381090D01*
X4613266Y-10381090D02*
X4613266Y-10485852D01*
X4613266Y-10381090D02*
X4622790Y-10362042D01*
X4622790Y-10362042D02*
X4641837Y-10352518D01*
X4641837Y-10352518D02*
X4670409Y-10352518D01*
X4670409Y-10352518D02*
X4689457Y-10362042D01*
X4689457Y-10362042D02*
X4698980Y-10381090D01*
X4698980Y-10381090D02*
X4698980Y-10485852D01*
X4794218Y-10485852D02*
X4794218Y-10352518D01*
X4794218Y-10371566D02*
X4803742Y-10362042D01*
X4803742Y-10362042D02*
X4822790Y-10352518D01*
X4822790Y-10352518D02*
X4851361Y-10352518D01*
X4851361Y-10352518D02*
X4870409Y-10362042D01*
X4870409Y-10362042D02*
X4879933Y-10381090D01*
X4879933Y-10381090D02*
X4879933Y-10485852D01*
X4879933Y-10381090D02*
X4889457Y-10362042D01*
X4889457Y-10362042D02*
X4908504Y-10352518D01*
X4908504Y-10352518D02*
X4937076Y-10352518D01*
X4937076Y-10352518D02*
X4956123Y-10362042D01*
X4956123Y-10362042D02*
X4965647Y-10381090D01*
X4965647Y-10381090D02*
X4965647Y-10485852D01*
X5356123Y-10276328D02*
X5184695Y-10533471D01*
X5613266Y-10285852D02*
X5632314Y-10285852D01*
X5632314Y-10285852D02*
X5651361Y-10295376D01*
X5651361Y-10295376D02*
X5660885Y-10304899D01*
X5660885Y-10304899D02*
X5670409Y-10323947D01*
X5670409Y-10323947D02*
X5679933Y-10362042D01*
X5679933Y-10362042D02*
X5679933Y-10409661D01*
X5679933Y-10409661D02*
X5670409Y-10447757D01*
X5670409Y-10447757D02*
X5660885Y-10466804D01*
X5660885Y-10466804D02*
X5651361Y-10476328D01*
X5651361Y-10476328D02*
X5632314Y-10485852D01*
X5632314Y-10485852D02*
X5613266Y-10485852D01*
X5613266Y-10485852D02*
X5594218Y-10476328D01*
X5594218Y-10476328D02*
X5584695Y-10466804D01*
X5584695Y-10466804D02*
X5575171Y-10447757D01*
X5575171Y-10447757D02*
X5565647Y-10409661D01*
X5565647Y-10409661D02*
X5565647Y-10362042D01*
X5565647Y-10362042D02*
X5575171Y-10323947D01*
X5575171Y-10323947D02*
X5584695Y-10304899D01*
X5584695Y-10304899D02*
X5594218Y-10295376D01*
X5594218Y-10295376D02*
X5613266Y-10285852D01*
X5765647Y-10466804D02*
X5775171Y-10476328D01*
X5775171Y-10476328D02*
X5765647Y-10485852D01*
X5765647Y-10485852D02*
X5756123Y-10476328D01*
X5756123Y-10476328D02*
X5765647Y-10466804D01*
X5765647Y-10466804D02*
X5765647Y-10485852D01*
X5898980Y-10285852D02*
X5918028Y-10285852D01*
X5918028Y-10285852D02*
X5937076Y-10295376D01*
X5937076Y-10295376D02*
X5946599Y-10304899D01*
X5946599Y-10304899D02*
X5956123Y-10323947D01*
X5956123Y-10323947D02*
X5965647Y-10362042D01*
X5965647Y-10362042D02*
X5965647Y-10409661D01*
X5965647Y-10409661D02*
X5956123Y-10447757D01*
X5956123Y-10447757D02*
X5946599Y-10466804D01*
X5946599Y-10466804D02*
X5937076Y-10476328D01*
X5937076Y-10476328D02*
X5918028Y-10485852D01*
X5918028Y-10485852D02*
X5898980Y-10485852D01*
X5898980Y-10485852D02*
X5879933Y-10476328D01*
X5879933Y-10476328D02*
X5870409Y-10466804D01*
X5870409Y-10466804D02*
X5860885Y-10447757D01*
X5860885Y-10447757D02*
X5851361Y-10409661D01*
X5851361Y-10409661D02*
X5851361Y-10362042D01*
X5851361Y-10362042D02*
X5860885Y-10323947D01*
X5860885Y-10323947D02*
X5870409Y-10304899D01*
X5870409Y-10304899D02*
X5879933Y-10295376D01*
X5879933Y-10295376D02*
X5898980Y-10285852D01*
X6032314Y-10285852D02*
X6156123Y-10285852D01*
X6156123Y-10285852D02*
X6089457Y-10362042D01*
X6089457Y-10362042D02*
X6118028Y-10362042D01*
X6118028Y-10362042D02*
X6137076Y-10371566D01*
X6137076Y-10371566D02*
X6146599Y-10381090D01*
X6146599Y-10381090D02*
X6156123Y-10400138D01*
X6156123Y-10400138D02*
X6156123Y-10447757D01*
X6156123Y-10447757D02*
X6146599Y-10466804D01*
X6146599Y-10466804D02*
X6137076Y-10476328D01*
X6137076Y-10476328D02*
X6118028Y-10485852D01*
X6118028Y-10485852D02*
X6060885Y-10485852D01*
X6060885Y-10485852D02*
X6041838Y-10476328D01*
X6041838Y-10476328D02*
X6032314Y-10466804D01*
X6251361Y-10485852D02*
X6289457Y-10485852D01*
X6289457Y-10485852D02*
X6308504Y-10476328D01*
X6308504Y-10476328D02*
X6318028Y-10466804D01*
X6318028Y-10466804D02*
X6337076Y-10438233D01*
X6337076Y-10438233D02*
X6346599Y-10400138D01*
X6346599Y-10400138D02*
X6346599Y-10323947D01*
X6346599Y-10323947D02*
X6337076Y-10304899D01*
X6337076Y-10304899D02*
X6327552Y-10295376D01*
X6327552Y-10295376D02*
X6308504Y-10285852D01*
X6308504Y-10285852D02*
X6270409Y-10285852D01*
X6270409Y-10285852D02*
X6251361Y-10295376D01*
X6251361Y-10295376D02*
X6241838Y-10304899D01*
X6241838Y-10304899D02*
X6232314Y-10323947D01*
X6232314Y-10323947D02*
X6232314Y-10371566D01*
X6232314Y-10371566D02*
X6241838Y-10390614D01*
X6241838Y-10390614D02*
X6251361Y-10400138D01*
X6251361Y-10400138D02*
X6270409Y-10409661D01*
X6270409Y-10409661D02*
X6308504Y-10409661D01*
X6308504Y-10409661D02*
X6327552Y-10400138D01*
X6327552Y-10400138D02*
X6337076Y-10390614D01*
X6337076Y-10390614D02*
X6346599Y-10371566D01*
X6518028Y-10352518D02*
X6518028Y-10485852D01*
X6470409Y-10276328D02*
X6422790Y-10419185D01*
X6422790Y-10419185D02*
X6546599Y-10419185D01*
X6613266Y-10285852D02*
X6613266Y-10323947D01*
X6689457Y-10285852D02*
X6689457Y-10323947D01*
X6984695Y-10562042D02*
X6975171Y-10552518D01*
X6975171Y-10552518D02*
X6956123Y-10523947D01*
X6956123Y-10523947D02*
X6946600Y-10504899D01*
X6946600Y-10504899D02*
X6937076Y-10476328D01*
X6937076Y-10476328D02*
X6927552Y-10428709D01*
X6927552Y-10428709D02*
X6927552Y-10390614D01*
X6927552Y-10390614D02*
X6937076Y-10342995D01*
X6937076Y-10342995D02*
X6946600Y-10314423D01*
X6946600Y-10314423D02*
X6956123Y-10295376D01*
X6956123Y-10295376D02*
X6975171Y-10266804D01*
X6975171Y-10266804D02*
X6984695Y-10257280D01*
X7156123Y-10285852D02*
X7060885Y-10285852D01*
X7060885Y-10285852D02*
X7051361Y-10381090D01*
X7051361Y-10381090D02*
X7060885Y-10371566D01*
X7060885Y-10371566D02*
X7079933Y-10362042D01*
X7079933Y-10362042D02*
X7127552Y-10362042D01*
X7127552Y-10362042D02*
X7146600Y-10371566D01*
X7146600Y-10371566D02*
X7156123Y-10381090D01*
X7156123Y-10381090D02*
X7165647Y-10400138D01*
X7165647Y-10400138D02*
X7165647Y-10447757D01*
X7165647Y-10447757D02*
X7156123Y-10466804D01*
X7156123Y-10466804D02*
X7146600Y-10476328D01*
X7146600Y-10476328D02*
X7127552Y-10485852D01*
X7127552Y-10485852D02*
X7079933Y-10485852D01*
X7079933Y-10485852D02*
X7060885Y-10476328D01*
X7060885Y-10476328D02*
X7051361Y-10466804D01*
X7289457Y-10285852D02*
X7308504Y-10285852D01*
X7308504Y-10285852D02*
X7327552Y-10295376D01*
X7327552Y-10295376D02*
X7337076Y-10304899D01*
X7337076Y-10304899D02*
X7346600Y-10323947D01*
X7346600Y-10323947D02*
X7356123Y-10362042D01*
X7356123Y-10362042D02*
X7356123Y-10409661D01*
X7356123Y-10409661D02*
X7346600Y-10447757D01*
X7346600Y-10447757D02*
X7337076Y-10466804D01*
X7337076Y-10466804D02*
X7327552Y-10476328D01*
X7327552Y-10476328D02*
X7308504Y-10485852D01*
X7308504Y-10485852D02*
X7289457Y-10485852D01*
X7289457Y-10485852D02*
X7270409Y-10476328D01*
X7270409Y-10476328D02*
X7260885Y-10466804D01*
X7260885Y-10466804D02*
X7251361Y-10447757D01*
X7251361Y-10447757D02*
X7241838Y-10409661D01*
X7241838Y-10409661D02*
X7241838Y-10362042D01*
X7241838Y-10362042D02*
X7251361Y-10323947D01*
X7251361Y-10323947D02*
X7260885Y-10304899D01*
X7260885Y-10304899D02*
X7270409Y-10295376D01*
X7270409Y-10295376D02*
X7289457Y-10285852D01*
X7594219Y-10485852D02*
X7594219Y-10285852D01*
X7679933Y-10485852D02*
X7679933Y-10381090D01*
X7679933Y-10381090D02*
X7670409Y-10362042D01*
X7670409Y-10362042D02*
X7651362Y-10352518D01*
X7651362Y-10352518D02*
X7622790Y-10352518D01*
X7622790Y-10352518D02*
X7603742Y-10362042D01*
X7603742Y-10362042D02*
X7594219Y-10371566D01*
X7803742Y-10485852D02*
X7784695Y-10476328D01*
X7784695Y-10476328D02*
X7775171Y-10466804D01*
X7775171Y-10466804D02*
X7765647Y-10447757D01*
X7765647Y-10447757D02*
X7765647Y-10390614D01*
X7765647Y-10390614D02*
X7775171Y-10371566D01*
X7775171Y-10371566D02*
X7784695Y-10362042D01*
X7784695Y-10362042D02*
X7803742Y-10352518D01*
X7803742Y-10352518D02*
X7832314Y-10352518D01*
X7832314Y-10352518D02*
X7851362Y-10362042D01*
X7851362Y-10362042D02*
X7860885Y-10371566D01*
X7860885Y-10371566D02*
X7870409Y-10390614D01*
X7870409Y-10390614D02*
X7870409Y-10447757D01*
X7870409Y-10447757D02*
X7860885Y-10466804D01*
X7860885Y-10466804D02*
X7851362Y-10476328D01*
X7851362Y-10476328D02*
X7832314Y-10485852D01*
X7832314Y-10485852D02*
X7803742Y-10485852D01*
X7984695Y-10485852D02*
X7965647Y-10476328D01*
X7965647Y-10476328D02*
X7956123Y-10457280D01*
X7956123Y-10457280D02*
X7956123Y-10285852D01*
X8137076Y-10476328D02*
X8118028Y-10485852D01*
X8118028Y-10485852D02*
X8079933Y-10485852D01*
X8079933Y-10485852D02*
X8060885Y-10476328D01*
X8060885Y-10476328D02*
X8051362Y-10457280D01*
X8051362Y-10457280D02*
X8051362Y-10381090D01*
X8051362Y-10381090D02*
X8060885Y-10362042D01*
X8060885Y-10362042D02*
X8079933Y-10352518D01*
X8079933Y-10352518D02*
X8118028Y-10352518D01*
X8118028Y-10352518D02*
X8137076Y-10362042D01*
X8137076Y-10362042D02*
X8146600Y-10381090D01*
X8146600Y-10381090D02*
X8146600Y-10400138D01*
X8146600Y-10400138D02*
X8051362Y-10419185D01*
X8222790Y-10476328D02*
X8241838Y-10485852D01*
X8241838Y-10485852D02*
X8279933Y-10485852D01*
X8279933Y-10485852D02*
X8298981Y-10476328D01*
X8298981Y-10476328D02*
X8308504Y-10457280D01*
X8308504Y-10457280D02*
X8308504Y-10447757D01*
X8308504Y-10447757D02*
X8298981Y-10428709D01*
X8298981Y-10428709D02*
X8279933Y-10419185D01*
X8279933Y-10419185D02*
X8251362Y-10419185D01*
X8251362Y-10419185D02*
X8232314Y-10409661D01*
X8232314Y-10409661D02*
X8222790Y-10390614D01*
X8222790Y-10390614D02*
X8222790Y-10381090D01*
X8222790Y-10381090D02*
X8232314Y-10362042D01*
X8232314Y-10362042D02*
X8251362Y-10352518D01*
X8251362Y-10352518D02*
X8279933Y-10352518D01*
X8279933Y-10352518D02*
X8298981Y-10362042D01*
X8375171Y-10562042D02*
X8384695Y-10552518D01*
X8384695Y-10552518D02*
X8403743Y-10523947D01*
X8403743Y-10523947D02*
X8413266Y-10504899D01*
X8413266Y-10504899D02*
X8422790Y-10476328D01*
X8422790Y-10476328D02*
X8432314Y-10428709D01*
X8432314Y-10428709D02*
X8432314Y-10390614D01*
X8432314Y-10390614D02*
X8422790Y-10342995D01*
X8422790Y-10342995D02*
X8413266Y-10314423D01*
X8413266Y-10314423D02*
X8403743Y-10295376D01*
X8403743Y-10295376D02*
X8384695Y-10266804D01*
X8384695Y-10266804D02*
X8375171Y-10257280D01*
D13*
X3358632Y-10607368D02*
X3358632Y-10709368D01*
X3307632Y-10658368D02*
X3409632Y-10658368D01*
D11*
X3775171Y-10749852D02*
X3660885Y-10749852D01*
X3718028Y-10749852D02*
X3718028Y-10549852D01*
X3718028Y-10549852D02*
X3698980Y-10578423D01*
X3698980Y-10578423D02*
X3679933Y-10597471D01*
X3679933Y-10597471D02*
X3660885Y-10606995D01*
X3860885Y-10730804D02*
X3870409Y-10740328D01*
X3870409Y-10740328D02*
X3860885Y-10749852D01*
X3860885Y-10749852D02*
X3851361Y-10740328D01*
X3851361Y-10740328D02*
X3860885Y-10730804D01*
X3860885Y-10730804D02*
X3860885Y-10749852D01*
X3994218Y-10549852D02*
X4013266Y-10549852D01*
X4013266Y-10549852D02*
X4032314Y-10559376D01*
X4032314Y-10559376D02*
X4041837Y-10568899D01*
X4041837Y-10568899D02*
X4051361Y-10587947D01*
X4051361Y-10587947D02*
X4060885Y-10626042D01*
X4060885Y-10626042D02*
X4060885Y-10673661D01*
X4060885Y-10673661D02*
X4051361Y-10711757D01*
X4051361Y-10711757D02*
X4041837Y-10730804D01*
X4041837Y-10730804D02*
X4032314Y-10740328D01*
X4032314Y-10740328D02*
X4013266Y-10749852D01*
X4013266Y-10749852D02*
X3994218Y-10749852D01*
X3994218Y-10749852D02*
X3975171Y-10740328D01*
X3975171Y-10740328D02*
X3965647Y-10730804D01*
X3965647Y-10730804D02*
X3956123Y-10711757D01*
X3956123Y-10711757D02*
X3946599Y-10673661D01*
X3946599Y-10673661D02*
X3946599Y-10626042D01*
X3946599Y-10626042D02*
X3956123Y-10587947D01*
X3956123Y-10587947D02*
X3965647Y-10568899D01*
X3965647Y-10568899D02*
X3975171Y-10559376D01*
X3975171Y-10559376D02*
X3994218Y-10549852D01*
X4137075Y-10568899D02*
X4146599Y-10559376D01*
X4146599Y-10559376D02*
X4165647Y-10549852D01*
X4165647Y-10549852D02*
X4213266Y-10549852D01*
X4213266Y-10549852D02*
X4232314Y-10559376D01*
X4232314Y-10559376D02*
X4241837Y-10568899D01*
X4241837Y-10568899D02*
X4251361Y-10587947D01*
X4251361Y-10587947D02*
X4251361Y-10606995D01*
X4251361Y-10606995D02*
X4241837Y-10635566D01*
X4241837Y-10635566D02*
X4127552Y-10749852D01*
X4127552Y-10749852D02*
X4251361Y-10749852D01*
X4375171Y-10549852D02*
X4394218Y-10549852D01*
X4394218Y-10549852D02*
X4413266Y-10559376D01*
X4413266Y-10559376D02*
X4422790Y-10568899D01*
X4422790Y-10568899D02*
X4432314Y-10587947D01*
X4432314Y-10587947D02*
X4441837Y-10626042D01*
X4441837Y-10626042D02*
X4441837Y-10673661D01*
X4441837Y-10673661D02*
X4432314Y-10711757D01*
X4432314Y-10711757D02*
X4422790Y-10730804D01*
X4422790Y-10730804D02*
X4413266Y-10740328D01*
X4413266Y-10740328D02*
X4394218Y-10749852D01*
X4394218Y-10749852D02*
X4375171Y-10749852D01*
X4375171Y-10749852D02*
X4356123Y-10740328D01*
X4356123Y-10740328D02*
X4346599Y-10730804D01*
X4346599Y-10730804D02*
X4337076Y-10711757D01*
X4337076Y-10711757D02*
X4327552Y-10673661D01*
X4327552Y-10673661D02*
X4327552Y-10626042D01*
X4327552Y-10626042D02*
X4337076Y-10587947D01*
X4337076Y-10587947D02*
X4346599Y-10568899D01*
X4346599Y-10568899D02*
X4356123Y-10559376D01*
X4356123Y-10559376D02*
X4375171Y-10549852D01*
X4527552Y-10749852D02*
X4527552Y-10616518D01*
X4527552Y-10635566D02*
X4537076Y-10626042D01*
X4537076Y-10626042D02*
X4556123Y-10616518D01*
X4556123Y-10616518D02*
X4584695Y-10616518D01*
X4584695Y-10616518D02*
X4603742Y-10626042D01*
X4603742Y-10626042D02*
X4613266Y-10645090D01*
X4613266Y-10645090D02*
X4613266Y-10749852D01*
X4613266Y-10645090D02*
X4622790Y-10626042D01*
X4622790Y-10626042D02*
X4641837Y-10616518D01*
X4641837Y-10616518D02*
X4670409Y-10616518D01*
X4670409Y-10616518D02*
X4689457Y-10626042D01*
X4689457Y-10626042D02*
X4698980Y-10645090D01*
X4698980Y-10645090D02*
X4698980Y-10749852D01*
X4794218Y-10749852D02*
X4794218Y-10616518D01*
X4794218Y-10635566D02*
X4803742Y-10626042D01*
X4803742Y-10626042D02*
X4822790Y-10616518D01*
X4822790Y-10616518D02*
X4851361Y-10616518D01*
X4851361Y-10616518D02*
X4870409Y-10626042D01*
X4870409Y-10626042D02*
X4879933Y-10645090D01*
X4879933Y-10645090D02*
X4879933Y-10749852D01*
X4879933Y-10645090D02*
X4889457Y-10626042D01*
X4889457Y-10626042D02*
X4908504Y-10616518D01*
X4908504Y-10616518D02*
X4937076Y-10616518D01*
X4937076Y-10616518D02*
X4956123Y-10626042D01*
X4956123Y-10626042D02*
X4965647Y-10645090D01*
X4965647Y-10645090D02*
X4965647Y-10749852D01*
X5356123Y-10540328D02*
X5184695Y-10797471D01*
X5613266Y-10549852D02*
X5632314Y-10549852D01*
X5632314Y-10549852D02*
X5651361Y-10559376D01*
X5651361Y-10559376D02*
X5660885Y-10568899D01*
X5660885Y-10568899D02*
X5670409Y-10587947D01*
X5670409Y-10587947D02*
X5679933Y-10626042D01*
X5679933Y-10626042D02*
X5679933Y-10673661D01*
X5679933Y-10673661D02*
X5670409Y-10711757D01*
X5670409Y-10711757D02*
X5660885Y-10730804D01*
X5660885Y-10730804D02*
X5651361Y-10740328D01*
X5651361Y-10740328D02*
X5632314Y-10749852D01*
X5632314Y-10749852D02*
X5613266Y-10749852D01*
X5613266Y-10749852D02*
X5594218Y-10740328D01*
X5594218Y-10740328D02*
X5584695Y-10730804D01*
X5584695Y-10730804D02*
X5575171Y-10711757D01*
X5575171Y-10711757D02*
X5565647Y-10673661D01*
X5565647Y-10673661D02*
X5565647Y-10626042D01*
X5565647Y-10626042D02*
X5575171Y-10587947D01*
X5575171Y-10587947D02*
X5584695Y-10568899D01*
X5584695Y-10568899D02*
X5594218Y-10559376D01*
X5594218Y-10559376D02*
X5613266Y-10549852D01*
X5765647Y-10730804D02*
X5775171Y-10740328D01*
X5775171Y-10740328D02*
X5765647Y-10749852D01*
X5765647Y-10749852D02*
X5756123Y-10740328D01*
X5756123Y-10740328D02*
X5765647Y-10730804D01*
X5765647Y-10730804D02*
X5765647Y-10749852D01*
X5898980Y-10549852D02*
X5918028Y-10549852D01*
X5918028Y-10549852D02*
X5937076Y-10559376D01*
X5937076Y-10559376D02*
X5946599Y-10568899D01*
X5946599Y-10568899D02*
X5956123Y-10587947D01*
X5956123Y-10587947D02*
X5965647Y-10626042D01*
X5965647Y-10626042D02*
X5965647Y-10673661D01*
X5965647Y-10673661D02*
X5956123Y-10711757D01*
X5956123Y-10711757D02*
X5946599Y-10730804D01*
X5946599Y-10730804D02*
X5937076Y-10740328D01*
X5937076Y-10740328D02*
X5918028Y-10749852D01*
X5918028Y-10749852D02*
X5898980Y-10749852D01*
X5898980Y-10749852D02*
X5879933Y-10740328D01*
X5879933Y-10740328D02*
X5870409Y-10730804D01*
X5870409Y-10730804D02*
X5860885Y-10711757D01*
X5860885Y-10711757D02*
X5851361Y-10673661D01*
X5851361Y-10673661D02*
X5851361Y-10626042D01*
X5851361Y-10626042D02*
X5860885Y-10587947D01*
X5860885Y-10587947D02*
X5870409Y-10568899D01*
X5870409Y-10568899D02*
X5879933Y-10559376D01*
X5879933Y-10559376D02*
X5898980Y-10549852D01*
X6137076Y-10616518D02*
X6137076Y-10749852D01*
X6089457Y-10540328D02*
X6041838Y-10683185D01*
X6041838Y-10683185D02*
X6165647Y-10683185D01*
X6279933Y-10549852D02*
X6298980Y-10549852D01*
X6298980Y-10549852D02*
X6318028Y-10559376D01*
X6318028Y-10559376D02*
X6327552Y-10568899D01*
X6327552Y-10568899D02*
X6337076Y-10587947D01*
X6337076Y-10587947D02*
X6346599Y-10626042D01*
X6346599Y-10626042D02*
X6346599Y-10673661D01*
X6346599Y-10673661D02*
X6337076Y-10711757D01*
X6337076Y-10711757D02*
X6327552Y-10730804D01*
X6327552Y-10730804D02*
X6318028Y-10740328D01*
X6318028Y-10740328D02*
X6298980Y-10749852D01*
X6298980Y-10749852D02*
X6279933Y-10749852D01*
X6279933Y-10749852D02*
X6260885Y-10740328D01*
X6260885Y-10740328D02*
X6251361Y-10730804D01*
X6251361Y-10730804D02*
X6241838Y-10711757D01*
X6241838Y-10711757D02*
X6232314Y-10673661D01*
X6232314Y-10673661D02*
X6232314Y-10626042D01*
X6232314Y-10626042D02*
X6241838Y-10587947D01*
X6241838Y-10587947D02*
X6251361Y-10568899D01*
X6251361Y-10568899D02*
X6260885Y-10559376D01*
X6260885Y-10559376D02*
X6279933Y-10549852D01*
X6422790Y-10568899D02*
X6432314Y-10559376D01*
X6432314Y-10559376D02*
X6451361Y-10549852D01*
X6451361Y-10549852D02*
X6498980Y-10549852D01*
X6498980Y-10549852D02*
X6518028Y-10559376D01*
X6518028Y-10559376D02*
X6527552Y-10568899D01*
X6527552Y-10568899D02*
X6537076Y-10587947D01*
X6537076Y-10587947D02*
X6537076Y-10606995D01*
X6537076Y-10606995D02*
X6527552Y-10635566D01*
X6527552Y-10635566D02*
X6413266Y-10749852D01*
X6413266Y-10749852D02*
X6537076Y-10749852D01*
X6613266Y-10549852D02*
X6613266Y-10587947D01*
X6689457Y-10549852D02*
X6689457Y-10587947D01*
X6984695Y-10826042D02*
X6975171Y-10816518D01*
X6975171Y-10816518D02*
X6956123Y-10787947D01*
X6956123Y-10787947D02*
X6946600Y-10768899D01*
X6946600Y-10768899D02*
X6937076Y-10740328D01*
X6937076Y-10740328D02*
X6927552Y-10692709D01*
X6927552Y-10692709D02*
X6927552Y-10654614D01*
X6927552Y-10654614D02*
X6937076Y-10606995D01*
X6937076Y-10606995D02*
X6946600Y-10578423D01*
X6946600Y-10578423D02*
X6956123Y-10559376D01*
X6956123Y-10559376D02*
X6975171Y-10530804D01*
X6975171Y-10530804D02*
X6984695Y-10521280D01*
X7146600Y-10616518D02*
X7146600Y-10749852D01*
X7098980Y-10540328D02*
X7051361Y-10683185D01*
X7051361Y-10683185D02*
X7175171Y-10683185D01*
X7232314Y-10549852D02*
X7356123Y-10549852D01*
X7356123Y-10549852D02*
X7289457Y-10626042D01*
X7289457Y-10626042D02*
X7318028Y-10626042D01*
X7318028Y-10626042D02*
X7337076Y-10635566D01*
X7337076Y-10635566D02*
X7346600Y-10645090D01*
X7346600Y-10645090D02*
X7356123Y-10664138D01*
X7356123Y-10664138D02*
X7356123Y-10711757D01*
X7356123Y-10711757D02*
X7346600Y-10730804D01*
X7346600Y-10730804D02*
X7337076Y-10740328D01*
X7337076Y-10740328D02*
X7318028Y-10749852D01*
X7318028Y-10749852D02*
X7260885Y-10749852D01*
X7260885Y-10749852D02*
X7241838Y-10740328D01*
X7241838Y-10740328D02*
X7232314Y-10730804D01*
X7594219Y-10749852D02*
X7594219Y-10549852D01*
X7679933Y-10749852D02*
X7679933Y-10645090D01*
X7679933Y-10645090D02*
X7670409Y-10626042D01*
X7670409Y-10626042D02*
X7651362Y-10616518D01*
X7651362Y-10616518D02*
X7622790Y-10616518D01*
X7622790Y-10616518D02*
X7603742Y-10626042D01*
X7603742Y-10626042D02*
X7594219Y-10635566D01*
X7803742Y-10749852D02*
X7784695Y-10740328D01*
X7784695Y-10740328D02*
X7775171Y-10730804D01*
X7775171Y-10730804D02*
X7765647Y-10711757D01*
X7765647Y-10711757D02*
X7765647Y-10654614D01*
X7765647Y-10654614D02*
X7775171Y-10635566D01*
X7775171Y-10635566D02*
X7784695Y-10626042D01*
X7784695Y-10626042D02*
X7803742Y-10616518D01*
X7803742Y-10616518D02*
X7832314Y-10616518D01*
X7832314Y-10616518D02*
X7851362Y-10626042D01*
X7851362Y-10626042D02*
X7860885Y-10635566D01*
X7860885Y-10635566D02*
X7870409Y-10654614D01*
X7870409Y-10654614D02*
X7870409Y-10711757D01*
X7870409Y-10711757D02*
X7860885Y-10730804D01*
X7860885Y-10730804D02*
X7851362Y-10740328D01*
X7851362Y-10740328D02*
X7832314Y-10749852D01*
X7832314Y-10749852D02*
X7803742Y-10749852D01*
X7984695Y-10749852D02*
X7965647Y-10740328D01*
X7965647Y-10740328D02*
X7956123Y-10721280D01*
X7956123Y-10721280D02*
X7956123Y-10549852D01*
X8137076Y-10740328D02*
X8118028Y-10749852D01*
X8118028Y-10749852D02*
X8079933Y-10749852D01*
X8079933Y-10749852D02*
X8060885Y-10740328D01*
X8060885Y-10740328D02*
X8051362Y-10721280D01*
X8051362Y-10721280D02*
X8051362Y-10645090D01*
X8051362Y-10645090D02*
X8060885Y-10626042D01*
X8060885Y-10626042D02*
X8079933Y-10616518D01*
X8079933Y-10616518D02*
X8118028Y-10616518D01*
X8118028Y-10616518D02*
X8137076Y-10626042D01*
X8137076Y-10626042D02*
X8146600Y-10645090D01*
X8146600Y-10645090D02*
X8146600Y-10664138D01*
X8146600Y-10664138D02*
X8051362Y-10683185D01*
X8222790Y-10740328D02*
X8241838Y-10749852D01*
X8241838Y-10749852D02*
X8279933Y-10749852D01*
X8279933Y-10749852D02*
X8298981Y-10740328D01*
X8298981Y-10740328D02*
X8308504Y-10721280D01*
X8308504Y-10721280D02*
X8308504Y-10711757D01*
X8308504Y-10711757D02*
X8298981Y-10692709D01*
X8298981Y-10692709D02*
X8279933Y-10683185D01*
X8279933Y-10683185D02*
X8251362Y-10683185D01*
X8251362Y-10683185D02*
X8232314Y-10673661D01*
X8232314Y-10673661D02*
X8222790Y-10654614D01*
X8222790Y-10654614D02*
X8222790Y-10645090D01*
X8222790Y-10645090D02*
X8232314Y-10626042D01*
X8232314Y-10626042D02*
X8251362Y-10616518D01*
X8251362Y-10616518D02*
X8279933Y-10616518D01*
X8279933Y-10616518D02*
X8298981Y-10626042D01*
X8375171Y-10826042D02*
X8384695Y-10816518D01*
X8384695Y-10816518D02*
X8403743Y-10787947D01*
X8403743Y-10787947D02*
X8413266Y-10768899D01*
X8413266Y-10768899D02*
X8422790Y-10740328D01*
X8422790Y-10740328D02*
X8432314Y-10692709D01*
X8432314Y-10692709D02*
X8432314Y-10654614D01*
X8432314Y-10654614D02*
X8422790Y-10606995D01*
X8422790Y-10606995D02*
X8413266Y-10578423D01*
X8413266Y-10578423D02*
X8403743Y-10559376D01*
X8403743Y-10559376D02*
X8384695Y-10530804D01*
X8384695Y-10530804D02*
X8375171Y-10521280D01*
M02*
