%TF.GenerationSoftware,KiCad,Pcbnew,9.0.0-9.0.0-2~ubuntu22.04.1*%
%TF.CreationDate,2025-04-08T15:49:19+02:00*%
%TF.ProjectId,eyevolt,65796576-6f6c-4742-9e6b-696361645f70,rev?*%
%TF.SameCoordinates,Original*%
%TF.FileFunction,Drillmap*%
%TF.FilePolarity,Positive*%
%FSLAX45Y45*%
G04 Gerber Fmt 4.5, Leading zero omitted, Abs format (unit mm)*
G04 Created by KiCad (PCBNEW 9.0.0-9.0.0-2~ubuntu22.04.1) date 2025-04-08 15:49:19*
%MOMM*%
%LPD*%
G01*
G04 APERTURE LIST*
%ADD10C,0.050000*%
%ADD11C,0.200000*%
%ADD12C,0.150000*%
%ADD13C,0.180000*%
%ADD14C,0.320000*%
G04 APERTURE END LIST*
D10*
X15637868Y-9187868D02*
X15637868Y-4912132D01*
X15637868Y-9187868D02*
G75*
G02*
X15337868Y-9487868I-299998J-2D01*
G01*
X15337868Y-4612132D02*
G75*
G02*
X15637868Y-4912132I2J-299998D01*
G01*
X3712132Y-9487868D02*
G75*
G02*
X3412132Y-9187868I-2J299998D01*
G01*
X3412132Y-9187868D02*
X3412132Y-4912132D01*
X3412132Y-4912132D02*
G75*
G02*
X3712132Y-4612132I300000J0D01*
G01*
X15337868Y-4612132D02*
X3712132Y-4612132D01*
X3712132Y-9487868D02*
X15337868Y-9487868D01*
D11*
D12*
X3928000Y-6682500D02*
X4078000Y-6832500D01*
X4078000Y-6682500D02*
X3928000Y-6832500D01*
X3928000Y-7167500D02*
X4078000Y-7317500D01*
X4078000Y-7167500D02*
X3928000Y-7317500D01*
D13*
X3790000Y-6727500D02*
G75*
G02*
X3610000Y-6727500I-90000J0D01*
G01*
X3610000Y-6727500D02*
G75*
G02*
X3790000Y-6727500I90000J0D01*
G01*
X3790000Y-7272500D02*
G75*
G02*
X3610000Y-7272500I-90000J0D01*
G01*
X3610000Y-7272500D02*
G75*
G02*
X3790000Y-7272500I90000J0D01*
G01*
D14*
X3800000Y-4840000D02*
X3800000Y-5160000D01*
X3640000Y-5000000D02*
X3960000Y-5000000D01*
X3850000Y-8940000D02*
X3850000Y-9260000D01*
X3690000Y-9100000D02*
X4010000Y-9100000D01*
X15150000Y-4840000D02*
X15150000Y-5160000D01*
X14990000Y-5000000D02*
X15310000Y-5000000D01*
X15150000Y-8940000D02*
X15150000Y-9260000D01*
X14990000Y-9100000D02*
X15310000Y-9100000D01*
D11*
X3670409Y-9801852D02*
X3670409Y-9601852D01*
X3670409Y-9601852D02*
X3718028Y-9601852D01*
X3718028Y-9601852D02*
X3746599Y-9611376D01*
X3746599Y-9611376D02*
X3765647Y-9630423D01*
X3765647Y-9630423D02*
X3775171Y-9649471D01*
X3775171Y-9649471D02*
X3784694Y-9687566D01*
X3784694Y-9687566D02*
X3784694Y-9716138D01*
X3784694Y-9716138D02*
X3775171Y-9754233D01*
X3775171Y-9754233D02*
X3765647Y-9773280D01*
X3765647Y-9773280D02*
X3746599Y-9792328D01*
X3746599Y-9792328D02*
X3718028Y-9801852D01*
X3718028Y-9801852D02*
X3670409Y-9801852D01*
X3870409Y-9801852D02*
X3870409Y-9668518D01*
X3870409Y-9706614D02*
X3879933Y-9687566D01*
X3879933Y-9687566D02*
X3889456Y-9678042D01*
X3889456Y-9678042D02*
X3908504Y-9668518D01*
X3908504Y-9668518D02*
X3927552Y-9668518D01*
X3994218Y-9801852D02*
X3994218Y-9668518D01*
X3994218Y-9601852D02*
X3984694Y-9611376D01*
X3984694Y-9611376D02*
X3994218Y-9620899D01*
X3994218Y-9620899D02*
X4003742Y-9611376D01*
X4003742Y-9611376D02*
X3994218Y-9601852D01*
X3994218Y-9601852D02*
X3994218Y-9620899D01*
X4118028Y-9801852D02*
X4098980Y-9792328D01*
X4098980Y-9792328D02*
X4089456Y-9773280D01*
X4089456Y-9773280D02*
X4089456Y-9601852D01*
X4222790Y-9801852D02*
X4203742Y-9792328D01*
X4203742Y-9792328D02*
X4194218Y-9773280D01*
X4194218Y-9773280D02*
X4194218Y-9601852D01*
X4451361Y-9801852D02*
X4451361Y-9601852D01*
X4451361Y-9601852D02*
X4518028Y-9744709D01*
X4518028Y-9744709D02*
X4584695Y-9601852D01*
X4584695Y-9601852D02*
X4584695Y-9801852D01*
X4765647Y-9801852D02*
X4765647Y-9697090D01*
X4765647Y-9697090D02*
X4756123Y-9678042D01*
X4756123Y-9678042D02*
X4737076Y-9668518D01*
X4737076Y-9668518D02*
X4698980Y-9668518D01*
X4698980Y-9668518D02*
X4679933Y-9678042D01*
X4765647Y-9792328D02*
X4746599Y-9801852D01*
X4746599Y-9801852D02*
X4698980Y-9801852D01*
X4698980Y-9801852D02*
X4679933Y-9792328D01*
X4679933Y-9792328D02*
X4670409Y-9773280D01*
X4670409Y-9773280D02*
X4670409Y-9754233D01*
X4670409Y-9754233D02*
X4679933Y-9735185D01*
X4679933Y-9735185D02*
X4698980Y-9725661D01*
X4698980Y-9725661D02*
X4746599Y-9725661D01*
X4746599Y-9725661D02*
X4765647Y-9716138D01*
X4860885Y-9668518D02*
X4860885Y-9868518D01*
X4860885Y-9678042D02*
X4879933Y-9668518D01*
X4879933Y-9668518D02*
X4918028Y-9668518D01*
X4918028Y-9668518D02*
X4937076Y-9678042D01*
X4937076Y-9678042D02*
X4946599Y-9687566D01*
X4946599Y-9687566D02*
X4956123Y-9706614D01*
X4956123Y-9706614D02*
X4956123Y-9763757D01*
X4956123Y-9763757D02*
X4946599Y-9782804D01*
X4946599Y-9782804D02*
X4937076Y-9792328D01*
X4937076Y-9792328D02*
X4918028Y-9801852D01*
X4918028Y-9801852D02*
X4879933Y-9801852D01*
X4879933Y-9801852D02*
X4860885Y-9792328D01*
X5041837Y-9782804D02*
X5051361Y-9792328D01*
X5051361Y-9792328D02*
X5041837Y-9801852D01*
X5041837Y-9801852D02*
X5032314Y-9792328D01*
X5032314Y-9792328D02*
X5041837Y-9782804D01*
X5041837Y-9782804D02*
X5041837Y-9801852D01*
X5041837Y-9678042D02*
X5051361Y-9687566D01*
X5051361Y-9687566D02*
X5041837Y-9697090D01*
X5041837Y-9697090D02*
X5032314Y-9687566D01*
X5032314Y-9687566D02*
X5041837Y-9678042D01*
X5041837Y-9678042D02*
X5041837Y-9697090D01*
D12*
X3259632Y-10055368D02*
X3409632Y-10205368D01*
X3409632Y-10055368D02*
X3259632Y-10205368D01*
D11*
X3775171Y-10221852D02*
X3660885Y-10221852D01*
X3718028Y-10221852D02*
X3718028Y-10021852D01*
X3718028Y-10021852D02*
X3698980Y-10050423D01*
X3698980Y-10050423D02*
X3679933Y-10069471D01*
X3679933Y-10069471D02*
X3660885Y-10078995D01*
X3860885Y-10202804D02*
X3870409Y-10212328D01*
X3870409Y-10212328D02*
X3860885Y-10221852D01*
X3860885Y-10221852D02*
X3851361Y-10212328D01*
X3851361Y-10212328D02*
X3860885Y-10202804D01*
X3860885Y-10202804D02*
X3860885Y-10221852D01*
X4051361Y-10021852D02*
X3956123Y-10021852D01*
X3956123Y-10021852D02*
X3946599Y-10117090D01*
X3946599Y-10117090D02*
X3956123Y-10107566D01*
X3956123Y-10107566D02*
X3975171Y-10098042D01*
X3975171Y-10098042D02*
X4022790Y-10098042D01*
X4022790Y-10098042D02*
X4041837Y-10107566D01*
X4041837Y-10107566D02*
X4051361Y-10117090D01*
X4051361Y-10117090D02*
X4060885Y-10136138D01*
X4060885Y-10136138D02*
X4060885Y-10183757D01*
X4060885Y-10183757D02*
X4051361Y-10202804D01*
X4051361Y-10202804D02*
X4041837Y-10212328D01*
X4041837Y-10212328D02*
X4022790Y-10221852D01*
X4022790Y-10221852D02*
X3975171Y-10221852D01*
X3975171Y-10221852D02*
X3956123Y-10212328D01*
X3956123Y-10212328D02*
X3946599Y-10202804D01*
X4184694Y-10021852D02*
X4203742Y-10021852D01*
X4203742Y-10021852D02*
X4222790Y-10031376D01*
X4222790Y-10031376D02*
X4232314Y-10040899D01*
X4232314Y-10040899D02*
X4241837Y-10059947D01*
X4241837Y-10059947D02*
X4251361Y-10098042D01*
X4251361Y-10098042D02*
X4251361Y-10145661D01*
X4251361Y-10145661D02*
X4241837Y-10183757D01*
X4241837Y-10183757D02*
X4232314Y-10202804D01*
X4232314Y-10202804D02*
X4222790Y-10212328D01*
X4222790Y-10212328D02*
X4203742Y-10221852D01*
X4203742Y-10221852D02*
X4184694Y-10221852D01*
X4184694Y-10221852D02*
X4165647Y-10212328D01*
X4165647Y-10212328D02*
X4156123Y-10202804D01*
X4156123Y-10202804D02*
X4146599Y-10183757D01*
X4146599Y-10183757D02*
X4137075Y-10145661D01*
X4137075Y-10145661D02*
X4137075Y-10098042D01*
X4137075Y-10098042D02*
X4146599Y-10059947D01*
X4146599Y-10059947D02*
X4156123Y-10040899D01*
X4156123Y-10040899D02*
X4165647Y-10031376D01*
X4165647Y-10031376D02*
X4184694Y-10021852D01*
X4375171Y-10021852D02*
X4394218Y-10021852D01*
X4394218Y-10021852D02*
X4413266Y-10031376D01*
X4413266Y-10031376D02*
X4422790Y-10040899D01*
X4422790Y-10040899D02*
X4432314Y-10059947D01*
X4432314Y-10059947D02*
X4441837Y-10098042D01*
X4441837Y-10098042D02*
X4441837Y-10145661D01*
X4441837Y-10145661D02*
X4432314Y-10183757D01*
X4432314Y-10183757D02*
X4422790Y-10202804D01*
X4422790Y-10202804D02*
X4413266Y-10212328D01*
X4413266Y-10212328D02*
X4394218Y-10221852D01*
X4394218Y-10221852D02*
X4375171Y-10221852D01*
X4375171Y-10221852D02*
X4356123Y-10212328D01*
X4356123Y-10212328D02*
X4346599Y-10202804D01*
X4346599Y-10202804D02*
X4337076Y-10183757D01*
X4337076Y-10183757D02*
X4327552Y-10145661D01*
X4327552Y-10145661D02*
X4327552Y-10098042D01*
X4327552Y-10098042D02*
X4337076Y-10059947D01*
X4337076Y-10059947D02*
X4346599Y-10040899D01*
X4346599Y-10040899D02*
X4356123Y-10031376D01*
X4356123Y-10031376D02*
X4375171Y-10021852D01*
X4527552Y-10221852D02*
X4527552Y-10088518D01*
X4527552Y-10107566D02*
X4537076Y-10098042D01*
X4537076Y-10098042D02*
X4556123Y-10088518D01*
X4556123Y-10088518D02*
X4584695Y-10088518D01*
X4584695Y-10088518D02*
X4603742Y-10098042D01*
X4603742Y-10098042D02*
X4613266Y-10117090D01*
X4613266Y-10117090D02*
X4613266Y-10221852D01*
X4613266Y-10117090D02*
X4622790Y-10098042D01*
X4622790Y-10098042D02*
X4641837Y-10088518D01*
X4641837Y-10088518D02*
X4670409Y-10088518D01*
X4670409Y-10088518D02*
X4689457Y-10098042D01*
X4689457Y-10098042D02*
X4698980Y-10117090D01*
X4698980Y-10117090D02*
X4698980Y-10221852D01*
X4794218Y-10221852D02*
X4794218Y-10088518D01*
X4794218Y-10107566D02*
X4803742Y-10098042D01*
X4803742Y-10098042D02*
X4822790Y-10088518D01*
X4822790Y-10088518D02*
X4851361Y-10088518D01*
X4851361Y-10088518D02*
X4870409Y-10098042D01*
X4870409Y-10098042D02*
X4879933Y-10117090D01*
X4879933Y-10117090D02*
X4879933Y-10221852D01*
X4879933Y-10117090D02*
X4889457Y-10098042D01*
X4889457Y-10098042D02*
X4908504Y-10088518D01*
X4908504Y-10088518D02*
X4937076Y-10088518D01*
X4937076Y-10088518D02*
X4956123Y-10098042D01*
X4956123Y-10098042D02*
X4965647Y-10117090D01*
X4965647Y-10117090D02*
X4965647Y-10221852D01*
X5356123Y-10012328D02*
X5184695Y-10269471D01*
X5613266Y-10021852D02*
X5632314Y-10021852D01*
X5632314Y-10021852D02*
X5651361Y-10031376D01*
X5651361Y-10031376D02*
X5660885Y-10040899D01*
X5660885Y-10040899D02*
X5670409Y-10059947D01*
X5670409Y-10059947D02*
X5679933Y-10098042D01*
X5679933Y-10098042D02*
X5679933Y-10145661D01*
X5679933Y-10145661D02*
X5670409Y-10183757D01*
X5670409Y-10183757D02*
X5660885Y-10202804D01*
X5660885Y-10202804D02*
X5651361Y-10212328D01*
X5651361Y-10212328D02*
X5632314Y-10221852D01*
X5632314Y-10221852D02*
X5613266Y-10221852D01*
X5613266Y-10221852D02*
X5594218Y-10212328D01*
X5594218Y-10212328D02*
X5584695Y-10202804D01*
X5584695Y-10202804D02*
X5575171Y-10183757D01*
X5575171Y-10183757D02*
X5565647Y-10145661D01*
X5565647Y-10145661D02*
X5565647Y-10098042D01*
X5565647Y-10098042D02*
X5575171Y-10059947D01*
X5575171Y-10059947D02*
X5584695Y-10040899D01*
X5584695Y-10040899D02*
X5594218Y-10031376D01*
X5594218Y-10031376D02*
X5613266Y-10021852D01*
X5765647Y-10202804D02*
X5775171Y-10212328D01*
X5775171Y-10212328D02*
X5765647Y-10221852D01*
X5765647Y-10221852D02*
X5756123Y-10212328D01*
X5756123Y-10212328D02*
X5765647Y-10202804D01*
X5765647Y-10202804D02*
X5765647Y-10221852D01*
X5898980Y-10021852D02*
X5918028Y-10021852D01*
X5918028Y-10021852D02*
X5937076Y-10031376D01*
X5937076Y-10031376D02*
X5946599Y-10040899D01*
X5946599Y-10040899D02*
X5956123Y-10059947D01*
X5956123Y-10059947D02*
X5965647Y-10098042D01*
X5965647Y-10098042D02*
X5965647Y-10145661D01*
X5965647Y-10145661D02*
X5956123Y-10183757D01*
X5956123Y-10183757D02*
X5946599Y-10202804D01*
X5946599Y-10202804D02*
X5937076Y-10212328D01*
X5937076Y-10212328D02*
X5918028Y-10221852D01*
X5918028Y-10221852D02*
X5898980Y-10221852D01*
X5898980Y-10221852D02*
X5879933Y-10212328D01*
X5879933Y-10212328D02*
X5870409Y-10202804D01*
X5870409Y-10202804D02*
X5860885Y-10183757D01*
X5860885Y-10183757D02*
X5851361Y-10145661D01*
X5851361Y-10145661D02*
X5851361Y-10098042D01*
X5851361Y-10098042D02*
X5860885Y-10059947D01*
X5860885Y-10059947D02*
X5870409Y-10040899D01*
X5870409Y-10040899D02*
X5879933Y-10031376D01*
X5879933Y-10031376D02*
X5898980Y-10021852D01*
X6146599Y-10021852D02*
X6051361Y-10021852D01*
X6051361Y-10021852D02*
X6041838Y-10117090D01*
X6041838Y-10117090D02*
X6051361Y-10107566D01*
X6051361Y-10107566D02*
X6070409Y-10098042D01*
X6070409Y-10098042D02*
X6118028Y-10098042D01*
X6118028Y-10098042D02*
X6137076Y-10107566D01*
X6137076Y-10107566D02*
X6146599Y-10117090D01*
X6146599Y-10117090D02*
X6156123Y-10136138D01*
X6156123Y-10136138D02*
X6156123Y-10183757D01*
X6156123Y-10183757D02*
X6146599Y-10202804D01*
X6146599Y-10202804D02*
X6137076Y-10212328D01*
X6137076Y-10212328D02*
X6118028Y-10221852D01*
X6118028Y-10221852D02*
X6070409Y-10221852D01*
X6070409Y-10221852D02*
X6051361Y-10212328D01*
X6051361Y-10212328D02*
X6041838Y-10202804D01*
X6251361Y-10221852D02*
X6289457Y-10221852D01*
X6289457Y-10221852D02*
X6308504Y-10212328D01*
X6308504Y-10212328D02*
X6318028Y-10202804D01*
X6318028Y-10202804D02*
X6337076Y-10174233D01*
X6337076Y-10174233D02*
X6346599Y-10136138D01*
X6346599Y-10136138D02*
X6346599Y-10059947D01*
X6346599Y-10059947D02*
X6337076Y-10040899D01*
X6337076Y-10040899D02*
X6327552Y-10031376D01*
X6327552Y-10031376D02*
X6308504Y-10021852D01*
X6308504Y-10021852D02*
X6270409Y-10021852D01*
X6270409Y-10021852D02*
X6251361Y-10031376D01*
X6251361Y-10031376D02*
X6241838Y-10040899D01*
X6241838Y-10040899D02*
X6232314Y-10059947D01*
X6232314Y-10059947D02*
X6232314Y-10107566D01*
X6232314Y-10107566D02*
X6241838Y-10126614D01*
X6241838Y-10126614D02*
X6251361Y-10136138D01*
X6251361Y-10136138D02*
X6270409Y-10145661D01*
X6270409Y-10145661D02*
X6308504Y-10145661D01*
X6308504Y-10145661D02*
X6327552Y-10136138D01*
X6327552Y-10136138D02*
X6337076Y-10126614D01*
X6337076Y-10126614D02*
X6346599Y-10107566D01*
X6537076Y-10221852D02*
X6422790Y-10221852D01*
X6479933Y-10221852D02*
X6479933Y-10021852D01*
X6479933Y-10021852D02*
X6460885Y-10050423D01*
X6460885Y-10050423D02*
X6441838Y-10069471D01*
X6441838Y-10069471D02*
X6422790Y-10078995D01*
X6613266Y-10021852D02*
X6613266Y-10059947D01*
X6689457Y-10021852D02*
X6689457Y-10059947D01*
X6984695Y-10298042D02*
X6975171Y-10288518D01*
X6975171Y-10288518D02*
X6956123Y-10259947D01*
X6956123Y-10259947D02*
X6946600Y-10240899D01*
X6946600Y-10240899D02*
X6937076Y-10212328D01*
X6937076Y-10212328D02*
X6927552Y-10164709D01*
X6927552Y-10164709D02*
X6927552Y-10126614D01*
X6927552Y-10126614D02*
X6937076Y-10078995D01*
X6937076Y-10078995D02*
X6946600Y-10050423D01*
X6946600Y-10050423D02*
X6956123Y-10031376D01*
X6956123Y-10031376D02*
X6975171Y-10002804D01*
X6975171Y-10002804D02*
X6984695Y-9993280D01*
X7051361Y-10040899D02*
X7060885Y-10031376D01*
X7060885Y-10031376D02*
X7079933Y-10021852D01*
X7079933Y-10021852D02*
X7127552Y-10021852D01*
X7127552Y-10021852D02*
X7146600Y-10031376D01*
X7146600Y-10031376D02*
X7156123Y-10040899D01*
X7156123Y-10040899D02*
X7165647Y-10059947D01*
X7165647Y-10059947D02*
X7165647Y-10078995D01*
X7165647Y-10078995D02*
X7156123Y-10107566D01*
X7156123Y-10107566D02*
X7041838Y-10221852D01*
X7041838Y-10221852D02*
X7165647Y-10221852D01*
X7403742Y-10221852D02*
X7403742Y-10021852D01*
X7489457Y-10221852D02*
X7489457Y-10117090D01*
X7489457Y-10117090D02*
X7479933Y-10098042D01*
X7479933Y-10098042D02*
X7460885Y-10088518D01*
X7460885Y-10088518D02*
X7432314Y-10088518D01*
X7432314Y-10088518D02*
X7413266Y-10098042D01*
X7413266Y-10098042D02*
X7403742Y-10107566D01*
X7613266Y-10221852D02*
X7594219Y-10212328D01*
X7594219Y-10212328D02*
X7584695Y-10202804D01*
X7584695Y-10202804D02*
X7575171Y-10183757D01*
X7575171Y-10183757D02*
X7575171Y-10126614D01*
X7575171Y-10126614D02*
X7584695Y-10107566D01*
X7584695Y-10107566D02*
X7594219Y-10098042D01*
X7594219Y-10098042D02*
X7613266Y-10088518D01*
X7613266Y-10088518D02*
X7641838Y-10088518D01*
X7641838Y-10088518D02*
X7660885Y-10098042D01*
X7660885Y-10098042D02*
X7670409Y-10107566D01*
X7670409Y-10107566D02*
X7679933Y-10126614D01*
X7679933Y-10126614D02*
X7679933Y-10183757D01*
X7679933Y-10183757D02*
X7670409Y-10202804D01*
X7670409Y-10202804D02*
X7660885Y-10212328D01*
X7660885Y-10212328D02*
X7641838Y-10221852D01*
X7641838Y-10221852D02*
X7613266Y-10221852D01*
X7794219Y-10221852D02*
X7775171Y-10212328D01*
X7775171Y-10212328D02*
X7765647Y-10193280D01*
X7765647Y-10193280D02*
X7765647Y-10021852D01*
X7946600Y-10212328D02*
X7927552Y-10221852D01*
X7927552Y-10221852D02*
X7889457Y-10221852D01*
X7889457Y-10221852D02*
X7870409Y-10212328D01*
X7870409Y-10212328D02*
X7860885Y-10193280D01*
X7860885Y-10193280D02*
X7860885Y-10117090D01*
X7860885Y-10117090D02*
X7870409Y-10098042D01*
X7870409Y-10098042D02*
X7889457Y-10088518D01*
X7889457Y-10088518D02*
X7927552Y-10088518D01*
X7927552Y-10088518D02*
X7946600Y-10098042D01*
X7946600Y-10098042D02*
X7956123Y-10117090D01*
X7956123Y-10117090D02*
X7956123Y-10136138D01*
X7956123Y-10136138D02*
X7860885Y-10155185D01*
X8032314Y-10212328D02*
X8051362Y-10221852D01*
X8051362Y-10221852D02*
X8089457Y-10221852D01*
X8089457Y-10221852D02*
X8108504Y-10212328D01*
X8108504Y-10212328D02*
X8118028Y-10193280D01*
X8118028Y-10193280D02*
X8118028Y-10183757D01*
X8118028Y-10183757D02*
X8108504Y-10164709D01*
X8108504Y-10164709D02*
X8089457Y-10155185D01*
X8089457Y-10155185D02*
X8060885Y-10155185D01*
X8060885Y-10155185D02*
X8041838Y-10145661D01*
X8041838Y-10145661D02*
X8032314Y-10126614D01*
X8032314Y-10126614D02*
X8032314Y-10117090D01*
X8032314Y-10117090D02*
X8041838Y-10098042D01*
X8041838Y-10098042D02*
X8060885Y-10088518D01*
X8060885Y-10088518D02*
X8089457Y-10088518D01*
X8089457Y-10088518D02*
X8108504Y-10098042D01*
X8184695Y-10298042D02*
X8194219Y-10288518D01*
X8194219Y-10288518D02*
X8213266Y-10259947D01*
X8213266Y-10259947D02*
X8222790Y-10240899D01*
X8222790Y-10240899D02*
X8232314Y-10212328D01*
X8232314Y-10212328D02*
X8241838Y-10164709D01*
X8241838Y-10164709D02*
X8241838Y-10126614D01*
X8241838Y-10126614D02*
X8232314Y-10078995D01*
X8232314Y-10078995D02*
X8222790Y-10050423D01*
X8222790Y-10050423D02*
X8213266Y-10031376D01*
X8213266Y-10031376D02*
X8194219Y-10002804D01*
X8194219Y-10002804D02*
X8184695Y-9993280D01*
X8546600Y-10298042D02*
X8537076Y-10288518D01*
X8537076Y-10288518D02*
X8518028Y-10259947D01*
X8518028Y-10259947D02*
X8508505Y-10240899D01*
X8508505Y-10240899D02*
X8498981Y-10212328D01*
X8498981Y-10212328D02*
X8489457Y-10164709D01*
X8489457Y-10164709D02*
X8489457Y-10126614D01*
X8489457Y-10126614D02*
X8498981Y-10078995D01*
X8498981Y-10078995D02*
X8508505Y-10050423D01*
X8508505Y-10050423D02*
X8518028Y-10031376D01*
X8518028Y-10031376D02*
X8537076Y-10002804D01*
X8537076Y-10002804D02*
X8546600Y-9993280D01*
X8622790Y-10088518D02*
X8622790Y-10221852D01*
X8622790Y-10107566D02*
X8632314Y-10098042D01*
X8632314Y-10098042D02*
X8651362Y-10088518D01*
X8651362Y-10088518D02*
X8679933Y-10088518D01*
X8679933Y-10088518D02*
X8698981Y-10098042D01*
X8698981Y-10098042D02*
X8708505Y-10117090D01*
X8708505Y-10117090D02*
X8708505Y-10221852D01*
X8832314Y-10221852D02*
X8813266Y-10212328D01*
X8813266Y-10212328D02*
X8803743Y-10202804D01*
X8803743Y-10202804D02*
X8794219Y-10183757D01*
X8794219Y-10183757D02*
X8794219Y-10126614D01*
X8794219Y-10126614D02*
X8803743Y-10107566D01*
X8803743Y-10107566D02*
X8813266Y-10098042D01*
X8813266Y-10098042D02*
X8832314Y-10088518D01*
X8832314Y-10088518D02*
X8860886Y-10088518D01*
X8860886Y-10088518D02*
X8879933Y-10098042D01*
X8879933Y-10098042D02*
X8889457Y-10107566D01*
X8889457Y-10107566D02*
X8898981Y-10126614D01*
X8898981Y-10126614D02*
X8898981Y-10183757D01*
X8898981Y-10183757D02*
X8889457Y-10202804D01*
X8889457Y-10202804D02*
X8879933Y-10212328D01*
X8879933Y-10212328D02*
X8860886Y-10221852D01*
X8860886Y-10221852D02*
X8832314Y-10221852D01*
X8956124Y-10088518D02*
X9032314Y-10088518D01*
X8984695Y-10021852D02*
X8984695Y-10193280D01*
X8984695Y-10193280D02*
X8994219Y-10212328D01*
X8994219Y-10212328D02*
X9013266Y-10221852D01*
X9013266Y-10221852D02*
X9032314Y-10221852D01*
X9251362Y-10088518D02*
X9251362Y-10288518D01*
X9251362Y-10098042D02*
X9270409Y-10088518D01*
X9270409Y-10088518D02*
X9308505Y-10088518D01*
X9308505Y-10088518D02*
X9327552Y-10098042D01*
X9327552Y-10098042D02*
X9337076Y-10107566D01*
X9337076Y-10107566D02*
X9346600Y-10126614D01*
X9346600Y-10126614D02*
X9346600Y-10183757D01*
X9346600Y-10183757D02*
X9337076Y-10202804D01*
X9337076Y-10202804D02*
X9327552Y-10212328D01*
X9327552Y-10212328D02*
X9308505Y-10221852D01*
X9308505Y-10221852D02*
X9270409Y-10221852D01*
X9270409Y-10221852D02*
X9251362Y-10212328D01*
X9460886Y-10221852D02*
X9441838Y-10212328D01*
X9441838Y-10212328D02*
X9432314Y-10193280D01*
X9432314Y-10193280D02*
X9432314Y-10021852D01*
X9622790Y-10221852D02*
X9622790Y-10117090D01*
X9622790Y-10117090D02*
X9613267Y-10098042D01*
X9613267Y-10098042D02*
X9594219Y-10088518D01*
X9594219Y-10088518D02*
X9556124Y-10088518D01*
X9556124Y-10088518D02*
X9537076Y-10098042D01*
X9622790Y-10212328D02*
X9603743Y-10221852D01*
X9603743Y-10221852D02*
X9556124Y-10221852D01*
X9556124Y-10221852D02*
X9537076Y-10212328D01*
X9537076Y-10212328D02*
X9527552Y-10193280D01*
X9527552Y-10193280D02*
X9527552Y-10174233D01*
X9527552Y-10174233D02*
X9537076Y-10155185D01*
X9537076Y-10155185D02*
X9556124Y-10145661D01*
X9556124Y-10145661D02*
X9603743Y-10145661D01*
X9603743Y-10145661D02*
X9622790Y-10136138D01*
X9689457Y-10088518D02*
X9765647Y-10088518D01*
X9718028Y-10021852D02*
X9718028Y-10193280D01*
X9718028Y-10193280D02*
X9727552Y-10212328D01*
X9727552Y-10212328D02*
X9746600Y-10221852D01*
X9746600Y-10221852D02*
X9765647Y-10221852D01*
X9908505Y-10212328D02*
X9889457Y-10221852D01*
X9889457Y-10221852D02*
X9851362Y-10221852D01*
X9851362Y-10221852D02*
X9832314Y-10212328D01*
X9832314Y-10212328D02*
X9822790Y-10193280D01*
X9822790Y-10193280D02*
X9822790Y-10117090D01*
X9822790Y-10117090D02*
X9832314Y-10098042D01*
X9832314Y-10098042D02*
X9851362Y-10088518D01*
X9851362Y-10088518D02*
X9889457Y-10088518D01*
X9889457Y-10088518D02*
X9908505Y-10098042D01*
X9908505Y-10098042D02*
X9918028Y-10117090D01*
X9918028Y-10117090D02*
X9918028Y-10136138D01*
X9918028Y-10136138D02*
X9822790Y-10155185D01*
X10089457Y-10221852D02*
X10089457Y-10021852D01*
X10089457Y-10212328D02*
X10070409Y-10221852D01*
X10070409Y-10221852D02*
X10032314Y-10221852D01*
X10032314Y-10221852D02*
X10013267Y-10212328D01*
X10013267Y-10212328D02*
X10003743Y-10202804D01*
X10003743Y-10202804D02*
X9994219Y-10183757D01*
X9994219Y-10183757D02*
X9994219Y-10126614D01*
X9994219Y-10126614D02*
X10003743Y-10107566D01*
X10003743Y-10107566D02*
X10013267Y-10098042D01*
X10013267Y-10098042D02*
X10032314Y-10088518D01*
X10032314Y-10088518D02*
X10070409Y-10088518D01*
X10070409Y-10088518D02*
X10089457Y-10098042D01*
X10165648Y-10298042D02*
X10175171Y-10288518D01*
X10175171Y-10288518D02*
X10194219Y-10259947D01*
X10194219Y-10259947D02*
X10203743Y-10240899D01*
X10203743Y-10240899D02*
X10213267Y-10212328D01*
X10213267Y-10212328D02*
X10222790Y-10164709D01*
X10222790Y-10164709D02*
X10222790Y-10126614D01*
X10222790Y-10126614D02*
X10213267Y-10078995D01*
X10213267Y-10078995D02*
X10203743Y-10050423D01*
X10203743Y-10050423D02*
X10194219Y-10031376D01*
X10194219Y-10031376D02*
X10175171Y-10002804D01*
X10175171Y-10002804D02*
X10165648Y-9993280D01*
D13*
X3409632Y-10400368D02*
G75*
G02*
X3229632Y-10400368I-90000J0D01*
G01*
X3229632Y-10400368D02*
G75*
G02*
X3409632Y-10400368I90000J0D01*
G01*
D11*
X3775171Y-10491852D02*
X3660885Y-10491852D01*
X3718028Y-10491852D02*
X3718028Y-10291852D01*
X3718028Y-10291852D02*
X3698980Y-10320423D01*
X3698980Y-10320423D02*
X3679933Y-10339471D01*
X3679933Y-10339471D02*
X3660885Y-10348995D01*
X3860885Y-10472804D02*
X3870409Y-10482328D01*
X3870409Y-10482328D02*
X3860885Y-10491852D01*
X3860885Y-10491852D02*
X3851361Y-10482328D01*
X3851361Y-10482328D02*
X3860885Y-10472804D01*
X3860885Y-10472804D02*
X3860885Y-10491852D01*
X3984694Y-10377566D02*
X3965647Y-10368042D01*
X3965647Y-10368042D02*
X3956123Y-10358518D01*
X3956123Y-10358518D02*
X3946599Y-10339471D01*
X3946599Y-10339471D02*
X3946599Y-10329947D01*
X3946599Y-10329947D02*
X3956123Y-10310899D01*
X3956123Y-10310899D02*
X3965647Y-10301376D01*
X3965647Y-10301376D02*
X3984694Y-10291852D01*
X3984694Y-10291852D02*
X4022790Y-10291852D01*
X4022790Y-10291852D02*
X4041837Y-10301376D01*
X4041837Y-10301376D02*
X4051361Y-10310899D01*
X4051361Y-10310899D02*
X4060885Y-10329947D01*
X4060885Y-10329947D02*
X4060885Y-10339471D01*
X4060885Y-10339471D02*
X4051361Y-10358518D01*
X4051361Y-10358518D02*
X4041837Y-10368042D01*
X4041837Y-10368042D02*
X4022790Y-10377566D01*
X4022790Y-10377566D02*
X3984694Y-10377566D01*
X3984694Y-10377566D02*
X3965647Y-10387090D01*
X3965647Y-10387090D02*
X3956123Y-10396614D01*
X3956123Y-10396614D02*
X3946599Y-10415661D01*
X3946599Y-10415661D02*
X3946599Y-10453757D01*
X3946599Y-10453757D02*
X3956123Y-10472804D01*
X3956123Y-10472804D02*
X3965647Y-10482328D01*
X3965647Y-10482328D02*
X3984694Y-10491852D01*
X3984694Y-10491852D02*
X4022790Y-10491852D01*
X4022790Y-10491852D02*
X4041837Y-10482328D01*
X4041837Y-10482328D02*
X4051361Y-10472804D01*
X4051361Y-10472804D02*
X4060885Y-10453757D01*
X4060885Y-10453757D02*
X4060885Y-10415661D01*
X4060885Y-10415661D02*
X4051361Y-10396614D01*
X4051361Y-10396614D02*
X4041837Y-10387090D01*
X4041837Y-10387090D02*
X4022790Y-10377566D01*
X4184694Y-10291852D02*
X4203742Y-10291852D01*
X4203742Y-10291852D02*
X4222790Y-10301376D01*
X4222790Y-10301376D02*
X4232314Y-10310899D01*
X4232314Y-10310899D02*
X4241837Y-10329947D01*
X4241837Y-10329947D02*
X4251361Y-10368042D01*
X4251361Y-10368042D02*
X4251361Y-10415661D01*
X4251361Y-10415661D02*
X4241837Y-10453757D01*
X4241837Y-10453757D02*
X4232314Y-10472804D01*
X4232314Y-10472804D02*
X4222790Y-10482328D01*
X4222790Y-10482328D02*
X4203742Y-10491852D01*
X4203742Y-10491852D02*
X4184694Y-10491852D01*
X4184694Y-10491852D02*
X4165647Y-10482328D01*
X4165647Y-10482328D02*
X4156123Y-10472804D01*
X4156123Y-10472804D02*
X4146599Y-10453757D01*
X4146599Y-10453757D02*
X4137075Y-10415661D01*
X4137075Y-10415661D02*
X4137075Y-10368042D01*
X4137075Y-10368042D02*
X4146599Y-10329947D01*
X4146599Y-10329947D02*
X4156123Y-10310899D01*
X4156123Y-10310899D02*
X4165647Y-10301376D01*
X4165647Y-10301376D02*
X4184694Y-10291852D01*
X4375171Y-10291852D02*
X4394218Y-10291852D01*
X4394218Y-10291852D02*
X4413266Y-10301376D01*
X4413266Y-10301376D02*
X4422790Y-10310899D01*
X4422790Y-10310899D02*
X4432314Y-10329947D01*
X4432314Y-10329947D02*
X4441837Y-10368042D01*
X4441837Y-10368042D02*
X4441837Y-10415661D01*
X4441837Y-10415661D02*
X4432314Y-10453757D01*
X4432314Y-10453757D02*
X4422790Y-10472804D01*
X4422790Y-10472804D02*
X4413266Y-10482328D01*
X4413266Y-10482328D02*
X4394218Y-10491852D01*
X4394218Y-10491852D02*
X4375171Y-10491852D01*
X4375171Y-10491852D02*
X4356123Y-10482328D01*
X4356123Y-10482328D02*
X4346599Y-10472804D01*
X4346599Y-10472804D02*
X4337076Y-10453757D01*
X4337076Y-10453757D02*
X4327552Y-10415661D01*
X4327552Y-10415661D02*
X4327552Y-10368042D01*
X4327552Y-10368042D02*
X4337076Y-10329947D01*
X4337076Y-10329947D02*
X4346599Y-10310899D01*
X4346599Y-10310899D02*
X4356123Y-10301376D01*
X4356123Y-10301376D02*
X4375171Y-10291852D01*
X4527552Y-10491852D02*
X4527552Y-10358518D01*
X4527552Y-10377566D02*
X4537076Y-10368042D01*
X4537076Y-10368042D02*
X4556123Y-10358518D01*
X4556123Y-10358518D02*
X4584695Y-10358518D01*
X4584695Y-10358518D02*
X4603742Y-10368042D01*
X4603742Y-10368042D02*
X4613266Y-10387090D01*
X4613266Y-10387090D02*
X4613266Y-10491852D01*
X4613266Y-10387090D02*
X4622790Y-10368042D01*
X4622790Y-10368042D02*
X4641837Y-10358518D01*
X4641837Y-10358518D02*
X4670409Y-10358518D01*
X4670409Y-10358518D02*
X4689457Y-10368042D01*
X4689457Y-10368042D02*
X4698980Y-10387090D01*
X4698980Y-10387090D02*
X4698980Y-10491852D01*
X4794218Y-10491852D02*
X4794218Y-10358518D01*
X4794218Y-10377566D02*
X4803742Y-10368042D01*
X4803742Y-10368042D02*
X4822790Y-10358518D01*
X4822790Y-10358518D02*
X4851361Y-10358518D01*
X4851361Y-10358518D02*
X4870409Y-10368042D01*
X4870409Y-10368042D02*
X4879933Y-10387090D01*
X4879933Y-10387090D02*
X4879933Y-10491852D01*
X4879933Y-10387090D02*
X4889457Y-10368042D01*
X4889457Y-10368042D02*
X4908504Y-10358518D01*
X4908504Y-10358518D02*
X4937076Y-10358518D01*
X4937076Y-10358518D02*
X4956123Y-10368042D01*
X4956123Y-10368042D02*
X4965647Y-10387090D01*
X4965647Y-10387090D02*
X4965647Y-10491852D01*
X5356123Y-10282328D02*
X5184695Y-10539471D01*
X5613266Y-10291852D02*
X5632314Y-10291852D01*
X5632314Y-10291852D02*
X5651361Y-10301376D01*
X5651361Y-10301376D02*
X5660885Y-10310899D01*
X5660885Y-10310899D02*
X5670409Y-10329947D01*
X5670409Y-10329947D02*
X5679933Y-10368042D01*
X5679933Y-10368042D02*
X5679933Y-10415661D01*
X5679933Y-10415661D02*
X5670409Y-10453757D01*
X5670409Y-10453757D02*
X5660885Y-10472804D01*
X5660885Y-10472804D02*
X5651361Y-10482328D01*
X5651361Y-10482328D02*
X5632314Y-10491852D01*
X5632314Y-10491852D02*
X5613266Y-10491852D01*
X5613266Y-10491852D02*
X5594218Y-10482328D01*
X5594218Y-10482328D02*
X5584695Y-10472804D01*
X5584695Y-10472804D02*
X5575171Y-10453757D01*
X5575171Y-10453757D02*
X5565647Y-10415661D01*
X5565647Y-10415661D02*
X5565647Y-10368042D01*
X5565647Y-10368042D02*
X5575171Y-10329947D01*
X5575171Y-10329947D02*
X5584695Y-10310899D01*
X5584695Y-10310899D02*
X5594218Y-10301376D01*
X5594218Y-10301376D02*
X5613266Y-10291852D01*
X5765647Y-10472804D02*
X5775171Y-10482328D01*
X5775171Y-10482328D02*
X5765647Y-10491852D01*
X5765647Y-10491852D02*
X5756123Y-10482328D01*
X5756123Y-10482328D02*
X5765647Y-10472804D01*
X5765647Y-10472804D02*
X5765647Y-10491852D01*
X5898980Y-10291852D02*
X5918028Y-10291852D01*
X5918028Y-10291852D02*
X5937076Y-10301376D01*
X5937076Y-10301376D02*
X5946599Y-10310899D01*
X5946599Y-10310899D02*
X5956123Y-10329947D01*
X5956123Y-10329947D02*
X5965647Y-10368042D01*
X5965647Y-10368042D02*
X5965647Y-10415661D01*
X5965647Y-10415661D02*
X5956123Y-10453757D01*
X5956123Y-10453757D02*
X5946599Y-10472804D01*
X5946599Y-10472804D02*
X5937076Y-10482328D01*
X5937076Y-10482328D02*
X5918028Y-10491852D01*
X5918028Y-10491852D02*
X5898980Y-10491852D01*
X5898980Y-10491852D02*
X5879933Y-10482328D01*
X5879933Y-10482328D02*
X5870409Y-10472804D01*
X5870409Y-10472804D02*
X5860885Y-10453757D01*
X5860885Y-10453757D02*
X5851361Y-10415661D01*
X5851361Y-10415661D02*
X5851361Y-10368042D01*
X5851361Y-10368042D02*
X5860885Y-10329947D01*
X5860885Y-10329947D02*
X5870409Y-10310899D01*
X5870409Y-10310899D02*
X5879933Y-10301376D01*
X5879933Y-10301376D02*
X5898980Y-10291852D01*
X6032314Y-10291852D02*
X6165647Y-10291852D01*
X6165647Y-10291852D02*
X6079933Y-10491852D01*
X6279933Y-10291852D02*
X6298980Y-10291852D01*
X6298980Y-10291852D02*
X6318028Y-10301376D01*
X6318028Y-10301376D02*
X6327552Y-10310899D01*
X6327552Y-10310899D02*
X6337076Y-10329947D01*
X6337076Y-10329947D02*
X6346599Y-10368042D01*
X6346599Y-10368042D02*
X6346599Y-10415661D01*
X6346599Y-10415661D02*
X6337076Y-10453757D01*
X6337076Y-10453757D02*
X6327552Y-10472804D01*
X6327552Y-10472804D02*
X6318028Y-10482328D01*
X6318028Y-10482328D02*
X6298980Y-10491852D01*
X6298980Y-10491852D02*
X6279933Y-10491852D01*
X6279933Y-10491852D02*
X6260885Y-10482328D01*
X6260885Y-10482328D02*
X6251361Y-10472804D01*
X6251361Y-10472804D02*
X6241838Y-10453757D01*
X6241838Y-10453757D02*
X6232314Y-10415661D01*
X6232314Y-10415661D02*
X6232314Y-10368042D01*
X6232314Y-10368042D02*
X6241838Y-10329947D01*
X6241838Y-10329947D02*
X6251361Y-10310899D01*
X6251361Y-10310899D02*
X6260885Y-10301376D01*
X6260885Y-10301376D02*
X6279933Y-10291852D01*
X6441838Y-10491852D02*
X6479933Y-10491852D01*
X6479933Y-10491852D02*
X6498980Y-10482328D01*
X6498980Y-10482328D02*
X6508504Y-10472804D01*
X6508504Y-10472804D02*
X6527552Y-10444233D01*
X6527552Y-10444233D02*
X6537076Y-10406138D01*
X6537076Y-10406138D02*
X6537076Y-10329947D01*
X6537076Y-10329947D02*
X6527552Y-10310899D01*
X6527552Y-10310899D02*
X6518028Y-10301376D01*
X6518028Y-10301376D02*
X6498980Y-10291852D01*
X6498980Y-10291852D02*
X6460885Y-10291852D01*
X6460885Y-10291852D02*
X6441838Y-10301376D01*
X6441838Y-10301376D02*
X6432314Y-10310899D01*
X6432314Y-10310899D02*
X6422790Y-10329947D01*
X6422790Y-10329947D02*
X6422790Y-10377566D01*
X6422790Y-10377566D02*
X6432314Y-10396614D01*
X6432314Y-10396614D02*
X6441838Y-10406138D01*
X6441838Y-10406138D02*
X6460885Y-10415661D01*
X6460885Y-10415661D02*
X6498980Y-10415661D01*
X6498980Y-10415661D02*
X6518028Y-10406138D01*
X6518028Y-10406138D02*
X6527552Y-10396614D01*
X6527552Y-10396614D02*
X6537076Y-10377566D01*
X6613266Y-10291852D02*
X6613266Y-10329947D01*
X6689457Y-10291852D02*
X6689457Y-10329947D01*
X6984695Y-10568042D02*
X6975171Y-10558518D01*
X6975171Y-10558518D02*
X6956123Y-10529947D01*
X6956123Y-10529947D02*
X6946600Y-10510899D01*
X6946600Y-10510899D02*
X6937076Y-10482328D01*
X6937076Y-10482328D02*
X6927552Y-10434709D01*
X6927552Y-10434709D02*
X6927552Y-10396614D01*
X6927552Y-10396614D02*
X6937076Y-10348995D01*
X6937076Y-10348995D02*
X6946600Y-10320423D01*
X6946600Y-10320423D02*
X6956123Y-10301376D01*
X6956123Y-10301376D02*
X6975171Y-10272804D01*
X6975171Y-10272804D02*
X6984695Y-10263280D01*
X7051361Y-10310899D02*
X7060885Y-10301376D01*
X7060885Y-10301376D02*
X7079933Y-10291852D01*
X7079933Y-10291852D02*
X7127552Y-10291852D01*
X7127552Y-10291852D02*
X7146600Y-10301376D01*
X7146600Y-10301376D02*
X7156123Y-10310899D01*
X7156123Y-10310899D02*
X7165647Y-10329947D01*
X7165647Y-10329947D02*
X7165647Y-10348995D01*
X7165647Y-10348995D02*
X7156123Y-10377566D01*
X7156123Y-10377566D02*
X7041838Y-10491852D01*
X7041838Y-10491852D02*
X7165647Y-10491852D01*
X7403742Y-10491852D02*
X7403742Y-10291852D01*
X7489457Y-10491852D02*
X7489457Y-10387090D01*
X7489457Y-10387090D02*
X7479933Y-10368042D01*
X7479933Y-10368042D02*
X7460885Y-10358518D01*
X7460885Y-10358518D02*
X7432314Y-10358518D01*
X7432314Y-10358518D02*
X7413266Y-10368042D01*
X7413266Y-10368042D02*
X7403742Y-10377566D01*
X7613266Y-10491852D02*
X7594219Y-10482328D01*
X7594219Y-10482328D02*
X7584695Y-10472804D01*
X7584695Y-10472804D02*
X7575171Y-10453757D01*
X7575171Y-10453757D02*
X7575171Y-10396614D01*
X7575171Y-10396614D02*
X7584695Y-10377566D01*
X7584695Y-10377566D02*
X7594219Y-10368042D01*
X7594219Y-10368042D02*
X7613266Y-10358518D01*
X7613266Y-10358518D02*
X7641838Y-10358518D01*
X7641838Y-10358518D02*
X7660885Y-10368042D01*
X7660885Y-10368042D02*
X7670409Y-10377566D01*
X7670409Y-10377566D02*
X7679933Y-10396614D01*
X7679933Y-10396614D02*
X7679933Y-10453757D01*
X7679933Y-10453757D02*
X7670409Y-10472804D01*
X7670409Y-10472804D02*
X7660885Y-10482328D01*
X7660885Y-10482328D02*
X7641838Y-10491852D01*
X7641838Y-10491852D02*
X7613266Y-10491852D01*
X7794219Y-10491852D02*
X7775171Y-10482328D01*
X7775171Y-10482328D02*
X7765647Y-10463280D01*
X7765647Y-10463280D02*
X7765647Y-10291852D01*
X7946600Y-10482328D02*
X7927552Y-10491852D01*
X7927552Y-10491852D02*
X7889457Y-10491852D01*
X7889457Y-10491852D02*
X7870409Y-10482328D01*
X7870409Y-10482328D02*
X7860885Y-10463280D01*
X7860885Y-10463280D02*
X7860885Y-10387090D01*
X7860885Y-10387090D02*
X7870409Y-10368042D01*
X7870409Y-10368042D02*
X7889457Y-10358518D01*
X7889457Y-10358518D02*
X7927552Y-10358518D01*
X7927552Y-10358518D02*
X7946600Y-10368042D01*
X7946600Y-10368042D02*
X7956123Y-10387090D01*
X7956123Y-10387090D02*
X7956123Y-10406138D01*
X7956123Y-10406138D02*
X7860885Y-10425185D01*
X8032314Y-10482328D02*
X8051362Y-10491852D01*
X8051362Y-10491852D02*
X8089457Y-10491852D01*
X8089457Y-10491852D02*
X8108504Y-10482328D01*
X8108504Y-10482328D02*
X8118028Y-10463280D01*
X8118028Y-10463280D02*
X8118028Y-10453757D01*
X8118028Y-10453757D02*
X8108504Y-10434709D01*
X8108504Y-10434709D02*
X8089457Y-10425185D01*
X8089457Y-10425185D02*
X8060885Y-10425185D01*
X8060885Y-10425185D02*
X8041838Y-10415661D01*
X8041838Y-10415661D02*
X8032314Y-10396614D01*
X8032314Y-10396614D02*
X8032314Y-10387090D01*
X8032314Y-10387090D02*
X8041838Y-10368042D01*
X8041838Y-10368042D02*
X8060885Y-10358518D01*
X8060885Y-10358518D02*
X8089457Y-10358518D01*
X8089457Y-10358518D02*
X8108504Y-10368042D01*
X8184695Y-10568042D02*
X8194219Y-10558518D01*
X8194219Y-10558518D02*
X8213266Y-10529947D01*
X8213266Y-10529947D02*
X8222790Y-10510899D01*
X8222790Y-10510899D02*
X8232314Y-10482328D01*
X8232314Y-10482328D02*
X8241838Y-10434709D01*
X8241838Y-10434709D02*
X8241838Y-10396614D01*
X8241838Y-10396614D02*
X8232314Y-10348995D01*
X8232314Y-10348995D02*
X8222790Y-10320423D01*
X8222790Y-10320423D02*
X8213266Y-10301376D01*
X8213266Y-10301376D02*
X8194219Y-10272804D01*
X8194219Y-10272804D02*
X8184695Y-10263280D01*
X8546600Y-10568042D02*
X8537076Y-10558518D01*
X8537076Y-10558518D02*
X8518028Y-10529947D01*
X8518028Y-10529947D02*
X8508505Y-10510899D01*
X8508505Y-10510899D02*
X8498981Y-10482328D01*
X8498981Y-10482328D02*
X8489457Y-10434709D01*
X8489457Y-10434709D02*
X8489457Y-10396614D01*
X8489457Y-10396614D02*
X8498981Y-10348995D01*
X8498981Y-10348995D02*
X8508505Y-10320423D01*
X8508505Y-10320423D02*
X8518028Y-10301376D01*
X8518028Y-10301376D02*
X8537076Y-10272804D01*
X8537076Y-10272804D02*
X8546600Y-10263280D01*
X8622790Y-10358518D02*
X8622790Y-10491852D01*
X8622790Y-10377566D02*
X8632314Y-10368042D01*
X8632314Y-10368042D02*
X8651362Y-10358518D01*
X8651362Y-10358518D02*
X8679933Y-10358518D01*
X8679933Y-10358518D02*
X8698981Y-10368042D01*
X8698981Y-10368042D02*
X8708505Y-10387090D01*
X8708505Y-10387090D02*
X8708505Y-10491852D01*
X8832314Y-10491852D02*
X8813266Y-10482328D01*
X8813266Y-10482328D02*
X8803743Y-10472804D01*
X8803743Y-10472804D02*
X8794219Y-10453757D01*
X8794219Y-10453757D02*
X8794219Y-10396614D01*
X8794219Y-10396614D02*
X8803743Y-10377566D01*
X8803743Y-10377566D02*
X8813266Y-10368042D01*
X8813266Y-10368042D02*
X8832314Y-10358518D01*
X8832314Y-10358518D02*
X8860886Y-10358518D01*
X8860886Y-10358518D02*
X8879933Y-10368042D01*
X8879933Y-10368042D02*
X8889457Y-10377566D01*
X8889457Y-10377566D02*
X8898981Y-10396614D01*
X8898981Y-10396614D02*
X8898981Y-10453757D01*
X8898981Y-10453757D02*
X8889457Y-10472804D01*
X8889457Y-10472804D02*
X8879933Y-10482328D01*
X8879933Y-10482328D02*
X8860886Y-10491852D01*
X8860886Y-10491852D02*
X8832314Y-10491852D01*
X8956124Y-10358518D02*
X9032314Y-10358518D01*
X8984695Y-10291852D02*
X8984695Y-10463280D01*
X8984695Y-10463280D02*
X8994219Y-10482328D01*
X8994219Y-10482328D02*
X9013266Y-10491852D01*
X9013266Y-10491852D02*
X9032314Y-10491852D01*
X9251362Y-10358518D02*
X9251362Y-10558518D01*
X9251362Y-10368042D02*
X9270409Y-10358518D01*
X9270409Y-10358518D02*
X9308505Y-10358518D01*
X9308505Y-10358518D02*
X9327552Y-10368042D01*
X9327552Y-10368042D02*
X9337076Y-10377566D01*
X9337076Y-10377566D02*
X9346600Y-10396614D01*
X9346600Y-10396614D02*
X9346600Y-10453757D01*
X9346600Y-10453757D02*
X9337076Y-10472804D01*
X9337076Y-10472804D02*
X9327552Y-10482328D01*
X9327552Y-10482328D02*
X9308505Y-10491852D01*
X9308505Y-10491852D02*
X9270409Y-10491852D01*
X9270409Y-10491852D02*
X9251362Y-10482328D01*
X9460886Y-10491852D02*
X9441838Y-10482328D01*
X9441838Y-10482328D02*
X9432314Y-10463280D01*
X9432314Y-10463280D02*
X9432314Y-10291852D01*
X9622790Y-10491852D02*
X9622790Y-10387090D01*
X9622790Y-10387090D02*
X9613267Y-10368042D01*
X9613267Y-10368042D02*
X9594219Y-10358518D01*
X9594219Y-10358518D02*
X9556124Y-10358518D01*
X9556124Y-10358518D02*
X9537076Y-10368042D01*
X9622790Y-10482328D02*
X9603743Y-10491852D01*
X9603743Y-10491852D02*
X9556124Y-10491852D01*
X9556124Y-10491852D02*
X9537076Y-10482328D01*
X9537076Y-10482328D02*
X9527552Y-10463280D01*
X9527552Y-10463280D02*
X9527552Y-10444233D01*
X9527552Y-10444233D02*
X9537076Y-10425185D01*
X9537076Y-10425185D02*
X9556124Y-10415661D01*
X9556124Y-10415661D02*
X9603743Y-10415661D01*
X9603743Y-10415661D02*
X9622790Y-10406138D01*
X9689457Y-10358518D02*
X9765647Y-10358518D01*
X9718028Y-10291852D02*
X9718028Y-10463280D01*
X9718028Y-10463280D02*
X9727552Y-10482328D01*
X9727552Y-10482328D02*
X9746600Y-10491852D01*
X9746600Y-10491852D02*
X9765647Y-10491852D01*
X9908505Y-10482328D02*
X9889457Y-10491852D01*
X9889457Y-10491852D02*
X9851362Y-10491852D01*
X9851362Y-10491852D02*
X9832314Y-10482328D01*
X9832314Y-10482328D02*
X9822790Y-10463280D01*
X9822790Y-10463280D02*
X9822790Y-10387090D01*
X9822790Y-10387090D02*
X9832314Y-10368042D01*
X9832314Y-10368042D02*
X9851362Y-10358518D01*
X9851362Y-10358518D02*
X9889457Y-10358518D01*
X9889457Y-10358518D02*
X9908505Y-10368042D01*
X9908505Y-10368042D02*
X9918028Y-10387090D01*
X9918028Y-10387090D02*
X9918028Y-10406138D01*
X9918028Y-10406138D02*
X9822790Y-10425185D01*
X10089457Y-10491852D02*
X10089457Y-10291852D01*
X10089457Y-10482328D02*
X10070409Y-10491852D01*
X10070409Y-10491852D02*
X10032314Y-10491852D01*
X10032314Y-10491852D02*
X10013267Y-10482328D01*
X10013267Y-10482328D02*
X10003743Y-10472804D01*
X10003743Y-10472804D02*
X9994219Y-10453757D01*
X9994219Y-10453757D02*
X9994219Y-10396614D01*
X9994219Y-10396614D02*
X10003743Y-10377566D01*
X10003743Y-10377566D02*
X10013267Y-10368042D01*
X10013267Y-10368042D02*
X10032314Y-10358518D01*
X10032314Y-10358518D02*
X10070409Y-10358518D01*
X10070409Y-10358518D02*
X10089457Y-10368042D01*
X10165648Y-10568042D02*
X10175171Y-10558518D01*
X10175171Y-10558518D02*
X10194219Y-10529947D01*
X10194219Y-10529947D02*
X10203743Y-10510899D01*
X10203743Y-10510899D02*
X10213267Y-10482328D01*
X10213267Y-10482328D02*
X10222790Y-10434709D01*
X10222790Y-10434709D02*
X10222790Y-10396614D01*
X10222790Y-10396614D02*
X10213267Y-10348995D01*
X10213267Y-10348995D02*
X10203743Y-10320423D01*
X10203743Y-10320423D02*
X10194219Y-10301376D01*
X10194219Y-10301376D02*
X10175171Y-10272804D01*
X10175171Y-10272804D02*
X10165648Y-10263280D01*
X3309632Y-10600368D02*
X3309632Y-10800368D01*
X3209632Y-10700368D02*
X3409632Y-10700368D01*
X3651361Y-10591852D02*
X3775171Y-10591852D01*
X3775171Y-10591852D02*
X3708504Y-10668042D01*
X3708504Y-10668042D02*
X3737075Y-10668042D01*
X3737075Y-10668042D02*
X3756123Y-10677566D01*
X3756123Y-10677566D02*
X3765647Y-10687090D01*
X3765647Y-10687090D02*
X3775171Y-10706138D01*
X3775171Y-10706138D02*
X3775171Y-10753757D01*
X3775171Y-10753757D02*
X3765647Y-10772804D01*
X3765647Y-10772804D02*
X3756123Y-10782328D01*
X3756123Y-10782328D02*
X3737075Y-10791852D01*
X3737075Y-10791852D02*
X3679933Y-10791852D01*
X3679933Y-10791852D02*
X3660885Y-10782328D01*
X3660885Y-10782328D02*
X3651361Y-10772804D01*
X3860885Y-10772804D02*
X3870409Y-10782328D01*
X3870409Y-10782328D02*
X3860885Y-10791852D01*
X3860885Y-10791852D02*
X3851361Y-10782328D01*
X3851361Y-10782328D02*
X3860885Y-10772804D01*
X3860885Y-10772804D02*
X3860885Y-10791852D01*
X3946599Y-10610899D02*
X3956123Y-10601376D01*
X3956123Y-10601376D02*
X3975171Y-10591852D01*
X3975171Y-10591852D02*
X4022790Y-10591852D01*
X4022790Y-10591852D02*
X4041837Y-10601376D01*
X4041837Y-10601376D02*
X4051361Y-10610899D01*
X4051361Y-10610899D02*
X4060885Y-10629947D01*
X4060885Y-10629947D02*
X4060885Y-10648995D01*
X4060885Y-10648995D02*
X4051361Y-10677566D01*
X4051361Y-10677566D02*
X3937075Y-10791852D01*
X3937075Y-10791852D02*
X4060885Y-10791852D01*
X4184694Y-10591852D02*
X4203742Y-10591852D01*
X4203742Y-10591852D02*
X4222790Y-10601376D01*
X4222790Y-10601376D02*
X4232314Y-10610899D01*
X4232314Y-10610899D02*
X4241837Y-10629947D01*
X4241837Y-10629947D02*
X4251361Y-10668042D01*
X4251361Y-10668042D02*
X4251361Y-10715661D01*
X4251361Y-10715661D02*
X4241837Y-10753757D01*
X4241837Y-10753757D02*
X4232314Y-10772804D01*
X4232314Y-10772804D02*
X4222790Y-10782328D01*
X4222790Y-10782328D02*
X4203742Y-10791852D01*
X4203742Y-10791852D02*
X4184694Y-10791852D01*
X4184694Y-10791852D02*
X4165647Y-10782328D01*
X4165647Y-10782328D02*
X4156123Y-10772804D01*
X4156123Y-10772804D02*
X4146599Y-10753757D01*
X4146599Y-10753757D02*
X4137075Y-10715661D01*
X4137075Y-10715661D02*
X4137075Y-10668042D01*
X4137075Y-10668042D02*
X4146599Y-10629947D01*
X4146599Y-10629947D02*
X4156123Y-10610899D01*
X4156123Y-10610899D02*
X4165647Y-10601376D01*
X4165647Y-10601376D02*
X4184694Y-10591852D01*
X4375171Y-10591852D02*
X4394218Y-10591852D01*
X4394218Y-10591852D02*
X4413266Y-10601376D01*
X4413266Y-10601376D02*
X4422790Y-10610899D01*
X4422790Y-10610899D02*
X4432314Y-10629947D01*
X4432314Y-10629947D02*
X4441837Y-10668042D01*
X4441837Y-10668042D02*
X4441837Y-10715661D01*
X4441837Y-10715661D02*
X4432314Y-10753757D01*
X4432314Y-10753757D02*
X4422790Y-10772804D01*
X4422790Y-10772804D02*
X4413266Y-10782328D01*
X4413266Y-10782328D02*
X4394218Y-10791852D01*
X4394218Y-10791852D02*
X4375171Y-10791852D01*
X4375171Y-10791852D02*
X4356123Y-10782328D01*
X4356123Y-10782328D02*
X4346599Y-10772804D01*
X4346599Y-10772804D02*
X4337076Y-10753757D01*
X4337076Y-10753757D02*
X4327552Y-10715661D01*
X4327552Y-10715661D02*
X4327552Y-10668042D01*
X4327552Y-10668042D02*
X4337076Y-10629947D01*
X4337076Y-10629947D02*
X4346599Y-10610899D01*
X4346599Y-10610899D02*
X4356123Y-10601376D01*
X4356123Y-10601376D02*
X4375171Y-10591852D01*
X4527552Y-10791852D02*
X4527552Y-10658518D01*
X4527552Y-10677566D02*
X4537076Y-10668042D01*
X4537076Y-10668042D02*
X4556123Y-10658518D01*
X4556123Y-10658518D02*
X4584695Y-10658518D01*
X4584695Y-10658518D02*
X4603742Y-10668042D01*
X4603742Y-10668042D02*
X4613266Y-10687090D01*
X4613266Y-10687090D02*
X4613266Y-10791852D01*
X4613266Y-10687090D02*
X4622790Y-10668042D01*
X4622790Y-10668042D02*
X4641837Y-10658518D01*
X4641837Y-10658518D02*
X4670409Y-10658518D01*
X4670409Y-10658518D02*
X4689457Y-10668042D01*
X4689457Y-10668042D02*
X4698980Y-10687090D01*
X4698980Y-10687090D02*
X4698980Y-10791852D01*
X4794218Y-10791852D02*
X4794218Y-10658518D01*
X4794218Y-10677566D02*
X4803742Y-10668042D01*
X4803742Y-10668042D02*
X4822790Y-10658518D01*
X4822790Y-10658518D02*
X4851361Y-10658518D01*
X4851361Y-10658518D02*
X4870409Y-10668042D01*
X4870409Y-10668042D02*
X4879933Y-10687090D01*
X4879933Y-10687090D02*
X4879933Y-10791852D01*
X4879933Y-10687090D02*
X4889457Y-10668042D01*
X4889457Y-10668042D02*
X4908504Y-10658518D01*
X4908504Y-10658518D02*
X4937076Y-10658518D01*
X4937076Y-10658518D02*
X4956123Y-10668042D01*
X4956123Y-10668042D02*
X4965647Y-10687090D01*
X4965647Y-10687090D02*
X4965647Y-10791852D01*
X5356123Y-10582328D02*
X5184695Y-10839471D01*
X5613266Y-10591852D02*
X5632314Y-10591852D01*
X5632314Y-10591852D02*
X5651361Y-10601376D01*
X5651361Y-10601376D02*
X5660885Y-10610899D01*
X5660885Y-10610899D02*
X5670409Y-10629947D01*
X5670409Y-10629947D02*
X5679933Y-10668042D01*
X5679933Y-10668042D02*
X5679933Y-10715661D01*
X5679933Y-10715661D02*
X5670409Y-10753757D01*
X5670409Y-10753757D02*
X5660885Y-10772804D01*
X5660885Y-10772804D02*
X5651361Y-10782328D01*
X5651361Y-10782328D02*
X5632314Y-10791852D01*
X5632314Y-10791852D02*
X5613266Y-10791852D01*
X5613266Y-10791852D02*
X5594218Y-10782328D01*
X5594218Y-10782328D02*
X5584695Y-10772804D01*
X5584695Y-10772804D02*
X5575171Y-10753757D01*
X5575171Y-10753757D02*
X5565647Y-10715661D01*
X5565647Y-10715661D02*
X5565647Y-10668042D01*
X5565647Y-10668042D02*
X5575171Y-10629947D01*
X5575171Y-10629947D02*
X5584695Y-10610899D01*
X5584695Y-10610899D02*
X5594218Y-10601376D01*
X5594218Y-10601376D02*
X5613266Y-10591852D01*
X5765647Y-10772804D02*
X5775171Y-10782328D01*
X5775171Y-10782328D02*
X5765647Y-10791852D01*
X5765647Y-10791852D02*
X5756123Y-10782328D01*
X5756123Y-10782328D02*
X5765647Y-10772804D01*
X5765647Y-10772804D02*
X5765647Y-10791852D01*
X5965647Y-10791852D02*
X5851361Y-10791852D01*
X5908504Y-10791852D02*
X5908504Y-10591852D01*
X5908504Y-10591852D02*
X5889457Y-10620423D01*
X5889457Y-10620423D02*
X5870409Y-10639471D01*
X5870409Y-10639471D02*
X5851361Y-10648995D01*
X6041838Y-10610899D02*
X6051361Y-10601376D01*
X6051361Y-10601376D02*
X6070409Y-10591852D01*
X6070409Y-10591852D02*
X6118028Y-10591852D01*
X6118028Y-10591852D02*
X6137076Y-10601376D01*
X6137076Y-10601376D02*
X6146599Y-10610899D01*
X6146599Y-10610899D02*
X6156123Y-10629947D01*
X6156123Y-10629947D02*
X6156123Y-10648995D01*
X6156123Y-10648995D02*
X6146599Y-10677566D01*
X6146599Y-10677566D02*
X6032314Y-10791852D01*
X6032314Y-10791852D02*
X6156123Y-10791852D01*
X6327552Y-10591852D02*
X6289457Y-10591852D01*
X6289457Y-10591852D02*
X6270409Y-10601376D01*
X6270409Y-10601376D02*
X6260885Y-10610899D01*
X6260885Y-10610899D02*
X6241838Y-10639471D01*
X6241838Y-10639471D02*
X6232314Y-10677566D01*
X6232314Y-10677566D02*
X6232314Y-10753757D01*
X6232314Y-10753757D02*
X6241838Y-10772804D01*
X6241838Y-10772804D02*
X6251361Y-10782328D01*
X6251361Y-10782328D02*
X6270409Y-10791852D01*
X6270409Y-10791852D02*
X6308504Y-10791852D01*
X6308504Y-10791852D02*
X6327552Y-10782328D01*
X6327552Y-10782328D02*
X6337076Y-10772804D01*
X6337076Y-10772804D02*
X6346599Y-10753757D01*
X6346599Y-10753757D02*
X6346599Y-10706138D01*
X6346599Y-10706138D02*
X6337076Y-10687090D01*
X6337076Y-10687090D02*
X6327552Y-10677566D01*
X6327552Y-10677566D02*
X6308504Y-10668042D01*
X6308504Y-10668042D02*
X6270409Y-10668042D01*
X6270409Y-10668042D02*
X6251361Y-10677566D01*
X6251361Y-10677566D02*
X6241838Y-10687090D01*
X6241838Y-10687090D02*
X6232314Y-10706138D01*
X6470409Y-10591852D02*
X6489457Y-10591852D01*
X6489457Y-10591852D02*
X6508504Y-10601376D01*
X6508504Y-10601376D02*
X6518028Y-10610899D01*
X6518028Y-10610899D02*
X6527552Y-10629947D01*
X6527552Y-10629947D02*
X6537076Y-10668042D01*
X6537076Y-10668042D02*
X6537076Y-10715661D01*
X6537076Y-10715661D02*
X6527552Y-10753757D01*
X6527552Y-10753757D02*
X6518028Y-10772804D01*
X6518028Y-10772804D02*
X6508504Y-10782328D01*
X6508504Y-10782328D02*
X6489457Y-10791852D01*
X6489457Y-10791852D02*
X6470409Y-10791852D01*
X6470409Y-10791852D02*
X6451361Y-10782328D01*
X6451361Y-10782328D02*
X6441838Y-10772804D01*
X6441838Y-10772804D02*
X6432314Y-10753757D01*
X6432314Y-10753757D02*
X6422790Y-10715661D01*
X6422790Y-10715661D02*
X6422790Y-10668042D01*
X6422790Y-10668042D02*
X6432314Y-10629947D01*
X6432314Y-10629947D02*
X6441838Y-10610899D01*
X6441838Y-10610899D02*
X6451361Y-10601376D01*
X6451361Y-10601376D02*
X6470409Y-10591852D01*
X6613266Y-10591852D02*
X6613266Y-10629947D01*
X6689457Y-10591852D02*
X6689457Y-10629947D01*
X6984695Y-10868042D02*
X6975171Y-10858518D01*
X6975171Y-10858518D02*
X6956123Y-10829947D01*
X6956123Y-10829947D02*
X6946600Y-10810899D01*
X6946600Y-10810899D02*
X6937076Y-10782328D01*
X6937076Y-10782328D02*
X6927552Y-10734709D01*
X6927552Y-10734709D02*
X6927552Y-10696614D01*
X6927552Y-10696614D02*
X6937076Y-10648995D01*
X6937076Y-10648995D02*
X6946600Y-10620423D01*
X6946600Y-10620423D02*
X6956123Y-10601376D01*
X6956123Y-10601376D02*
X6975171Y-10572804D01*
X6975171Y-10572804D02*
X6984695Y-10563280D01*
X7146600Y-10658518D02*
X7146600Y-10791852D01*
X7098980Y-10582328D02*
X7051361Y-10725185D01*
X7051361Y-10725185D02*
X7175171Y-10725185D01*
X7403742Y-10791852D02*
X7403742Y-10591852D01*
X7489457Y-10791852D02*
X7489457Y-10687090D01*
X7489457Y-10687090D02*
X7479933Y-10668042D01*
X7479933Y-10668042D02*
X7460885Y-10658518D01*
X7460885Y-10658518D02*
X7432314Y-10658518D01*
X7432314Y-10658518D02*
X7413266Y-10668042D01*
X7413266Y-10668042D02*
X7403742Y-10677566D01*
X7613266Y-10791852D02*
X7594219Y-10782328D01*
X7594219Y-10782328D02*
X7584695Y-10772804D01*
X7584695Y-10772804D02*
X7575171Y-10753757D01*
X7575171Y-10753757D02*
X7575171Y-10696614D01*
X7575171Y-10696614D02*
X7584695Y-10677566D01*
X7584695Y-10677566D02*
X7594219Y-10668042D01*
X7594219Y-10668042D02*
X7613266Y-10658518D01*
X7613266Y-10658518D02*
X7641838Y-10658518D01*
X7641838Y-10658518D02*
X7660885Y-10668042D01*
X7660885Y-10668042D02*
X7670409Y-10677566D01*
X7670409Y-10677566D02*
X7679933Y-10696614D01*
X7679933Y-10696614D02*
X7679933Y-10753757D01*
X7679933Y-10753757D02*
X7670409Y-10772804D01*
X7670409Y-10772804D02*
X7660885Y-10782328D01*
X7660885Y-10782328D02*
X7641838Y-10791852D01*
X7641838Y-10791852D02*
X7613266Y-10791852D01*
X7794219Y-10791852D02*
X7775171Y-10782328D01*
X7775171Y-10782328D02*
X7765647Y-10763280D01*
X7765647Y-10763280D02*
X7765647Y-10591852D01*
X7946600Y-10782328D02*
X7927552Y-10791852D01*
X7927552Y-10791852D02*
X7889457Y-10791852D01*
X7889457Y-10791852D02*
X7870409Y-10782328D01*
X7870409Y-10782328D02*
X7860885Y-10763280D01*
X7860885Y-10763280D02*
X7860885Y-10687090D01*
X7860885Y-10687090D02*
X7870409Y-10668042D01*
X7870409Y-10668042D02*
X7889457Y-10658518D01*
X7889457Y-10658518D02*
X7927552Y-10658518D01*
X7927552Y-10658518D02*
X7946600Y-10668042D01*
X7946600Y-10668042D02*
X7956123Y-10687090D01*
X7956123Y-10687090D02*
X7956123Y-10706138D01*
X7956123Y-10706138D02*
X7860885Y-10725185D01*
X8032314Y-10782328D02*
X8051362Y-10791852D01*
X8051362Y-10791852D02*
X8089457Y-10791852D01*
X8089457Y-10791852D02*
X8108504Y-10782328D01*
X8108504Y-10782328D02*
X8118028Y-10763280D01*
X8118028Y-10763280D02*
X8118028Y-10753757D01*
X8118028Y-10753757D02*
X8108504Y-10734709D01*
X8108504Y-10734709D02*
X8089457Y-10725185D01*
X8089457Y-10725185D02*
X8060885Y-10725185D01*
X8060885Y-10725185D02*
X8041838Y-10715661D01*
X8041838Y-10715661D02*
X8032314Y-10696614D01*
X8032314Y-10696614D02*
X8032314Y-10687090D01*
X8032314Y-10687090D02*
X8041838Y-10668042D01*
X8041838Y-10668042D02*
X8060885Y-10658518D01*
X8060885Y-10658518D02*
X8089457Y-10658518D01*
X8089457Y-10658518D02*
X8108504Y-10668042D01*
X8184695Y-10868042D02*
X8194219Y-10858518D01*
X8194219Y-10858518D02*
X8213266Y-10829947D01*
X8213266Y-10829947D02*
X8222790Y-10810899D01*
X8222790Y-10810899D02*
X8232314Y-10782328D01*
X8232314Y-10782328D02*
X8241838Y-10734709D01*
X8241838Y-10734709D02*
X8241838Y-10696614D01*
X8241838Y-10696614D02*
X8232314Y-10648995D01*
X8232314Y-10648995D02*
X8222790Y-10620423D01*
X8222790Y-10620423D02*
X8213266Y-10601376D01*
X8213266Y-10601376D02*
X8194219Y-10572804D01*
X8194219Y-10572804D02*
X8184695Y-10563280D01*
X8546600Y-10868042D02*
X8537076Y-10858518D01*
X8537076Y-10858518D02*
X8518028Y-10829947D01*
X8518028Y-10829947D02*
X8508505Y-10810899D01*
X8508505Y-10810899D02*
X8498981Y-10782328D01*
X8498981Y-10782328D02*
X8489457Y-10734709D01*
X8489457Y-10734709D02*
X8489457Y-10696614D01*
X8489457Y-10696614D02*
X8498981Y-10648995D01*
X8498981Y-10648995D02*
X8508505Y-10620423D01*
X8508505Y-10620423D02*
X8518028Y-10601376D01*
X8518028Y-10601376D02*
X8537076Y-10572804D01*
X8537076Y-10572804D02*
X8546600Y-10563280D01*
X8622790Y-10658518D02*
X8622790Y-10791852D01*
X8622790Y-10677566D02*
X8632314Y-10668042D01*
X8632314Y-10668042D02*
X8651362Y-10658518D01*
X8651362Y-10658518D02*
X8679933Y-10658518D01*
X8679933Y-10658518D02*
X8698981Y-10668042D01*
X8698981Y-10668042D02*
X8708505Y-10687090D01*
X8708505Y-10687090D02*
X8708505Y-10791852D01*
X8832314Y-10791852D02*
X8813266Y-10782328D01*
X8813266Y-10782328D02*
X8803743Y-10772804D01*
X8803743Y-10772804D02*
X8794219Y-10753757D01*
X8794219Y-10753757D02*
X8794219Y-10696614D01*
X8794219Y-10696614D02*
X8803743Y-10677566D01*
X8803743Y-10677566D02*
X8813266Y-10668042D01*
X8813266Y-10668042D02*
X8832314Y-10658518D01*
X8832314Y-10658518D02*
X8860886Y-10658518D01*
X8860886Y-10658518D02*
X8879933Y-10668042D01*
X8879933Y-10668042D02*
X8889457Y-10677566D01*
X8889457Y-10677566D02*
X8898981Y-10696614D01*
X8898981Y-10696614D02*
X8898981Y-10753757D01*
X8898981Y-10753757D02*
X8889457Y-10772804D01*
X8889457Y-10772804D02*
X8879933Y-10782328D01*
X8879933Y-10782328D02*
X8860886Y-10791852D01*
X8860886Y-10791852D02*
X8832314Y-10791852D01*
X8956124Y-10658518D02*
X9032314Y-10658518D01*
X8984695Y-10591852D02*
X8984695Y-10763280D01*
X8984695Y-10763280D02*
X8994219Y-10782328D01*
X8994219Y-10782328D02*
X9013266Y-10791852D01*
X9013266Y-10791852D02*
X9032314Y-10791852D01*
X9251362Y-10658518D02*
X9251362Y-10858518D01*
X9251362Y-10668042D02*
X9270409Y-10658518D01*
X9270409Y-10658518D02*
X9308505Y-10658518D01*
X9308505Y-10658518D02*
X9327552Y-10668042D01*
X9327552Y-10668042D02*
X9337076Y-10677566D01*
X9337076Y-10677566D02*
X9346600Y-10696614D01*
X9346600Y-10696614D02*
X9346600Y-10753757D01*
X9346600Y-10753757D02*
X9337076Y-10772804D01*
X9337076Y-10772804D02*
X9327552Y-10782328D01*
X9327552Y-10782328D02*
X9308505Y-10791852D01*
X9308505Y-10791852D02*
X9270409Y-10791852D01*
X9270409Y-10791852D02*
X9251362Y-10782328D01*
X9460886Y-10791852D02*
X9441838Y-10782328D01*
X9441838Y-10782328D02*
X9432314Y-10763280D01*
X9432314Y-10763280D02*
X9432314Y-10591852D01*
X9622790Y-10791852D02*
X9622790Y-10687090D01*
X9622790Y-10687090D02*
X9613267Y-10668042D01*
X9613267Y-10668042D02*
X9594219Y-10658518D01*
X9594219Y-10658518D02*
X9556124Y-10658518D01*
X9556124Y-10658518D02*
X9537076Y-10668042D01*
X9622790Y-10782328D02*
X9603743Y-10791852D01*
X9603743Y-10791852D02*
X9556124Y-10791852D01*
X9556124Y-10791852D02*
X9537076Y-10782328D01*
X9537076Y-10782328D02*
X9527552Y-10763280D01*
X9527552Y-10763280D02*
X9527552Y-10744233D01*
X9527552Y-10744233D02*
X9537076Y-10725185D01*
X9537076Y-10725185D02*
X9556124Y-10715661D01*
X9556124Y-10715661D02*
X9603743Y-10715661D01*
X9603743Y-10715661D02*
X9622790Y-10706138D01*
X9689457Y-10658518D02*
X9765647Y-10658518D01*
X9718028Y-10591852D02*
X9718028Y-10763280D01*
X9718028Y-10763280D02*
X9727552Y-10782328D01*
X9727552Y-10782328D02*
X9746600Y-10791852D01*
X9746600Y-10791852D02*
X9765647Y-10791852D01*
X9908505Y-10782328D02*
X9889457Y-10791852D01*
X9889457Y-10791852D02*
X9851362Y-10791852D01*
X9851362Y-10791852D02*
X9832314Y-10782328D01*
X9832314Y-10782328D02*
X9822790Y-10763280D01*
X9822790Y-10763280D02*
X9822790Y-10687090D01*
X9822790Y-10687090D02*
X9832314Y-10668042D01*
X9832314Y-10668042D02*
X9851362Y-10658518D01*
X9851362Y-10658518D02*
X9889457Y-10658518D01*
X9889457Y-10658518D02*
X9908505Y-10668042D01*
X9908505Y-10668042D02*
X9918028Y-10687090D01*
X9918028Y-10687090D02*
X9918028Y-10706138D01*
X9918028Y-10706138D02*
X9822790Y-10725185D01*
X10089457Y-10791852D02*
X10089457Y-10591852D01*
X10089457Y-10782328D02*
X10070409Y-10791852D01*
X10070409Y-10791852D02*
X10032314Y-10791852D01*
X10032314Y-10791852D02*
X10013267Y-10782328D01*
X10013267Y-10782328D02*
X10003743Y-10772804D01*
X10003743Y-10772804D02*
X9994219Y-10753757D01*
X9994219Y-10753757D02*
X9994219Y-10696614D01*
X9994219Y-10696614D02*
X10003743Y-10677566D01*
X10003743Y-10677566D02*
X10013267Y-10668042D01*
X10013267Y-10668042D02*
X10032314Y-10658518D01*
X10032314Y-10658518D02*
X10070409Y-10658518D01*
X10070409Y-10658518D02*
X10089457Y-10668042D01*
X10165648Y-10868042D02*
X10175171Y-10858518D01*
X10175171Y-10858518D02*
X10194219Y-10829947D01*
X10194219Y-10829947D02*
X10203743Y-10810899D01*
X10203743Y-10810899D02*
X10213267Y-10782328D01*
X10213267Y-10782328D02*
X10222790Y-10734709D01*
X10222790Y-10734709D02*
X10222790Y-10696614D01*
X10222790Y-10696614D02*
X10213267Y-10648995D01*
X10213267Y-10648995D02*
X10203743Y-10620423D01*
X10203743Y-10620423D02*
X10194219Y-10601376D01*
X10194219Y-10601376D02*
X10175171Y-10572804D01*
X10175171Y-10572804D02*
X10165648Y-10563280D01*
M02*
